<svg width="24" height="24" viewBox="0 0 24 24" fill="none" xmlns="http://www.w3.org/2000/svg">
<g id="House" clip-path="url(#clip0_1000_2442)">
<path id="Vector" d="M15.5947 21.0502V16.1752C15.5947 15.9597 15.5091 15.753 15.3568 15.6007C15.2044 15.4483 14.9977 15.3627 14.7822 15.3627H11.5322C11.3167 15.3627 11.1101 15.4483 10.9577 15.6007C10.8053 15.753 10.7197 15.9597 10.7197 16.1752V21.0502C10.7197 21.2657 10.6341 21.4723 10.4818 21.6247C10.3294 21.7771 10.1227 21.8627 9.90723 21.8627H5.03223C4.81674 21.8627 4.61008 21.7771 4.4577 21.6247C4.30533 21.4723 4.21973 21.2657 4.21973 21.0502V11.6597C4.21974 11.5465 4.24341 11.4345 4.28924 11.331C4.33506 11.2274 4.40202 11.1346 4.48582 11.0585L12.6108 3.38644C12.7604 3.25027 12.9554 3.1748 13.1577 3.1748C13.36 3.1748 13.555 3.25027 13.7046 3.38644L21.8296 11.0585C21.9134 11.1346 21.9804 11.2274 22.0262 11.331C22.0721 11.4345 22.0957 11.5465 22.0957 11.6597V21.0502C22.0957 21.2657 22.0101 21.4723 21.8578 21.6247C21.7054 21.7771 21.4987 21.8627 21.2832 21.8627H16.4072C16.1917 21.8627 15.9851 21.7771 15.8327 21.6247C15.6803 21.4723 15.5947 21.2657 15.5947 21.0502Z" stroke="#8B0000" stroke-width="1.5" stroke-linecap="round" stroke-linejoin="round"/>
</g>
<defs>
<clipPath id="clip0_1000_2442">
<rect width="26" height="26" fill="white" transform="translate(0.157227 -0.074707)"/>
</clipPath>
</defs>
</svg>
