<svg width="24" height="24" viewBox="0 0 24 24" fill="none" xmlns="http://www.w3.org/2000/svg">
<g id="Wallet" clip-path="url(#clip0_1000_2453)">
<path id="Vector" d="M4.21973 6.42529V19.4253C4.21973 19.8563 4.39093 20.2696 4.69568 20.5743C5.00042 20.8791 5.41375 21.0503 5.84473 21.0503H22.0947C22.3102 21.0503 22.5169 20.9647 22.6693 20.8123C22.8216 20.6599 22.9072 20.4533 22.9072 20.2378V8.86279C22.9072 8.6473 22.8216 8.44064 22.6693 8.28827C22.5169 8.1359 22.3102 8.05029 22.0947 8.05029H5.84473C5.41375 8.05029 5.00042 7.87909 4.69568 7.57434C4.39093 7.26959 4.21973 6.85627 4.21973 6.42529ZM4.21973 6.42529C4.21973 5.99432 4.39093 5.58099 4.69568 5.27624C5.00042 4.9715 5.41375 4.80029 5.84473 4.80029H19.6572" stroke="#8B0000" stroke-width="1.5" stroke-linecap="round" stroke-linejoin="round"/>
<path id="Vector_2" d="M18.4385 15.3628C19.1116 15.3628 19.6572 14.8171 19.6572 14.144C19.6572 13.4709 19.1116 12.9253 18.4385 12.9253C17.7654 12.9253 17.2197 13.4709 17.2197 14.144C17.2197 14.8171 17.7654 15.3628 18.4385 15.3628Z" fill="#8B0000"/>
</g>
<defs>
<clipPath id="clip0_1000_2453">
<rect width="26" height="26" fill="white" transform="translate(0.157227 -0.074707)"/>
</clipPath>
</defs>
</svg>
