<svg width="16" height="16" viewBox="0 0 16 16" fill="none" xmlns="http://www.w3.org/2000/svg">
<g id="digital" clip-path="url(#clip0_137_1079)">
<path id="Vector" d="M2.04376 4.80762L8.00001 8.06762L13.9563 4.80762" stroke="#18B35B" stroke-linecap="round" stroke-linejoin="round"/>
<path id="Vector_2" d="M8.24 1.56259L13.74 4.57384C13.8185 4.61681 13.8841 4.68007 13.9298 4.75703C13.9756 4.83399 13.9998 4.92181 14 5.01134V10.9888C13.9998 11.0784 13.9756 11.1662 13.9298 11.2431C13.8841 11.3201 13.8185 11.3834 13.74 11.4263L8.24 14.4376C8.16641 14.4778 8.08388 14.499 8 14.499C7.91612 14.499 7.83359 14.4778 7.76 14.4376L2.26 11.4263C2.18147 11.3834 2.11591 11.3201 2.07017 11.2431C2.02444 11.1662 2.0002 11.0784 2 10.9888V5.01134C2.0002 4.92181 2.02444 4.83399 2.07017 4.75703C2.11591 4.68007 2.18147 4.61681 2.26 4.57384L7.76 1.56259C7.83359 1.52232 7.91612 1.50122 8 1.50122C8.08388 1.50122 8.16641 1.52232 8.24 1.56259Z" stroke="#18B35B" stroke-linecap="round" stroke-linejoin="round"/>
<path id="Vector_3" d="M8 8.06812V14.5" stroke="#18B35B" stroke-linecap="round" stroke-linejoin="round"/>
</g>
<defs>
<clipPath id="clip0_137_1079">
<rect width="16" height="16" fill="white"/>
</clipPath>
</defs>
</svg>
