<svg width="20" height="20" viewBox="0 0 20 20" fill="none" xmlns="http://www.w3.org/2000/svg">
<g id="HeartStraight" clip-path="url(#clip0_330_2415)">
<path id="Vector" d="M18.75 7.6562C18.7513 8.25139 18.6346 8.84094 18.4067 9.39075C18.1787 9.94056 17.844 10.4397 17.4219 10.8593L10.4453 17.939C10.3872 17.9981 10.3178 18.045 10.2414 18.077C10.1649 18.109 10.0829 18.1255 10 18.1255C9.91712 18.1255 9.83506 18.109 9.75861 18.077C9.68216 18.045 9.61284 17.9981 9.55468 17.939L2.57812 10.8593C1.72756 10.0098 1.24931 8.85719 1.24858 7.65506C1.24785 6.45292 1.72469 5.29973 2.57422 4.44917C3.42374 3.59861 4.57635 3.12036 5.77848 3.11963C6.98062 3.1189 8.13381 3.59574 8.98437 4.44526L10 5.39448L11.0227 4.44214C11.6574 3.81057 12.465 3.3812 13.3435 3.20826C14.2221 3.03531 15.1322 3.12653 15.9589 3.4704C16.7857 3.81427 17.492 4.39538 17.9888 5.14036C18.4855 5.88534 18.7504 6.76079 18.75 7.6562Z" fill="white"/>
</g>
<defs>
<clipPath id="clip0_330_2415">
<rect width="20" height="20" fill="white"/>
</clipPath>
</defs>
</svg>
