<svg width="141" height="172" viewBox="0 0 141 172" fill="none" xmlns="http://www.w3.org/2000/svg">
<g id="Layer_1" clip-path="url(#clip0_117_435)">
<path id="Vector" d="M56.789 61.4274L57.5499 60.8274L49.7414 43.2582C53.2904 27.0087 64.4668 14.197 78.8752 10.3274C87.285 8.19423 96.1623 8.87746 104.147 12.2725L104.32 12.3463L104.499 12.2871C106.831 11.5164 109.341 11.465 111.702 12.1397C114.058 12.8129 116.158 14.178 117.73 16.0581C118.909 17.6689 119.695 19.5339 120.023 21.5034C120.32 23.2878 120.235 25.1129 119.775 26.8579C113.308 23.8713 106.41 23.7085 102.062 27.171L102.062 27.1711C98.9533 29.6478 97.6296 33.5988 97.4714 37.6916C97.3131 41.7889 98.3164 46.1089 99.9563 49.439C103.783 57.2233 111.187 59.7665 118.507 62.0685C118.779 62.154 119.051 62.2392 119.323 62.3243C126.429 64.5515 133.338 66.7166 137.388 73.1104C140.716 78.3758 142.702 87.4187 136.228 104.02C135.548 95.3154 132.108 87.0309 126.377 80.391L126.377 80.3909L126.371 80.3847C116.391 69.2065 100.269 64.74 84.5413 68.4185L84.6941 69.4038C102.353 68.0215 118.762 77.5236 125.542 92.7336L125.542 92.7344C129.89 102.44 129.114 111.872 127.143 119.039C125.877 123.642 124.122 127.298 122.931 129.47C123.768 122.064 122.25 114.558 118.559 108.034L118.556 108.029C110.222 93.6387 94.5903 91.2111 92.5993 90.9324L90.7718 90.6765L92.2202 91.82C95.5751 94.4686 108.449 105.278 109.75 122.099C111.319 142.399 95.3773 163.632 69.9135 170.753C49.5715 163.037 31.5839 150.194 17.6866 133.488C26.6156 138.14 35.7612 142.365 45.0927 146.149C52.6252 149.205 59.8816 151.808 66.783 154.036L67.8339 154.376L67.3955 153.362C66.8053 151.997 66.1397 150.666 65.402 149.375L65.4008 149.373C60.3452 140.621 52.751 135.805 45.0391 132.361C41.8501 130.937 38.6286 129.742 35.5588 128.604C34.9214 128.368 34.2905 128.134 33.6679 127.901C30.0348 126.541 26.6841 125.212 23.874 123.596C14.5191 118.214 4.00349 105.49 0.927268 72.3903C6.18001 90.1826 14.4279 98.5028 21.3935 102.799C26.7298 106.099 31.8193 107.341 37.79 108.799L38.146 108.886C44.2721 110.383 51.3939 112.16 60.8168 116.607C67.7229 119.871 74.289 123.811 80.4194 128.368L81.4001 129.097L81.2117 127.89C80.0372 120.362 76.5494 113.387 71.2321 107.931L71.2268 107.925L71.2213 107.92C65.145 102.055 58.6084 100.754 51.7089 99.8233C51.0053 99.7284 50.298 99.6373 49.5869 99.5457C43.3184 98.7383 36.7556 97.893 29.7714 94.0604L29.7707 94.06C15.8117 86.4283 5.41131 69.872 4.4366 53.1265L3.93745 53.1555L4.4366 53.1265C3.347 34.4217 14.053 15.9694 31.7543 4.71869C17.4675 19.0816 12.6033 38.4664 19.2304 53.3588L19.2302 53.3589L19.2363 53.3716C23.0001 61.227 29.3343 67.5611 37.1897 71.325L37.7954 70.5607C37.4509 70.1325 33.2532 64.7665 30.2688 56.5821C27.2856 48.4007 25.5262 37.4373 29.9977 25.7724L29.9981 25.7715C35.4652 11.4262 47.0764 4.36011 52.6412 1.6517C48.4655 5.92966 40.1586 16.3863 40.8437 31.5222L40.8436 31.5222L40.8442 31.5309C41.2101 37.3644 42.8227 43.0516 45.5732 48.2089C48.3238 53.3663 52.1484 57.8738 56.789 61.4274Z" stroke="white"/>
</g>
<defs>
<clipPath id="clip0_117_435">
<rect width="141" height="171.358" fill="white"/>
</clipPath>
</defs>
</svg>
