<svg width="101" height="122" viewBox="0 0 101 122" fill="none" xmlns="http://www.w3.org/2000/svg">
<path d="M40.6613 43.4655L35.0528 30.8465C37.5767 19.1108 45.6388 9.8148 56.0846 7.01057C62.1502 5.47144 68.5532 5.96397 74.312 8.41268C76.0405 7.84136 77.9009 7.80329 79.6513 8.3034C81.4017 8.80351 82.9611 9.81868 84.1268 11.2169C85.0036 12.4111 85.5874 13.7947 85.8309 15.2561C86.0745 16.7174 85.971 18.2156 85.5289 19.6296C80.8739 17.3582 75.9385 17.218 72.9099 19.6296C68.7036 22.9806 69.2224 30.4119 71.5078 35.0529C76.8078 45.8351 91.9927 42.1616 98.148 51.8782C100.7 55.9163 102.102 62.8708 96.7459 75.7142C96.5962 69.0086 94.1176 62.5642 89.7353 57.4867C82.7247 49.6348 71.3816 46.4801 60.2909 49.074C73.0081 48.0785 84.8419 54.9208 89.7353 65.8994C96.0168 79.9205 87.4779 93.1284 86.9311 93.9416C88.0075 88.178 87.0144 82.2193 84.1268 77.1163C78.28 67.021 67.3015 65.3105 65.8994 65.1142C68.297 67.007 77.579 74.7888 78.5184 86.9311C79.6541 101.625 68.1007 116.908 49.775 121.984C34.6395 116.265 21.3213 106.579 11.2169 93.9416C18.0546 97.5717 25.0744 100.848 32.2486 103.756C37.6047 105.93 42.7645 107.781 47.6719 109.365C47.2567 108.405 46.7886 107.469 46.2698 106.561C39.1751 94.2781 24.9436 93.0022 16.8254 88.3332C9.66056 84.211 1.69656 74.2279 0 47.6719C3.60343 62.9129 10.0812 69.615 15.4233 72.9099C23.0648 77.6351 29.9772 76.3591 43.4655 82.7247C48.4053 85.0597 53.1018 87.8776 57.4867 91.1374C56.6616 85.8494 54.2115 80.9492 50.4761 77.1163C41.9933 68.9279 32.2486 73.4568 21.0317 67.3015C10.9786 61.8052 3.50528 49.9012 2.80423 37.8571C1.96296 23.4153 10.8804 9.22591 25.2381 1.40211C13.3201 11.7077 9.02961 26.6402 14.0211 37.8571C16.6666 43.3785 21.1188 47.8306 26.6402 50.4761C26.1214 49.8311 14.582 35.0529 21.0317 18.2275C25.841 5.60846 37.2401 0.813226 39.2592 0C38.1515 0.939416 28.8415 9.11374 29.4444 22.4338C29.7018 26.5376 30.8362 30.5385 32.7712 34.1666C34.7062 37.7947 37.3967 40.9656 40.6613 43.4655Z" fill="#18B35B"/>
</svg>
