<svg width="16" height="16" viewBox="0 0 16 16" fill="none" xmlns="http://www.w3.org/2000/svg">
<g id="PaperPlaneTilt" clip-path="url(#clip0_342_3235)">
<path id="Vector" d="M14.4625 2.77145C14.4625 2.77145 14.4625 2.7777 14.4625 2.78083L10.825 14.7771C10.7699 14.9719 10.6566 15.1453 10.5002 15.2739C10.3438 15.4024 10.1518 15.4801 9.95 15.4965C9.92125 15.499 9.8925 15.5002 9.86375 15.5002C9.67462 15.5008 9.48927 15.4473 9.32958 15.3459C9.16988 15.2446 9.04251 15.0997 8.9625 14.9283L6.73062 10.2165C6.70859 10.1698 6.7015 10.1176 6.71034 10.0668C6.71918 10.016 6.74351 9.96913 6.78 9.9327L10.3587 6.35333C10.4486 6.2588 10.4979 6.13292 10.4962 6.00254C10.4945 5.87216 10.442 5.74759 10.3498 5.65539C10.2576 5.56319 10.133 5.51065 10.0027 5.50898C9.87228 5.50731 9.7464 5.55664 9.65187 5.64645L6.0675 9.2252C6.03106 9.26169 5.98424 9.28602 5.93345 9.29486C5.88265 9.3037 5.83036 9.29661 5.78375 9.27458L1.09625 7.05395C0.912149 6.96961 0.75722 6.83253 0.651079 6.66008C0.544937 6.48763 0.492357 6.28756 0.499996 6.0852C0.510176 5.87722 0.585471 5.67771 0.715234 5.51486C0.844998 5.35201 1.02267 5.23406 1.22312 5.1777L13.2194 1.5402H13.2287C13.3995 1.49222 13.58 1.49053 13.7517 1.53533C13.9234 1.58012 14.08 1.66978 14.2056 1.79511C14.3312 1.92043 14.4212 2.07691 14.4663 2.24848C14.5115 2.42006 14.5101 2.60055 14.4625 2.77145Z" fill="white"/>
</g>
<defs>
<clipPath id="clip0_342_3235">
<rect width="16" height="16" fill="white"/>
</clipPath>
</defs>
</svg>
