<svg width="18" height="19" viewBox="0 0 18 19" fill="none" xmlns="http://www.w3.org/2000/svg">
<g id="ShareNetwork" clip-path="url(#clip0_330_2434)">
<path id="Vector" d="M14.9062 14.5625C14.9063 14.932 14.8255 15.2969 14.6694 15.6318C14.5134 15.9667 14.286 16.2634 14.0031 16.501C13.7202 16.7387 13.3887 16.9115 13.0319 17.0074C12.6751 17.1032 12.3017 17.1199 11.9378 17.056C11.5739 16.9922 11.2283 16.8495 10.9255 16.6379C10.6226 16.4264 10.3697 16.1511 10.1845 15.8313C9.9994 15.5116 9.88648 15.1553 9.85372 14.7873C9.82096 14.4193 9.86916 14.0486 9.99492 13.7012L6.26836 11.307C5.91245 11.6562 5.46136 11.8924 4.97169 11.9861C4.48203 12.0798 3.97558 12.0269 3.5159 11.8339C3.05622 11.6409 2.66377 11.3164 2.38779 10.9012C2.11181 10.486 1.96458 9.99856 1.96458 9.5C1.96458 9.00145 2.11181 8.51399 2.38779 8.09879C2.66377 7.68359 3.05622 7.35914 3.5159 7.16613C3.97558 6.97312 4.48203 6.92016 4.97169 7.01389C5.46136 7.10761 5.91245 7.34385 6.26836 7.69297L9.99492 5.30235C9.78153 4.71597 9.79167 4.07153 10.0234 3.49216C10.2551 2.91279 10.6922 2.43912 11.2511 2.16165C11.81 1.88418 12.4516 1.82238 13.0532 1.98804C13.6548 2.1537 14.1743 2.53522 14.5124 3.0597C14.8504 3.58417 14.9834 4.21482 14.8859 4.83115C14.7884 5.44748 14.4672 6.00626 13.9837 6.40074C13.5002 6.79521 12.8883 6.99771 12.265 6.96955C11.6416 6.94138 11.0505 6.68452 10.6045 6.24805L6.87797 8.64219C7.07937 9.19875 7.07937 9.80829 6.87797 10.3648L10.6045 12.759C10.9603 12.4108 11.4109 12.1752 11.8999 12.0818C12.3889 11.9883 12.8946 12.0412 13.3537 12.2336C13.8128 12.4261 14.205 12.7497 14.4811 13.164C14.7573 13.5782 14.9052 14.0647 14.9062 14.5625Z" fill="white"/>
</g>
<defs>
<clipPath id="clip0_330_2434">
<rect width="18" height="18" fill="white" transform="translate(0 0.5)"/>
</clipPath>
</defs>
</svg>
