<svg width="16" height="16" viewBox="0 0 16 16" fill="none" xmlns="http://www.w3.org/2000/svg">
<g id="play-stream_svgrepo.com">
<g id="Group" opacity="0.5">
<path id="Vector" fill-rule="evenodd" clip-rule="evenodd" d="M3.64457 2.92805C3.83964 3.12351 3.83933 3.44009 3.64387 3.63515C2.52479 4.752 1.83331 6.29479 1.83331 8C1.83331 9.7252 2.54107 11.2841 3.68333 12.4039C3.88053 12.5973 3.88367 12.9138 3.69036 13.111C3.49705 13.3082 3.18049 13.3113 2.98329 13.118C1.65707 11.8179 0.833313 10.0047 0.833313 8C0.833313 6.01855 1.63812 4.22411 2.93747 2.92735C3.13292 2.73228 3.44951 2.73259 3.64457 2.92805ZM12.4109 2.97631C12.6081 2.78299 12.9246 2.78614 13.118 2.98333C14.3847 4.27551 15.1666 6.04695 15.1666 8C15.1666 9.97633 14.366 11.7666 13.0726 13.0625C12.8776 13.258 12.561 13.2583 12.3656 13.0633C12.1701 12.8682 12.1698 12.5516 12.3648 12.3561C13.4788 11.24 14.1666 9.7008 14.1666 8C14.1666 6.31915 13.4948 4.7962 12.4039 3.68338C12.2106 3.48619 12.2137 3.16962 12.4109 2.97631ZM5.53947 4.99171C5.72815 5.19334 5.71766 5.50975 5.51603 5.69843C4.88343 6.29043 4.49998 7.10013 4.49998 7.98813C4.49998 8.88647 4.89244 9.70487 5.53835 10.2986C5.74165 10.4855 5.75497 10.8017 5.56809 11.0051C5.38121 11.2083 5.06491 11.2217 4.86161 11.0348C4.02643 10.2671 3.49998 9.18827 3.49998 7.98813C3.49998 6.802 4.0143 5.73419 4.83275 4.96828C5.03438 4.77959 5.35079 4.79009 5.53947 4.99171ZM10.4952 5.01706C10.6861 4.81751 11.0026 4.81047 11.2022 5.00135C12.0003 5.76476 12.5 6.81907 12.5 7.98813C12.5 9.1712 11.9883 10.2365 11.1736 11.002C10.9724 11.1911 10.6559 11.1813 10.4668 10.98C10.2778 10.7787 10.2876 10.4623 10.4888 10.2733C11.1185 9.68167 11.5 8.87387 11.5 7.98813C11.5 7.1128 11.1274 6.31364 10.5109 5.72399C10.3114 5.53312 10.3044 5.21661 10.4952 5.01706Z" fill="white"/>
</g>
<path id="Vector_2" d="M9.10422 6.9674C9.70142 7.40587 10 7.62507 10 8C10 8.37493 9.70142 8.59413 9.10422 9.0326C8.93942 9.1536 8.77589 9.2676 8.62562 9.36253C8.49382 9.44587 8.34455 9.532 8.18995 9.6166C7.59422 9.94267 7.29629 10.1057 7.02915 9.9252C6.76195 9.74467 6.73769 9.3668 6.68915 8.61107C6.67542 8.39733 6.66669 8.1878 6.66669 8C6.66669 7.8122 6.67542 7.60267 6.68915 7.38893C6.73769 6.63318 6.76195 6.25531 7.02915 6.0748C7.29629 5.89429 7.59422 6.05733 8.18995 6.38339C8.34455 6.46799 8.49382 6.55415 8.62562 6.63746C8.77589 6.7324 8.93942 6.8464 9.10422 6.9674Z" fill="white"/>
</g>
</svg>
