<svg width="16" height="16" viewBox="0 0 16 16" fill="none" xmlns="http://www.w3.org/2000/svg">
<g id="TShirt" clip-path="url(#clip0_137_1090)">
<path id="Vector" d="M12 7.5H13.7712C13.8671 7.50089 13.9614 7.47565 14.044 7.42697C14.1266 7.3783 14.1943 7.30804 14.24 7.22375L15.4444 4.92312C15.5038 4.80831 15.5153 4.6746 15.4763 4.55133C15.4373 4.42806 15.3509 4.32531 15.2362 4.26562L12 2.5" stroke="#18B35B" stroke-linecap="round" stroke-linejoin="round"/>
<path id="Vector_2" d="M4.00001 7.5H2.22876C2.1329 7.50089 2.0386 7.47565 1.95602 7.42697C1.87343 7.3783 1.80566 7.30804 1.76001 7.22375L0.555631 4.92312C0.496167 4.80831 0.484685 4.6746 0.523704 4.55133C0.562724 4.42806 0.649057 4.32531 0.763756 4.26562L4.00001 2.5" stroke="#18B35B" stroke-linecap="round" stroke-linejoin="round"/>
<path id="Vector_3" d="M10 2.5C10 3.03043 9.78929 3.53914 9.41421 3.91421C9.03914 4.28929 8.53043 4.5 8 4.5C7.46957 4.5 6.96086 4.28929 6.58579 3.91421C6.21071 3.53914 6 3.03043 6 2.5H4V13C4 13.1326 4.05268 13.2598 4.14645 13.3536C4.24021 13.4473 4.36739 13.5 4.5 13.5H11.5C11.6326 13.5 11.7598 13.4473 11.8536 13.3536C11.9473 13.2598 12 13.1326 12 13V2.5H10Z" stroke="#18B35B" stroke-linecap="round" stroke-linejoin="round"/>
</g>
<defs>
<clipPath id="clip0_137_1090">
<rect width="16" height="16" fill="white"/>
</clipPath>
</defs>
</svg>
