<svg width="84" height="119" viewBox="0 0 84 119" fill="none" xmlns="http://www.w3.org/2000/svg">
<path d="M41.8818 43.3327C10.859 57.5832 0.323467 71.5912 0.308838 113.061C-1.65732 56.115 5.69675 30.1334 41.8818 0V43.3327Z" fill="#0095FF"/>
<path d="M41.6619 43.5527C72.6848 57.8032 83.2203 71.8111 83.2349 113.281C85.2011 56.335 77.847 30.3533 41.6619 0.219971V43.5527Z" fill="#0078C3"/>
<path d="M41.6619 81.5584C25.0359 89.2104 19.3896 96.7322 19.3818 119C18.3281 88.4221 22.2693 74.4708 41.6619 58.2903V81.5584Z" fill="#0095FF"/>
<path d="M41.6619 81.5584C58.2879 89.2104 63.9342 96.7322 63.942 119C64.9957 88.4221 61.0545 74.4708 41.6619 58.2903V81.5584Z" fill="#0078C3"/>
</svg>
