<svg width="98" height="139" viewBox="0 0 98 139" fill="none" xmlns="http://www.w3.org/2000/svg">
<path d="M48.9003 50.6155C12.6636 67.261 0.357355 83.6233 0.340267 132.063C-1.95634 65.5461 6.63371 35.1978 48.9003 0V50.6155Z" fill="white"/>
<path d="M48.6434 50.8724C84.8802 67.5179 97.1864 83.8801 97.2035 132.32C99.5001 65.8029 90.91 35.4546 48.6434 0.256836V50.8724Z" fill="white" fill-opacity="0.5"/>
<path d="M48.6434 95.2657C29.2232 104.204 22.6279 112.99 22.6188 139C21.388 103.283 25.9916 86.9869 48.6434 68.0869V95.2657Z" fill="white"/>
<path d="M48.6434 95.2657C68.0637 104.204 74.6589 112.99 74.6681 139C75.8989 103.283 71.2953 86.9869 48.6434 68.0869V95.2657Z" fill="white" fill-opacity="0.5"/>
</svg>
