<svg width="308" height="269" viewBox="0 0 308 269" fill="none" xmlns="http://www.w3.org/2000/svg">
<g opacity="0.500023">
<rect opacity="0.0647089" x="111.865" width="40.474" height="137.865" rx="20.237" transform="rotate(45 111.865 0)" fill="#494AFF"/>
<rect opacity="0.0647089" x="192.585" y="0.471249" width="40.474" height="272.357" rx="20.237" transform="rotate(45 192.585 0.471249)" fill="#494AFF"/>
<rect opacity="0.0647089" x="267.209" y="13.1194" width="40.474" height="251.698" rx="20.237" transform="rotate(45 267.209 13.1194)" fill="#494AFF"/>
<rect opacity="0.0647089" x="278.593" y="87.7434" width="40.474" height="215.862" rx="20.237" transform="rotate(45 278.593 87.7434)" fill="#494AFF"/>
</g>
<mask id="mask0_1_966" style="mask-type:luminance" maskUnits="userSpaceOnUse" x="31" y="46" width="246" height="177">
<path fill-rule="evenodd" clip-rule="evenodd" d="M257.745 184.44C240.843 218.847 217.481 219.901 197.067 211.023C176.651 202.146 134.239 207.975 117.372 212.222C100.505 216.47 84.8902 219.722 57.3722 198.851C29.8537 177.98 41.6726 146.197 50.1031 131.694C58.533 117.191 47.6023 94.6698 57.8277 70.5991C68.0514 46.5289 100.146 53.2449 122.231 60.7946C144.314 68.3455 167.798 63.3359 184.566 56.0273C208.189 45.7313 233.37 61.3597 233.37 61.3597C274.128 88.9829 273.874 151.605 257.745 184.44ZM239.507 55.5497C239.507 55.5497 212.33 38.6812 186.832 49.7943C168.733 57.6825 143.386 63.0898 119.551 54.9399C95.714 46.7912 61.0715 39.542 50.0361 65.522C38.9996 91.5031 50.7986 115.811 41.699 131.465C32.5999 147.119 19.843 181.425 49.545 203.951C79.247 226.478 96.101 222.968 114.306 218.384C132.511 213.799 178.29 207.509 200.325 217.09C222.359 226.671 247.574 225.533 265.818 188.397C283.226 152.956 283.503 85.3645 239.507 55.5497Z" fill="white"/>
</mask>
<g mask="url(#mask0_1_966)">
<path opacity="0.146833" fill-rule="evenodd" clip-rule="evenodd" d="M257.745 184.44C240.843 218.847 217.481 219.901 197.067 211.023C176.651 202.146 134.239 207.975 117.372 212.222C100.505 216.47 84.8902 219.722 57.3722 198.851C29.8537 177.98 41.6726 146.197 50.1031 131.694C58.533 117.191 47.6023 94.6698 57.8277 70.5991C68.0514 46.5289 100.146 53.2449 122.231 60.7946C144.314 68.3455 167.798 63.3359 184.566 56.0273C208.189 45.7313 233.37 61.3597 233.37 61.3597C274.128 88.9829 273.874 151.605 257.745 184.44ZM239.507 55.5497C239.507 55.5497 212.33 38.6812 186.832 49.7943C168.733 57.6825 143.386 63.0898 119.551 54.9399C95.714 46.7912 61.0715 39.542 50.0361 65.522C38.9996 91.5031 50.7986 115.811 41.699 131.465C32.5999 147.119 19.843 181.425 49.545 203.951C79.247 226.478 96.101 222.968 114.306 218.384C132.511 213.799 178.29 207.509 200.325 217.09C222.359 226.671 247.574 225.533 265.818 188.397C283.226 152.956 283.503 85.3645 239.507 55.5497Z" fill="url(#paint0_linear_1_966)"/>
</g>
<mask id="mask1_1_966" style="mask-type:luminance" maskUnits="userSpaceOnUse" x="27" y="41" width="254" height="186">
<path fill-rule="evenodd" clip-rule="evenodd" d="M265.276 188.397C282.6 152.956 282.875 85.3645 239.093 55.5497C239.093 55.5497 212.047 38.6812 186.672 49.7943C168.661 57.6825 143.437 63.0898 119.717 54.9399C95.9952 46.7912 61.5211 39.542 50.5386 65.522C39.5555 91.5031 51.2968 115.811 42.2419 131.465C33.1866 147.119 20.4912 181.425 50.0502 203.951C79.6081 226.478 96.3806 222.968 114.498 218.384C132.614 213.799 178.172 207.509 200.1 217.09C222.027 226.671 247.12 225.533 265.276 188.397ZM241.745 51.8412C287.007 83.0435 286.722 153.78 268.813 190.87C250.044 229.735 224.102 230.925 201.433 220.899C178.765 210.872 131.667 217.456 112.938 222.253C94.209 227.051 76.8694 230.724 46.312 207.149C15.7547 183.573 28.8785 147.672 38.2399 131.289C47.6018 114.906 35.4628 89.4675 46.8177 62.2776C58.1704 35.0877 93.8102 42.6747 118.333 51.2034C142.856 59.7321 168.933 54.0727 187.552 45.8182C213.784 34.1875 241.745 51.8412 241.745 51.8412Z" fill="white"/>
</mask>
<g mask="url(#mask1_1_966)">
<path fill-rule="evenodd" clip-rule="evenodd" d="M18.7772 278.491H709.755V8.66408H18.7772V278.491Z" fill="url(#paint1_linear_1_966)"/>
</g>
<mask id="mask2_1_966" style="mask-type:luminance" maskUnits="userSpaceOnUse" x="38" y="51" width="232" height="166">
<path fill-rule="evenodd" clip-rule="evenodd" d="M234.375 60.5912C234.375 60.5912 208.876 44.7977 184.953 55.2027C167.972 62.5879 144.191 67.6509 121.827 60.0208C99.4631 52.3906 66.9614 45.6039 56.6076 69.9283C46.2527 94.2537 57.3221 117.012 48.7858 131.668C40.248 146.325 28.279 178.443 56.1467 199.534C84.0134 220.626 99.8268 217.339 116.907 213.047C133.988 208.755 176.939 202.864 197.612 211.836C218.285 220.806 241.943 219.742 259.059 184.971C275.393 151.789 275.651 88.5059 234.375 60.5912Z" fill="white"/>
</mask>
<g mask="url(#mask2_1_966)">
<path fill-rule="evenodd" clip-rule="evenodd" d="M234.375 60.5912C234.375 60.5912 208.876 44.7977 184.953 55.2027C167.972 62.5879 144.191 67.6509 121.827 60.0208C99.4631 52.3906 66.9614 45.6039 56.6076 69.9283C46.2527 94.2537 57.3221 117.012 48.7858 131.668C40.248 146.325 28.279 178.443 56.1467 199.534C84.0134 220.626 99.8268 217.339 116.907 213.047C133.988 208.755 176.939 202.864 197.612 211.836C218.285 220.806 241.943 219.742 259.059 184.971C275.393 151.789 275.651 88.5059 234.375 60.5912Z" fill="url(#paint2_linear_1_966)"/>
</g>
<g filter="url(#filter0_d_1_966)">
<path fill-rule="evenodd" clip-rule="evenodd" d="M239.365 111.714C238.585 111.714 235.686 112.093 235.686 109.61C235.686 108.246 236.772 107.141 238.111 107.141C238.22 107.141 238.325 107.16 238.431 107.174C238.405 107.03 238.388 106.885 238.388 106.735C238.388 105.371 239.474 104.266 240.814 104.266C241.246 104.266 241.644 104.39 241.995 104.591C242.483 102.804 244.077 101.485 245.987 101.485C248.072 101.485 249.783 103.051 250.086 105.088L250.178 105.079C252.01 105.079 253.494 106.59 253.494 108.454C253.494 111.648 249.659 111.789 249.411 111.729L239.365 111.714Z" fill="#FFFFFE"/>
</g>
<g filter="url(#filter1_d_1_966)">
<path fill-rule="evenodd" clip-rule="evenodd" d="M131.974 80.9537C131.194 80.9537 128.295 81.3323 128.295 78.8497C128.295 77.4864 129.381 76.3807 130.72 76.3807C130.829 76.3807 130.934 76.3998 131.04 76.414C131.014 76.27 130.997 76.1254 130.997 75.9743C130.997 74.611 132.083 73.5058 133.422 73.5058C133.854 73.5058 134.253 73.6297 134.604 73.831C135.091 72.0433 136.685 70.7243 138.596 70.7243C140.681 70.7243 142.393 72.2904 142.694 74.3279L142.787 74.3181C144.619 74.3181 146.103 75.8297 146.103 77.6937C146.103 80.8872 142.268 81.0285 142.02 80.9685L131.974 80.9537Z" fill="#FFFFFE"/>
</g>
<g filter="url(#filter2_d_1_966)">
<path fill-rule="evenodd" clip-rule="evenodd" d="M49.9466 110.635C49.1673 110.635 46.2672 111.014 46.2672 108.531C46.2672 107.168 47.3536 106.062 48.693 106.062C48.8023 106.062 48.9068 106.08 49.0124 106.095C48.9872 105.951 48.969 105.807 48.969 105.655C48.969 104.292 50.056 103.187 51.3953 103.187C51.8268 103.187 52.2256 103.311 52.5772 103.511C53.0643 101.724 54.6583 100.405 56.5685 100.405C58.6539 100.405 60.3648 101.971 60.667 104.009L60.7592 103.999C62.5906 103.999 64.0758 105.511 64.0758 107.375C64.0758 110.569 60.2404 110.71 59.9928 110.649L49.9466 110.635Z" fill="#FFFFFE"/>
</g>
<path d="M104.165 153.65C105.894 149.382 110.007 147.794 111.43 145.098C113.29 141.568 113.279 136.271 111.702 134.362C110.322 132.7 105.761 143.93 105.248 145.184C103.84 148.57 102.959 152.151 102.636 155.803C102.674 153.167 102.709 150.745 102.739 148.877C102.837 142.784 102.956 140.824 103.011 140.221C103.201 139.925 103.426 139.583 103.554 139.407C104.659 137.851 107.108 135.996 108.332 133.735C110.119 130.43 109.831 126.477 108.577 125.006C107.265 123.466 104.949 127.104 103.719 130.707C102.489 134.31 103.013 137.767 102.668 140.753C102.598 141.34 102.522 143.569 102.454 146.664C102.079 143.335 101.335 141.106 99.9588 139.027C98.2645 136.472 96.8011 133.36 95.4055 133.762C94.0099 134.164 94.7593 138.283 95.8644 141.171C96.8527 143.745 101.699 146.314 102.413 148.383C102.329 152.575 102.253 157.886 102.201 162.836C101.819 160.281 102.082 160.066 100.513 156.154C99.5814 153.829 95.7666 150.962 95.305 152.559C94.8435 154.155 95.5413 157.174 96.983 159.292C98.1478 160.997 100.73 160.995 101.327 162.054C101.466 162.301 101.927 163.248 102.191 163.791C102.128 169.83 102.101 175.162 102.131 176.979L102.381 176.998C102.381 176.528 102.4 173.468 102.449 169.395C103.076 167.223 107.298 165.971 108.601 163.721C109.959 161.367 110.947 158.619 110.36 156.781C109.872 155.247 106.016 157.324 104.466 159.873C103.426 161.568 102.791 163.373 102.495 165.8C102.53 163.031 102.571 160.055 102.609 157.248C102.926 156.542 103.64 154.929 104.165 153.65Z" fill="#E6E6E6"/>
<path d="M106.643 179.715H97.7704C97.5359 179.715 97.3087 179.634 97.1272 179.486C96.9456 179.337 96.8209 179.131 96.774 178.901L96.144 175.806H108.273L107.643 178.909C107.593 179.137 107.467 179.342 107.285 179.488C107.103 179.635 106.877 179.715 106.643 179.715Z" fill="#F0F0F0"/>
<path d="M108.528 176.998H95.8888C95.7424 176.997 95.6012 176.943 95.4921 176.846C95.383 176.748 95.3135 176.614 95.2969 176.468L95.0254 174.174C95.0162 174.091 95.0247 174.006 95.0503 173.927C95.0758 173.847 95.1179 173.773 95.1737 173.711C95.2295 173.648 95.2978 173.598 95.3743 173.564C95.4507 173.53 95.5335 173.512 95.6173 173.511H108.769C108.853 173.511 108.936 173.529 109.013 173.563C109.09 173.597 109.158 173.647 109.214 173.71C109.27 173.772 109.312 173.846 109.337 173.926C109.363 174.006 109.371 174.091 109.361 174.174L109.09 176.468C109.074 176.609 109.009 176.739 108.906 176.836C108.803 176.933 108.669 176.99 108.528 176.998Z" fill="#F0F0F0"/>
<path d="M172.708 156.8H146.398C146.212 156.8 146.033 156.726 145.9 156.594C145.768 156.462 145.693 156.283 145.693 156.097V155.581C145.693 155.394 145.768 155.215 145.9 155.083C146.033 154.951 146.212 154.877 146.398 154.877H172.708C172.895 154.877 173.074 154.951 173.206 155.083C173.339 155.215 173.413 155.394 173.414 155.581V156.097C173.413 156.283 173.339 156.462 173.206 156.594C173.074 156.726 172.895 156.8 172.708 156.8ZM146.398 155.442C146.356 155.443 146.315 155.46 146.285 155.49C146.255 155.52 146.237 155.56 146.236 155.602V156.118C146.237 156.161 146.255 156.201 146.285 156.231C146.315 156.261 146.356 156.278 146.398 156.278H172.708C172.751 156.278 172.792 156.262 172.822 156.232C172.853 156.202 172.87 156.161 172.871 156.118V155.602C172.87 155.56 172.853 155.519 172.822 155.489C172.792 155.459 172.751 155.442 172.708 155.442H146.398Z" fill="white"/>
<path d="M172.708 169.884H146.398C146.212 169.884 146.033 169.81 145.9 169.678C145.768 169.546 145.693 169.368 145.693 169.181V168.665C145.693 168.478 145.768 168.299 145.9 168.167C146.033 168.036 146.212 167.962 146.398 167.962H172.708C172.895 167.962 173.074 168.036 173.206 168.167C173.339 168.299 173.413 168.478 173.414 168.665V169.181C173.413 169.368 173.339 169.546 173.206 169.678C173.074 169.81 172.895 169.884 172.708 169.884ZM146.398 168.505C146.356 168.505 146.315 168.522 146.285 168.552C146.255 168.582 146.237 168.622 146.236 168.665V169.181C146.237 169.223 146.255 169.264 146.285 169.293C146.315 169.323 146.356 169.34 146.398 169.341H172.708C172.751 169.341 172.792 169.324 172.822 169.294C172.853 169.264 172.87 169.224 172.871 169.181V168.665C172.87 168.622 172.853 168.581 172.822 168.551C172.792 168.522 172.751 168.505 172.708 168.505H146.398Z" fill="white"/>
<path d="M144.096 191.977C173.17 191.977 196.74 190.601 196.74 188.904C196.74 187.206 173.17 185.83 144.096 185.83C115.022 185.83 91.4523 187.206 91.4523 188.904C91.4523 190.601 115.022 191.977 144.096 191.977Z" fill="#F5F5F5"/>
<path d="M179.336 121.436L179.232 123.034L179.503 123.052L179.607 121.453L179.336 121.436Z" fill="#205FFF"/>
<path d="M179.748 114.943L179.409 120.197L179.68 120.214L180.019 114.961L179.748 114.943Z" fill="#205FFF"/>
<path d="M176.526 107.314H144.609C143.79 107.328 143.005 107.647 142.408 108.209C141.811 108.771 141.445 109.535 141.381 110.352L137.257 174.022C137.226 174.412 137.278 174.804 137.407 175.174C137.537 175.543 137.742 175.882 138.009 176.168C138.276 176.453 138.6 176.681 138.96 176.835C139.32 176.989 139.708 177.067 140.099 177.063H172.01C172.831 177.049 173.618 176.73 174.216 176.168C174.815 175.606 175.182 174.84 175.247 174.022L179.368 110.352C179.398 109.962 179.347 109.57 179.217 109.2C179.088 108.831 178.883 108.493 178.616 108.207C178.348 107.921 178.024 107.694 177.665 107.541C177.305 107.387 176.917 107.31 176.526 107.314Z" fill="#205FFF"/>
<path opacity="0.7" d="M175.513 107.314H144.609C143.79 107.328 143.005 107.647 142.408 108.209C141.811 108.771 141.445 109.535 141.381 110.352L137.257 174.022C137.226 174.412 137.278 174.804 137.407 175.174C137.537 175.543 137.742 175.882 138.009 176.168C138.276 176.453 138.6 176.681 138.96 176.835C139.32 176.989 139.708 177.067 140.099 177.063H170.998C171.819 177.049 172.605 176.73 173.203 176.168C173.802 175.606 174.169 174.84 174.234 174.022L178.356 110.352C178.386 109.962 178.334 109.57 178.205 109.2C178.075 108.831 177.87 108.493 177.603 108.207C177.335 107.921 177.012 107.694 176.652 107.541C176.292 107.387 175.904 107.31 175.513 107.314Z" fill="white"/>
<path d="M172.906 172.357H138.913C138.786 172.358 138.66 172.332 138.543 172.282C138.426 172.231 138.321 172.157 138.234 172.065C138.147 171.972 138.08 171.863 138.037 171.743C137.994 171.623 137.976 171.496 137.984 171.369L141.715 113.754C141.73 113.519 141.834 113.298 142.006 113.137C142.178 112.975 142.405 112.885 142.641 112.885H176.637C176.764 112.885 176.89 112.912 177.007 112.962C177.124 113.013 177.229 113.087 177.316 113.18C177.403 113.273 177.47 113.382 177.513 113.502C177.556 113.622 177.574 113.749 177.565 113.876L173.835 171.489C173.82 171.724 173.715 171.946 173.543 172.107C173.37 172.268 173.143 172.358 172.906 172.357Z" fill="white"/>
<path d="M165.353 111.001H152.996C152.933 111.001 152.87 110.989 152.811 110.964C152.753 110.939 152.7 110.902 152.657 110.855C152.613 110.809 152.58 110.754 152.559 110.694C152.538 110.634 152.53 110.57 152.535 110.507C152.547 110.375 152.607 110.252 152.704 110.162C152.8 110.072 152.926 110.019 153.059 110.015H165.415C165.479 110.014 165.542 110.027 165.6 110.051C165.658 110.076 165.711 110.113 165.754 110.159C165.798 110.205 165.831 110.26 165.852 110.32C165.873 110.38 165.882 110.443 165.877 110.507C165.865 110.639 165.805 110.762 165.708 110.853C165.612 110.944 165.485 110.997 165.353 111.001Z" fill="white"/>
<path d="M155.709 174.777C155.689 175.102 155.546 175.408 155.31 175.633C155.074 175.857 154.761 175.984 154.435 175.988C154.279 175.989 154.123 175.958 153.979 175.897C153.835 175.836 153.705 175.746 153.597 175.632C153.49 175.518 153.407 175.384 153.353 175.237C153.3 175.09 153.277 174.933 153.287 174.777C153.307 174.452 153.45 174.147 153.686 173.922C153.922 173.698 154.235 173.572 154.56 173.568C154.717 173.567 154.872 173.597 155.016 173.658C155.16 173.719 155.29 173.809 155.398 173.922C155.506 174.036 155.589 174.17 155.642 174.317C155.696 174.464 155.718 174.621 155.709 174.777Z" fill="white"/>
<path opacity="0.2" d="M169.203 128.834H140.175L138.329 157.316H169.203C170.008 157.314 170.781 156.994 171.35 156.424C171.92 155.855 172.242 155.083 172.244 154.277V131.883C172.244 131.076 171.925 130.301 171.354 129.729C170.784 129.157 170.01 128.835 169.203 128.834Z" fill="#205FFF"/>
<path d="M166.499 126.312H130.925C129.245 126.312 127.884 127.673 127.884 129.352V151.755C127.884 153.435 129.245 154.796 130.925 154.796H166.499C168.178 154.796 169.539 153.435 169.539 151.755V129.352C169.539 127.673 168.178 126.312 166.499 126.312Z" fill="#205FFF"/>
<path d="M126.912 125.983C126.841 125.983 126.772 125.954 126.722 125.904L126.233 125.418C126.182 125.367 126.153 125.298 126.153 125.225C126.153 125.153 126.182 125.084 126.233 125.033C126.284 124.982 126.354 124.953 126.426 124.953C126.498 124.953 126.568 124.982 126.619 125.033L127.105 125.521C127.155 125.572 127.184 125.641 127.184 125.713C127.184 125.785 127.155 125.853 127.105 125.904C127.079 125.929 127.049 125.949 127.016 125.963C126.983 125.976 126.948 125.983 126.912 125.983Z" fill="#205FFF"/>
<path d="M126.176 127.688H125.489C125.417 127.688 125.348 127.66 125.297 127.609C125.246 127.558 125.218 127.489 125.218 127.417C125.218 127.345 125.246 127.276 125.297 127.225C125.348 127.174 125.417 127.145 125.489 127.145H126.176C126.248 127.145 126.317 127.174 126.368 127.225C126.419 127.276 126.448 127.345 126.448 127.417C126.448 127.489 126.419 127.558 126.368 127.609C126.317 127.66 126.248 127.688 126.176 127.688Z" fill="#205FFF"/>
<path d="M128.641 125.25C128.573 125.25 128.506 125.224 128.456 125.177C128.405 125.13 128.375 125.066 128.37 124.997L128.321 124.31C128.318 124.275 128.323 124.239 128.334 124.205C128.346 124.171 128.363 124.14 128.387 124.113C128.41 124.086 128.439 124.064 128.471 124.048C128.503 124.032 128.538 124.022 128.574 124.02C128.645 124.015 128.716 124.04 128.77 124.087C128.823 124.134 128.856 124.201 128.861 124.272L128.913 124.959C128.916 124.995 128.911 125.031 128.9 125.065C128.888 125.099 128.871 125.13 128.847 125.157C128.824 125.184 128.795 125.206 128.763 125.222C128.731 125.238 128.696 125.248 128.66 125.25H128.641Z" fill="#205FFF"/>
<path d="M151.75 151.866L162.673 162.787V151.866H151.75Z" fill="#205FFF"/>
<path d="M154.745 147.082L154.202 144.777C154.065 144.171 154.065 143.542 154.202 142.936L154.957 139.654C155.265 138.254 155.098 136.791 154.481 135.497C153.865 134.203 152.834 133.152 151.552 132.51C151.576 132.45 151.597 132.388 151.614 132.326C151.659 132.126 151.664 131.92 151.629 131.719C151.594 131.518 151.519 131.326 151.41 131.154C151.301 130.982 151.159 130.832 150.992 130.715C150.825 130.598 150.636 130.514 150.437 130.47C150.238 130.425 150.032 130.42 149.831 130.455C149.63 130.49 149.438 130.565 149.266 130.674C149.093 130.783 148.944 130.925 148.827 131.092C148.709 131.259 148.626 131.448 148.581 131.647C148.568 131.71 148.56 131.775 148.557 131.84C147.124 131.873 145.743 132.384 144.633 133.291C143.523 134.198 142.748 135.449 142.429 136.846L141.693 140.132C141.558 140.736 141.289 141.303 140.906 141.791L139.442 143.65C139.299 143.833 139.205 144.049 139.167 144.277C139.13 144.506 139.151 144.741 139.229 144.959C139.307 145.178 139.438 145.373 139.612 145.527C139.786 145.681 139.995 145.788 140.222 145.839L153.118 148.728C153.344 148.776 153.578 148.767 153.799 148.702C154.02 148.636 154.221 148.515 154.383 148.351C154.545 148.187 154.663 147.985 154.727 147.763C154.79 147.541 154.796 147.307 154.745 147.082Z" fill="white"/>
<path d="M145.006 147.794C144.907 147.772 144.806 147.775 144.709 147.802C144.612 147.829 144.524 147.88 144.451 147.949C144.379 148.019 144.324 148.105 144.293 148.201C144.262 148.296 144.255 148.398 144.272 148.497C144.346 148.933 144.549 149.338 144.853 149.658C145.158 149.979 145.551 150.202 145.983 150.299C146.415 150.396 146.866 150.362 147.278 150.201C147.691 150.041 148.046 149.761 148.299 149.398C148.357 149.316 148.394 149.222 148.406 149.122C148.419 149.023 148.407 148.922 148.371 148.828C148.335 148.735 148.277 148.651 148.202 148.585C148.126 148.52 148.035 148.473 147.938 148.451L145.006 147.794Z" fill="white"/>
<path d="M135.101 143.224C135.033 143.225 134.967 143.208 134.908 143.176C134.849 143.145 134.798 143.098 134.761 143.042C133.479 141.121 133.012 138.769 133.464 136.504C133.916 134.238 135.249 132.245 137.17 130.963C137.26 130.903 137.37 130.881 137.476 130.903C137.582 130.924 137.675 130.987 137.734 131.077C137.794 131.167 137.816 131.277 137.794 131.383C137.773 131.488 137.71 131.582 137.62 131.641C135.881 132.806 134.676 134.614 134.268 136.667C133.861 138.72 134.285 140.851 135.448 142.591C135.508 142.681 135.53 142.791 135.509 142.897C135.489 143.003 135.427 143.096 135.337 143.156C135.267 143.202 135.185 143.226 135.101 143.224Z" fill="white"/>
<path d="M136.825 142.067C136.758 142.067 136.692 142.05 136.634 142.019C136.575 141.987 136.525 141.941 136.488 141.886C135.512 140.422 135.157 138.631 135.5 136.906C135.844 135.18 136.858 133.662 138.321 132.684C138.365 132.654 138.415 132.633 138.468 132.623C138.521 132.613 138.575 132.613 138.627 132.623C138.68 132.634 138.73 132.654 138.774 132.684C138.819 132.714 138.857 132.752 138.887 132.797C138.917 132.841 138.937 132.891 138.948 132.944C138.958 132.996 138.958 133.05 138.948 133.103C138.937 133.156 138.917 133.206 138.887 133.25C138.857 133.295 138.819 133.333 138.774 133.363C137.491 134.219 136.6 135.551 136.298 137.064C135.996 138.577 136.308 140.149 137.164 141.432C137.224 141.522 137.246 141.632 137.225 141.738C137.205 141.843 137.142 141.937 137.053 141.997C136.985 142.042 136.906 142.067 136.825 142.067Z" fill="white"/>
<path d="M138.552 140.914C138.485 140.914 138.419 140.898 138.361 140.866C138.302 140.835 138.252 140.79 138.215 140.734C137.882 140.236 137.651 139.677 137.535 139.09C137.418 138.502 137.419 137.898 137.536 137.31C137.654 136.723 137.886 136.164 138.22 135.667C138.553 135.169 138.982 134.743 139.48 134.411C139.57 134.355 139.678 134.336 139.781 134.359C139.884 134.381 139.975 134.442 140.033 134.53C140.092 134.618 140.115 134.725 140.096 134.829C140.077 134.932 140.019 135.025 139.934 135.087C139.525 135.36 139.173 135.711 138.9 136.12C138.627 136.529 138.436 136.987 138.34 137.47C138.244 137.952 138.244 138.448 138.34 138.931C138.436 139.413 138.626 139.872 138.899 140.281C138.959 140.371 138.98 140.48 138.959 140.586C138.938 140.692 138.877 140.785 138.788 140.846C138.718 140.892 138.635 140.915 138.552 140.914Z" fill="white"/>
<path d="M158.581 148.95C158.49 148.95 158.402 148.919 158.33 148.863C158.259 148.807 158.208 148.728 158.187 148.64C158.165 148.551 158.174 148.458 158.211 148.375C158.249 148.292 158.313 148.224 158.394 148.182C160.254 147.221 161.657 145.56 162.293 143.566C162.929 141.571 162.748 139.405 161.788 137.544C161.759 137.496 161.74 137.443 161.732 137.388C161.724 137.332 161.728 137.276 161.743 137.222C161.758 137.168 161.784 137.118 161.82 137.074C161.855 137.031 161.899 136.995 161.949 136.97C161.999 136.944 162.053 136.929 162.109 136.925C162.165 136.922 162.221 136.93 162.274 136.949C162.326 136.968 162.374 136.997 162.415 137.036C162.456 137.074 162.488 137.121 162.51 137.172C163.034 138.189 163.353 139.299 163.448 140.439C163.544 141.579 163.413 142.727 163.065 143.817C162.716 144.907 162.157 145.917 161.418 146.79C160.679 147.664 159.775 148.383 158.758 148.907C158.703 148.934 158.642 148.949 158.581 148.95Z" fill="white"/>
<path d="M157.628 147.107C157.537 147.107 157.449 147.076 157.377 147.019C157.306 146.963 157.255 146.884 157.234 146.796C157.212 146.707 157.221 146.614 157.258 146.531C157.296 146.448 157.36 146.38 157.441 146.338C158.12 145.988 158.724 145.507 159.217 144.924C159.711 144.34 160.084 143.664 160.317 142.936C160.549 142.208 160.635 141.441 160.571 140.679C160.507 139.918 160.293 139.176 159.942 138.497C159.892 138.401 159.882 138.289 159.915 138.186C159.948 138.083 160.021 137.997 160.117 137.947C160.213 137.898 160.325 137.888 160.428 137.921C160.531 137.954 160.617 138.026 160.666 138.122C161.067 138.896 161.31 139.742 161.384 140.61C161.457 141.478 161.358 142.352 161.094 143.182C160.829 144.012 160.403 144.782 159.841 145.448C159.278 146.113 158.59 146.661 157.816 147.061C157.758 147.091 157.694 147.107 157.628 147.107Z" fill="white"/>
<path d="M156.675 145.263C156.584 145.262 156.497 145.23 156.426 145.173C156.355 145.117 156.305 145.038 156.283 144.95C156.262 144.862 156.27 144.769 156.307 144.686C156.344 144.603 156.408 144.535 156.488 144.492C156.925 144.267 157.313 143.958 157.631 143.583C157.949 143.208 158.189 142.773 158.339 142.305C158.488 141.837 158.544 141.343 158.503 140.854C158.461 140.364 158.324 139.887 158.098 139.45C158.048 139.354 158.039 139.242 158.072 139.139C158.104 139.036 158.177 138.95 158.273 138.9C158.369 138.851 158.481 138.841 158.584 138.874C158.687 138.907 158.773 138.979 158.823 139.075C159.375 140.151 159.479 141.401 159.11 142.553C158.742 143.704 157.931 144.662 156.857 145.217C156.801 145.246 156.739 145.262 156.675 145.263Z" fill="white"/>
<path d="M132.79 110.059H130.716C130.662 110.06 130.61 110.081 130.57 110.116C130.53 110.152 130.504 110.201 130.496 110.254L130.061 114.392C130.058 114.417 130.061 114.442 130.068 114.466C130.076 114.49 130.088 114.512 130.105 114.531C130.121 114.55 130.142 114.565 130.165 114.575C130.188 114.585 130.213 114.591 130.238 114.59H132.312C132.366 114.589 132.418 114.568 132.459 114.532C132.499 114.495 132.525 114.446 132.532 114.392L132.967 110.254C132.97 110.229 132.967 110.204 132.96 110.18C132.952 110.157 132.94 110.135 132.923 110.116C132.906 110.097 132.886 110.083 132.863 110.073C132.84 110.063 132.815 110.058 132.79 110.059Z" fill="#205FFF"/>
<path opacity="0.4" d="M132.603 110.059H130.716C130.662 110.06 130.61 110.081 130.57 110.116C130.53 110.152 130.504 110.201 130.496 110.254L130.061 114.392C130.058 114.417 130.061 114.442 130.068 114.466C130.076 114.49 130.088 114.512 130.105 114.531C130.121 114.55 130.142 114.565 130.165 114.575C130.188 114.585 130.213 114.591 130.238 114.59H132.138C132.192 114.589 132.244 114.568 132.284 114.532C132.324 114.495 132.349 114.446 132.356 114.392L132.79 110.254C132.794 110.228 132.792 110.202 132.784 110.177C132.776 110.152 132.763 110.129 132.744 110.11C132.726 110.092 132.704 110.077 132.68 110.068C132.655 110.059 132.629 110.056 132.603 110.059Z" fill="white"/>
<path d="M122.394 186.571C122.665 186.571 122.937 186.53 123.032 186.406C123.055 186.372 123.067 186.332 123.067 186.292C123.067 186.251 123.055 186.211 123.032 186.178C122.992 186.117 122.931 186.073 122.861 186.055C122.492 185.955 121.742 186.395 121.71 186.414C121.701 186.419 121.695 186.427 121.691 186.436C121.687 186.445 121.686 186.456 121.688 186.465C121.69 186.476 121.695 186.486 121.703 186.494C121.711 186.502 121.721 186.507 121.731 186.509C121.95 186.548 122.172 186.569 122.394 186.571ZM122.725 186.145C122.759 186.141 122.792 186.141 122.826 186.145C122.869 186.155 122.907 186.182 122.932 186.218C122.97 186.283 122.959 186.316 122.932 186.332C122.836 186.476 122.28 186.479 121.87 186.422C122.133 186.272 122.424 186.178 122.725 186.145Z" fill="#205FFF"/>
<path d="M121.726 186.509H121.748C122.019 186.389 122.513 185.914 122.462 185.664C122.462 185.607 122.405 185.534 122.261 185.52C122.21 185.515 122.158 185.52 122.109 185.535C122.06 185.549 122.015 185.574 121.976 185.607C121.704 185.838 121.674 186.422 121.672 186.454C121.671 186.464 121.673 186.473 121.678 186.482C121.682 186.491 121.688 186.498 121.696 186.503C121.705 186.508 121.716 186.51 121.726 186.509ZM122.226 185.618H122.255C122.35 185.618 122.359 185.664 122.359 185.675C122.391 185.825 122.049 186.199 121.786 186.362C121.802 186.113 121.897 185.875 122.057 185.683C122.104 185.643 122.164 185.62 122.226 185.618Z" fill="#205FFF"/>
<path d="M121.503 181.366H119.304V186.457H121.503V181.366Z" fill="#FF8B7B"/>
<path d="M103.355 184.03L105.552 184.269L106.983 179.327L104.786 179.088L103.355 184.03Z" fill="#FF8B7B"/>
<path d="M106.573 184.766C106.844 184.836 107.116 184.866 107.238 184.766C107.268 184.738 107.288 184.701 107.296 184.661C107.304 184.621 107.299 184.58 107.281 184.543C107.27 184.509 107.253 184.478 107.229 184.451C107.206 184.424 107.178 184.402 107.146 184.386C106.806 184.198 105.965 184.434 105.929 184.443C105.919 184.445 105.91 184.451 105.903 184.46C105.896 184.468 105.892 184.478 105.891 184.489C105.891 184.5 105.894 184.51 105.9 184.519C105.906 184.528 105.914 184.536 105.924 184.54C106.133 184.634 106.35 184.709 106.573 184.766ZM107.002 184.44C107.035 184.448 107.067 184.46 107.097 184.475C107.137 184.494 107.168 184.528 107.184 184.57C107.205 184.643 107.184 184.671 107.184 184.687C107.053 184.798 106.508 184.665 106.119 184.508C106.406 184.429 106.706 184.407 107.002 184.443V184.44Z" fill="#205FFF"/>
<path d="M105.935 184.546H105.957C106.228 184.494 106.853 184.163 106.863 183.913C106.863 183.853 106.842 183.772 106.703 183.723C106.654 183.705 106.603 183.698 106.551 183.701C106.499 183.703 106.448 183.717 106.402 183.739C106.081 183.894 105.902 184.453 105.894 184.475C105.89 184.483 105.887 184.492 105.887 184.501C105.887 184.51 105.89 184.519 105.894 184.527C105.899 184.533 105.905 184.538 105.912 184.542C105.919 184.545 105.927 184.546 105.935 184.546ZM106.641 183.815H106.673C106.763 183.848 106.76 183.886 106.76 183.897C106.76 184.049 106.326 184.323 106.027 184.413C106.102 184.178 106.251 183.973 106.451 183.829C106.51 183.802 106.578 183.797 106.641 183.815Z" fill="#205FFF"/>
<path d="M105.669 184.065L103.266 183.375C103.225 183.363 103.18 183.366 103.141 183.382C103.101 183.399 103.068 183.429 103.049 183.468L102.163 185.225C102.143 185.269 102.132 185.317 102.132 185.366C102.133 185.416 102.143 185.464 102.164 185.508C102.185 185.553 102.216 185.592 102.254 185.623C102.292 185.654 102.336 185.677 102.383 185.689C103.225 185.914 103.646 185.985 104.702 186.286C105.351 186.473 106.673 186.924 107.572 187.182C108.471 187.44 108.802 186.596 108.454 186.411C106.896 185.583 106.396 184.915 105.984 184.296C105.91 184.184 105.798 184.102 105.669 184.065Z" fill="#263238"/>
<path d="M121.479 186.202H119.079C119.036 186.201 118.994 186.217 118.961 186.245C118.928 186.272 118.906 186.311 118.9 186.354L118.549 188.295C118.541 188.344 118.544 188.393 118.557 188.441C118.571 188.488 118.594 188.532 118.625 188.569C118.657 188.607 118.697 188.637 118.741 188.657C118.786 188.678 118.834 188.689 118.883 188.689C119.749 188.673 120.998 188.621 122.087 188.621C123.361 188.621 124.056 188.692 125.549 188.692C126.45 188.692 126.662 187.779 126.279 187.695C124.544 187.321 123.542 187.28 122.017 186.362C121.854 186.263 121.669 186.207 121.479 186.202Z" fill="#263238"/>
<path opacity="0.2" d="M121.503 181.366H119.304V183.992H121.503V181.366Z" fill="black"/>
<path opacity="0.2" d="M104.786 179.091L106.983 179.327L106.187 182.07L104.048 181.638L104.786 179.091Z" fill="black"/>
<path d="M117.887 130.734C117.887 130.734 116.673 147.335 115.587 153.629C114.39 160.522 107.423 181.63 107.423 181.63L103.431 180.899C103.431 180.899 108.463 161.079 109.019 154.253C109.625 146.846 110.352 131.579 110.352 131.579L117.887 130.734Z" fill="#205FFF"/>
<path opacity="0.3" d="M115.842 137.631C116.059 136.719 116.559 137.867 117.14 139.857C116.7 144.783 116.127 150.487 115.579 153.631C115.457 154.334 115.272 155.187 115.036 156.154C115.245 149.127 115.253 140.099 115.842 137.631Z" fill="black"/>
<path d="M122.033 130.284C122.033 130.284 123.627 146.971 123.681 153.675C123.738 160.65 122.302 183.484 122.302 183.484H118.574C118.574 183.484 117.455 161.057 116.991 154.207C116.483 146.74 114.346 131.128 114.346 131.128L122.033 130.284Z" fill="#205FFF"/>
<path d="M108.256 180.286C108.273 180.286 107.629 181.733 107.629 181.733L103.138 180.918L103.41 179.574L108.256 180.286Z" fill="#263238"/>
<path d="M122.953 181.999C122.969 181.999 122.809 183.547 122.809 183.547H118.28L118.096 182.167L122.953 181.999Z" fill="#263238"/>
<path d="M110.461 115.41C110.162 115.989 109.834 116.597 109.535 117.197L108.623 119.005C108.327 119.608 108.036 120.213 107.757 120.819C107.477 121.424 107.214 122.027 106.988 122.63L106.967 121.68C107.125 122.168 107.316 122.645 107.537 123.108C107.643 123.347 107.778 123.575 107.895 123.811C108.012 124.047 108.167 124.272 108.305 124.495C108.593 124.955 108.905 125.4 109.239 125.828C109.407 126.043 109.576 126.263 109.755 126.469C109.934 126.675 110.13 126.89 110.298 127.066L110.352 127.126C110.477 127.263 110.549 127.441 110.556 127.627C110.562 127.812 110.502 127.994 110.386 128.139C110.27 128.285 110.107 128.384 109.925 128.42C109.742 128.456 109.553 128.425 109.391 128.334C109.111 128.176 108.839 128.003 108.577 127.816C108.305 127.637 108.066 127.449 107.822 127.251C107.333 126.85 106.873 126.413 106.448 125.945C106.014 125.469 105.619 124.959 105.267 124.419C104.905 123.869 104.591 123.29 104.327 122.687C104.211 122.431 104.191 122.142 104.27 121.872L104.308 121.745C104.515 121.036 104.746 120.349 105.001 119.676C105.256 119.002 105.528 118.343 105.815 117.694C106.103 117.045 106.405 116.404 106.722 115.771C107.04 115.139 107.36 114.52 107.727 113.887C107.929 113.525 108.267 113.258 108.665 113.143C109.064 113.028 109.492 113.075 109.856 113.274C110.22 113.473 110.491 113.807 110.61 114.205C110.729 114.602 110.686 115.031 110.491 115.397L110.461 115.41Z" fill="#FF8B7B"/>
<path d="M112.019 114.444C112.128 116.515 109.777 120.319 109.777 120.319L104.936 117.9C105.524 116.184 106.434 114.596 107.618 113.222C110.179 110.393 111.919 112.543 112.019 114.444Z" fill="#263238"/>
<path d="M108.74 127.946L109.714 129.575L111.742 128.277C111.388 127.642 110.833 127.143 110.165 126.857C110.01 126.808 109.843 126.816 109.694 126.879C109.544 126.942 109.423 127.057 109.35 127.202L108.74 127.946Z" fill="#FF8B7B"/>
<path d="M110.526 130.27L111.468 130.094C111.548 130.079 111.623 130.049 111.691 130.005C111.758 129.961 111.816 129.904 111.862 129.837C111.907 129.771 111.939 129.696 111.955 129.617C111.972 129.538 111.972 129.456 111.957 129.377L111.742 128.291L109.714 129.589L109.85 129.917C109.906 130.044 110.003 130.149 110.126 130.213C110.249 130.277 110.39 130.297 110.526 130.27Z" fill="#FF8B7B"/>
<path d="M116.247 104.034C116.266 104.21 116.377 104.349 116.491 104.338C116.605 104.327 116.681 104.178 116.66 104.001C116.638 103.825 116.529 103.686 116.415 103.694C116.301 103.703 116.225 103.855 116.247 104.034Z" fill="#263238"/>
<path d="M116.361 104.349C116.635 104.876 116.978 105.365 117.379 105.804C117.108 106.122 116.564 106.029 116.564 106.029L116.361 104.349Z" fill="#FF5652"/>
<path d="M115.487 103.097C115.501 103.099 115.515 103.098 115.529 103.094C115.542 103.09 115.555 103.082 115.565 103.073C115.66 102.985 115.774 102.921 115.898 102.887C116.023 102.854 116.154 102.851 116.279 102.88C116.292 102.884 116.306 102.885 116.319 102.884C116.333 102.883 116.346 102.879 116.357 102.872C116.369 102.865 116.379 102.856 116.387 102.846C116.395 102.835 116.401 102.822 116.404 102.809C116.411 102.782 116.407 102.754 116.394 102.73C116.38 102.705 116.358 102.687 116.331 102.679C116.172 102.641 116.007 102.643 115.849 102.683C115.691 102.724 115.545 102.803 115.424 102.913C115.414 102.922 115.406 102.934 115.401 102.947C115.395 102.959 115.392 102.973 115.392 102.987C115.392 103.001 115.395 103.015 115.401 103.028C115.406 103.041 115.414 103.052 115.424 103.062C115.432 103.072 115.441 103.08 115.452 103.086C115.463 103.092 115.474 103.096 115.487 103.097Z" fill="#263238"/>
<path d="M110.773 106C111.292 107.572 111.981 110.469 110.999 111.631C110.999 111.631 111.645 113.214 114.621 112.961C117.898 112.69 115.978 111.21 115.978 111.21C114.137 110.938 114.012 109.611 114.164 108.343L110.773 106Z" fill="#FF8B7B"/>
<path d="M110.295 112.204C109.988 111.712 109.646 111.15 110.227 110.941C110.865 110.71 114.449 110.336 115.726 110.651C117.002 110.966 116.741 112.008 116.741 112.008L110.295 112.204Z" fill="#205FFF"/>
<path d="M120.789 112.866C121.256 113.295 121.761 113.77 122.264 114.205C122.766 114.639 123.274 115.084 123.784 115.513C124.295 115.942 124.816 116.347 125.34 116.741C125.864 117.134 126.396 117.493 126.928 117.827L125.842 117.724C126.293 117.603 126.721 117.406 127.105 117.14C127.553 116.826 127.97 116.469 128.348 116.073C128.756 115.656 129.138 115.214 129.491 114.751C129.673 114.514 129.855 114.275 130.034 114.028C130.214 113.781 130.376 113.521 130.526 113.292L130.556 113.249C130.659 113.092 130.815 112.976 130.996 112.925C131.177 112.873 131.371 112.888 131.541 112.967C131.712 113.046 131.849 113.183 131.927 113.355C132.005 113.526 132.018 113.72 131.965 113.901C131.862 114.254 131.753 114.555 131.628 114.87C131.503 115.185 131.373 115.494 131.226 115.799C130.929 116.419 130.581 117.014 130.186 117.577C129.772 118.174 129.289 118.721 128.747 119.206C128.148 119.741 127.452 120.158 126.697 120.433C126.535 120.49 126.364 120.515 126.192 120.505C126.021 120.495 125.853 120.451 125.698 120.376L125.609 120.33C124.934 119.999 124.28 119.629 123.648 119.222C123.032 118.823 122.435 118.408 121.859 117.963C121.283 117.517 120.727 117.067 120.184 116.605C119.641 116.143 119.119 115.66 118.59 115.12C118.308 114.826 118.151 114.434 118.152 114.027C118.153 113.62 118.311 113.229 118.594 112.936C118.876 112.643 119.262 112.471 119.668 112.456C120.075 112.441 120.472 112.584 120.776 112.855L120.789 112.866Z" fill="#FF8B7B"/>
<path d="M119.13 111.457C119.13 111.457 121.867 114.112 122.185 130.536C117.808 131.598 113.597 131.989 110.344 131.576C110.189 129.515 109.959 122.364 107.868 114.824C107.778 114.506 107.755 114.173 107.801 113.847C107.847 113.52 107.96 113.206 108.133 112.925C108.306 112.644 108.536 112.403 108.808 112.215C109.08 112.028 109.387 111.899 109.712 111.837C110.127 111.756 110.564 111.682 110.998 111.625C112.649 111.389 114.311 111.249 115.978 111.205C117.033 111.213 118.087 111.298 119.13 111.457Z" fill="#263238"/>
<path d="M117.007 114.319C117.279 116.374 120.808 120.325 120.808 120.325L124.998 115.98C123.753 114.674 122.408 113.467 120.974 112.372C117.903 110.078 116.763 112.413 117.007 114.319Z" fill="#263238"/>
<path d="M131.693 114.623L133.094 113.339L131.416 111.615C130.861 112.087 130.479 112.731 130.33 113.445C130.314 113.608 130.357 113.771 130.452 113.905C130.547 114.039 130.687 114.134 130.846 114.172L131.693 114.623Z" fill="#FF8B7B"/>
<path d="M133.61 112.405L133.249 111.517C133.218 111.441 133.173 111.371 133.115 111.313C133.057 111.255 132.988 111.209 132.912 111.178C132.836 111.146 132.755 111.131 132.673 111.132C132.591 111.133 132.51 111.15 132.434 111.183L131.405 111.615L133.083 113.339L133.377 113.14C133.494 113.063 133.582 112.948 133.624 112.814C133.667 112.68 133.662 112.535 133.61 112.405Z" fill="#FF8B7B"/>
<path d="M110.355 104.126C110.749 106.298 110.868 107.585 112.09 108.62C113.928 110.176 116.464 108.965 116.706 106.746C116.934 104.748 116.252 101.531 114.042 100.83C111.832 100.13 109.961 101.954 110.355 104.126Z" fill="#FF8B7B"/>
<path d="M114.637 104.908C115.4 105.082 115.994 104.2 116.076 103.95C115.704 103.985 115.044 103.795 114.914 103.627C115.321 103.662 115.715 103.16 115.764 102.967C115.331 102.883 114.949 102.635 114.697 102.274C115.356 102.261 116.149 101.099 115.424 100.059C114.699 99.019 111.669 99.8906 111.243 99.1494C110.608 99.5186 111.172 100.01 111.172 100.01C111.172 100.01 106.885 100.825 108.862 102.478C107.412 102.608 107.208 104.322 108.416 105.193C109.625 106.065 109.687 106.64 109.207 106.57C109.399 106.939 110.26 106.988 110.309 106.63C110.512 107.382 111.099 108.4 112.451 108.234C113.803 108.069 115.128 106.176 114.637 104.908Z" fill="#263238"/>
<path d="M109.236 102.226C108.216 102.367 107.751 101.791 108.006 101.283C106.741 101.93 108.123 103.358 109.236 102.226Z" fill="#263238"/>
<path d="M113.581 104.577C113.756 105.032 114.067 105.422 114.471 105.696C115.014 106.054 115.506 105.696 115.413 105.153C115.329 104.653 114.946 103.863 114.382 103.722C114.265 103.683 114.139 103.679 114.02 103.71C113.901 103.74 113.792 103.804 113.708 103.894C113.624 103.984 113.567 104.096 113.545 104.217C113.522 104.338 113.535 104.463 113.581 104.577Z" fill="#FF8B7B"/>
<path d="M182.591 181.106C180.582 176.365 179.77 170.788 182.07 171.019C184.429 171.247 184.152 179.653 184.535 180.576C183.799 181.209 182.591 181.106 182.591 181.106Z" fill="#0A35A0"/>
<path d="M183.243 172.11C182.749 173.919 182.225 176.713 181.825 179.08C182.054 179.759 182.311 180.438 182.591 181.106C182.591 181.106 183.797 181.209 184.538 180.576C184.234 179.849 184.342 174.462 183.243 172.11Z" fill="#263238"/>
<path d="M183.254 180.237C182.624 170.164 184.34 160.826 188.858 161.247C192.735 161.611 187.082 178.57 187.191 180.525C185.415 181.214 183.254 180.237 183.254 180.237Z" fill="#0A35A0"/>
<path d="M186.181 180.172C186.889 172.93 190.709 164.481 192.349 167.305C194.432 170.889 189.091 179.425 188.947 180.829C187.611 181.117 186.181 180.172 186.181 180.172Z" fill="#0A35A0"/>
<path d="M185.466 163.938C185.008 163.862 184.752 163.577 184.782 163.172C184.815 162.716 185.19 162.263 185.537 162.257C185.705 162.257 185.988 162.344 186.058 162.971L185.787 163.004C185.754 162.705 185.665 162.529 185.545 162.529C185.361 162.529 185.078 162.865 185.056 163.191C185.037 163.463 185.19 163.615 185.513 163.669L185.466 163.938Z" fill="#0A35A0"/>
<path d="M190.343 165.76C190.146 165.744 189.957 165.671 189.8 165.551L189.947 165.325C190.199 165.488 190.395 165.532 190.471 165.439C190.585 165.293 190.506 164.864 190.27 164.638C190.08 164.456 189.857 164.47 189.61 164.687L189.433 164.481C189.497 164.409 189.574 164.351 189.661 164.31C189.747 164.27 189.841 164.247 189.937 164.243C190.033 164.24 190.128 164.255 190.217 164.29C190.307 164.324 190.388 164.376 190.457 164.443C190.788 164.758 190.9 165.333 190.682 165.608C190.642 165.658 190.59 165.699 190.531 165.725C190.472 165.752 190.408 165.764 190.343 165.76Z" fill="#0A35A0"/>
<path d="M183.688 169.86C183.524 169.871 183.361 169.823 183.23 169.723C183.099 169.623 183.009 169.478 182.977 169.317C182.868 168.874 183.085 168.328 183.417 168.214C183.571 168.163 183.87 168.157 184.131 168.736L183.881 168.85C183.759 168.578 183.609 168.431 183.503 168.472C183.33 168.532 183.164 168.936 183.232 169.251C183.294 169.523 183.503 169.615 183.813 169.566L183.854 169.838C183.799 169.85 183.744 169.857 183.688 169.86Z" fill="#0A35A0"/>
<path d="M180.796 175.483C180.664 175.486 180.534 175.449 180.423 175.376C180.312 175.304 180.225 175.2 180.175 175.078C179.985 174.663 180.096 174.084 180.397 173.911C180.541 173.829 180.834 173.769 181.198 174.291L180.976 174.445C180.802 174.198 180.636 174.087 180.533 174.147C180.373 174.239 180.286 174.668 180.422 174.961C180.533 175.203 180.745 175.268 181.052 175.16L181.141 175.417C181.031 175.459 180.914 175.481 180.796 175.483Z" fill="#0A35A0"/>
<path d="M185.608 167.286C185.58 167.285 185.552 167.277 185.529 167.261C185.36 167.168 185.231 167.017 185.165 166.836C185.099 166.654 185.101 166.455 185.17 166.276C185.249 166.095 185.384 165.945 185.554 165.847C185.725 165.749 185.923 165.709 186.118 165.733C186.286 165.762 186.68 165.912 186.707 166.634C186.707 166.67 186.693 166.705 186.667 166.73C186.642 166.755 186.608 166.77 186.571 166.77C186.535 166.77 186.501 166.755 186.476 166.73C186.45 166.705 186.436 166.67 186.436 166.634C186.419 166.257 186.292 166.029 186.069 165.988C185.934 165.977 185.799 166.009 185.683 166.078C185.566 166.148 185.475 166.252 185.42 166.376C185.323 166.607 185.42 166.84 185.692 167.033C185.716 167.05 185.733 167.073 185.743 167.101C185.752 167.128 185.752 167.158 185.743 167.186C185.735 167.213 185.717 167.237 185.694 167.254C185.67 167.271 185.642 167.28 185.613 167.28L185.608 167.286Z" fill="white"/>
<path d="M188.825 174.614C188.794 174.614 188.764 174.603 188.74 174.584C188.716 174.564 188.7 174.536 188.695 174.505C188.691 174.488 188.69 174.47 188.693 174.452C188.696 174.435 188.703 174.418 188.713 174.403C188.722 174.388 188.735 174.376 188.749 174.366C188.764 174.355 188.78 174.348 188.798 174.345C189.167 174.269 189.371 174.103 189.376 173.878C189.364 173.743 189.31 173.615 189.222 173.512C189.134 173.409 189.016 173.336 188.885 173.302C188.64 173.243 188.423 173.376 188.279 173.674C188.271 173.69 188.261 173.705 188.247 173.717C188.234 173.728 188.218 173.737 188.201 173.743C188.184 173.749 188.167 173.751 188.149 173.75C188.131 173.749 188.113 173.745 188.097 173.737C188.081 173.729 188.067 173.718 188.055 173.705C188.043 173.691 188.034 173.676 188.028 173.659C188.023 173.642 188.02 173.624 188.021 173.606C188.022 173.588 188.027 173.571 188.035 173.555C188.101 173.375 188.23 173.224 188.396 173.129C188.563 173.034 188.758 173.001 188.947 173.036C189.139 173.084 189.31 173.191 189.437 173.343C189.563 173.495 189.637 173.684 189.648 173.881C189.648 174.052 189.561 174.464 188.855 174.611L188.825 174.614Z" fill="white"/>
<path d="M192.643 172.325C192.485 172.325 192.276 172.233 192.042 171.882L192.268 171.73C192.436 171.98 192.596 172.094 192.702 172.037C192.865 171.95 192.974 171.521 192.83 171.223C192.727 170.981 192.515 170.91 192.205 171.011L192.121 170.753C192.561 170.609 192.919 170.753 193.08 171.117C193.262 171.535 193.139 172.11 192.833 172.276C192.775 172.309 192.709 172.326 192.643 172.325Z" fill="#0A35A0"/>
<path d="M191.833 182.83C191.835 181.381 191.316 179.98 190.37 178.882C190.463 178.868 190.548 178.822 190.61 178.751C190.671 178.681 190.706 178.59 190.707 178.496C190.706 178.39 190.663 178.289 190.588 178.214C190.513 178.139 190.411 178.097 190.305 178.097H181.215C181.116 178.099 181.021 178.137 180.949 178.205C180.876 178.273 180.832 178.365 180.825 178.464C180.817 178.562 180.847 178.66 180.908 178.738C180.969 178.816 181.057 178.868 181.155 178.885C180.56 179.575 180.129 180.391 179.893 181.271C179.658 182.151 179.623 183.073 179.793 183.968C179.963 184.864 180.333 185.709 180.875 186.442C181.416 187.174 182.116 187.776 182.922 188.2C182.835 188.246 182.765 188.319 182.724 188.409C182.683 188.499 182.673 188.6 182.697 188.696C182.72 188.792 182.775 188.877 182.853 188.938C182.931 188.999 183.027 189.032 183.126 189.031H188.391C188.507 189.03 188.619 188.984 188.701 188.901C188.783 188.819 188.83 188.708 188.831 188.591C188.83 188.511 188.808 188.432 188.766 188.363C188.725 188.294 188.665 188.238 188.594 188.2C189.572 187.685 190.39 186.912 190.961 185.966C191.532 185.019 191.834 183.935 191.833 182.83Z" fill="#263238"/>
<defs>
<filter id="filter0_d_1_966" x="233.686" y="101.485" width="25.8086" height="18.2534" filterUnits="userSpaceOnUse" color-interpolation-filters="sRGB">
<feFlood flood-opacity="0" result="BackgroundImageFix"/>
<feColorMatrix in="SourceAlpha" type="matrix" values="0 0 0 0 0 0 0 0 0 0 0 0 0 0 0 0 0 0 127 0" result="hardAlpha"/>
<feOffset dx="2" dy="4"/>
<feGaussianBlur stdDeviation="2"/>
<feColorMatrix type="matrix" values="0 0 0 0 0 0 0 0 0 0 0 0 0 0 0 0 0 0 0.196296 0"/>
<feBlend mode="normal" in2="BackgroundImageFix" result="effect1_dropShadow_1_966"/>
<feBlend mode="normal" in="SourceGraphic" in2="effect1_dropShadow_1_966" result="shape"/>
</filter>
<filter id="filter1_d_1_966" x="126.295" y="70.7243" width="25.8086" height="18.2534" filterUnits="userSpaceOnUse" color-interpolation-filters="sRGB">
<feFlood flood-opacity="0" result="BackgroundImageFix"/>
<feColorMatrix in="SourceAlpha" type="matrix" values="0 0 0 0 0 0 0 0 0 0 0 0 0 0 0 0 0 0 127 0" result="hardAlpha"/>
<feOffset dx="2" dy="4"/>
<feGaussianBlur stdDeviation="2"/>
<feColorMatrix type="matrix" values="0 0 0 0 0 0 0 0 0 0 0 0 0 0 0 0 0 0 0.196296 0"/>
<feBlend mode="normal" in2="BackgroundImageFix" result="effect1_dropShadow_1_966"/>
<feBlend mode="normal" in="SourceGraphic" in2="effect1_dropShadow_1_966" result="shape"/>
</filter>
<filter id="filter2_d_1_966" x="44.2672" y="100.405" width="25.8086" height="18.2534" filterUnits="userSpaceOnUse" color-interpolation-filters="sRGB">
<feFlood flood-opacity="0" result="BackgroundImageFix"/>
<feColorMatrix in="SourceAlpha" type="matrix" values="0 0 0 0 0 0 0 0 0 0 0 0 0 0 0 0 0 0 127 0" result="hardAlpha"/>
<feOffset dx="2" dy="4"/>
<feGaussianBlur stdDeviation="2"/>
<feColorMatrix type="matrix" values="0 0 0 0 0 0 0 0 0 0 0 0 0 0 0 0 0 0 0.196296 0"/>
<feBlend mode="normal" in2="BackgroundImageFix" result="effect1_dropShadow_1_966"/>
<feBlend mode="normal" in="SourceGraphic" in2="effect1_dropShadow_1_966" result="shape"/>
</filter>
<linearGradient id="paint0_linear_1_966" x1="153.387" y1="-31.3444" x2="-3.62168" y2="187.68" gradientUnits="userSpaceOnUse">
<stop stop-color="#006EFE"/>
<stop offset="1" stop-color="#494AFF"/>
</linearGradient>
<linearGradient id="paint1_linear_1_966" x1="362.862" y1="-109.812" x2="190.778" y2="330.865" gradientUnits="userSpaceOnUse">
<stop stop-color="#006EFE" stop-opacity="0.0447716"/>
<stop offset="1" stop-color="#494AFF" stop-opacity="0.111888"/>
</linearGradient>
<linearGradient id="paint2_linear_1_966" x1="349.322" y1="141.707" x2="206.442" y2="6.40994" gradientUnits="userSpaceOnUse">
<stop stop-color="#006EFE"/>
<stop offset="1" stop-color="#494AFF"/>
<stop offset="1" stop-color="#494AFF"/>
</linearGradient>
</defs>
</svg>
