<svg width="25" height="25" viewBox="0 0 25 25" fill="none" xmlns="http://www.w3.org/2000/svg">
<g clip-path="url(#clip0_126_3994)">
<path d="M15.75 6.25001C15.75 6.0511 15.829 5.86033 15.9697 5.71968C16.1103 5.57903 16.3011 5.50001 16.5 5.50001H21C21.1989 5.50001 21.3897 5.57903 21.5303 5.71968C21.671 5.86033 21.75 6.0511 21.75 6.25001C21.75 6.44892 21.671 6.63969 21.5303 6.78034C21.3897 6.92099 21.1989 7.00001 21 7.00001H16.5C16.3011 7.00001 16.1103 6.92099 15.9697 6.78034C15.829 6.63969 15.75 6.44892 15.75 6.25001ZM21.615 11.3763C21.9576 13.413 21.6441 15.506 20.7197 17.353C19.7953 19.2 18.3078 20.7054 16.4721 21.6518C14.6363 22.5983 12.5472 22.9369 10.5065 22.6187C8.46577 22.3005 6.57896 21.342 5.11851 19.8815C3.65805 18.421 2.69952 16.5342 2.38132 14.4935C2.06311 12.4528 2.40169 10.3637 3.34817 8.52795C4.29465 6.69218 5.80005 5.20471 7.64703 4.2803C9.494 3.35589 11.587 3.04237 13.6237 3.38501C13.8184 3.41944 13.9916 3.52935 14.1057 3.69083C14.2198 3.85232 14.2655 4.05231 14.2329 4.24731C14.2002 4.4423 14.0919 4.61653 13.9315 4.73209C13.7711 4.84766 13.5715 4.8952 13.3762 4.86439C12.1932 4.66538 10.9811 4.72655 9.82413 5.04364C8.66717 5.36073 7.59321 5.92613 6.67698 6.70048C5.76075 7.47483 5.02427 8.43954 4.51878 9.52746C4.01329 10.6154 3.75094 11.8004 3.74999 13C3.74822 15.0196 4.49048 16.969 5.83499 18.4759C6.67146 17.2638 7.84764 16.3261 9.21562 15.7806C8.48079 15.2019 7.94458 14.4085 7.68156 13.5109C7.41854 12.6132 7.44178 11.6559 7.74804 10.7721C8.05431 9.88826 8.62838 9.12184 9.39043 8.57941C10.1525 8.03697 11.0646 7.74549 12 7.74549C12.9354 7.74549 13.8475 8.03697 14.6096 8.57941C15.3716 9.12184 15.9457 9.88826 16.2519 10.7721C16.5582 11.6559 16.5814 12.6132 16.3184 13.5109C16.0554 14.4085 15.5192 15.2019 14.7844 15.7806C16.1524 16.3261 17.3285 17.2638 18.165 18.4759C19.5095 16.969 20.2518 15.0196 20.25 13C20.25 12.5389 20.2118 12.0786 20.1356 11.6238C20.1184 11.5262 20.1206 11.4262 20.1422 11.3295C20.1639 11.2328 20.2044 11.1414 20.2616 11.0604C20.3187 10.9795 20.3914 10.9107 20.4753 10.858C20.5592 10.8053 20.6527 10.7698 20.7504 10.7534C20.8481 10.7371 20.9481 10.7403 21.0446 10.7628C21.1411 10.7853 21.2321 10.8267 21.3125 10.8846C21.3929 10.9425 21.461 11.0158 21.513 11.1002C21.5649 11.1846 21.5996 11.2784 21.615 11.3763ZM12 15.25C12.5933 15.25 13.1734 15.0741 13.6667 14.7444C14.1601 14.4148 14.5446 13.9462 14.7716 13.3981C14.9987 12.8499 15.0581 12.2467 14.9424 11.6647C14.8266 11.0828 14.5409 10.5482 14.1213 10.1287C13.7018 9.70913 13.1672 9.42341 12.5853 9.30765C12.0033 9.1919 11.4001 9.25131 10.8519 9.47837C10.3038 9.70543 9.83523 10.09 9.50559 10.5833C9.17594 11.0766 8.99999 11.6567 8.99999 12.25C8.99999 13.0457 9.31606 13.8087 9.87867 14.3713C10.4413 14.9339 11.2043 15.25 12 15.25ZM12 21.25C13.8313 21.2519 15.6106 20.6414 17.055 19.5156C16.5124 18.6671 15.765 17.9688 14.8816 17.4851C13.9981 17.0014 13.0072 16.7478 12 16.7478C10.9928 16.7478 10.0018 17.0014 9.11842 17.4851C8.235 17.9688 7.48756 18.6671 6.94499 19.5156C8.3894 20.6414 10.1687 21.2519 12 21.25Z" fill="#2538E8"/>
</g>
<defs>
<clipPath id="clip0_126_3994">
<rect width="24" height="24" fill="white" transform="translate(0.136353 0.75)"/>
</clipPath>
</defs>
</svg>
