<svg width="32" height="33" viewBox="0 0 32 33" fill="none" xmlns="http://www.w3.org/2000/svg">
<circle cx="15.7167" cy="16.4501" r="15.7167" fill="#F7F7F7"/>
<g clip-path="url(#clip0_87_2255)">
<path d="M13.7038 11.1348C13.6088 11.1348 13.5197 11.1793 13.4634 11.2556L12.6472 12.345C10.4567 12.4376 8.47024 14.4393 8.38464 14.5273C8.37525 14.5378 8.37056 14.5519 8.36118 14.5636C8.34828 14.5824 8.33304 14.6012 8.32366 14.6223C8.31662 14.641 8.31545 14.661 8.31193 14.6797C8.30724 14.6985 8.30138 14.7161 8.30138 14.736C8.30138 14.7595 8.30841 14.7817 8.31428 14.8052C8.31662 14.8193 8.31545 14.8333 8.32131 14.8462C8.32131 14.8486 8.32248 14.8486 8.32248 14.8498C8.32952 14.8685 8.34359 14.8826 8.35415 14.8978C8.36587 14.9154 8.37525 14.9354 8.38933 14.9494C8.3905 14.9506 8.3905 14.9518 8.39167 14.953C8.40105 14.9623 8.41395 14.967 8.42568 14.9752C8.44561 14.9893 8.46438 15.0045 8.48548 15.0139C8.50542 15.0221 8.52535 15.0233 8.54646 15.0268C8.56405 15.0303 8.5793 15.0362 8.59806 15.0362C8.62386 15.0362 8.64848 15.0292 8.67311 15.0233C8.68601 15.0198 8.69773 15.021 8.71063 15.0174C9.95365 14.5273 11.613 14.4511 12.0773 14.4393C12.1102 14.4757 12.1536 14.5308 12.2028 14.5965L10.5857 15.9438C9.48224 16.0048 8.6004 16.9218 8.6004 18.0394C8.6004 19.1968 9.54439 20.1408 10.7018 20.1408C11.756 20.1408 12.632 19.3551 12.7798 18.3396H16.2309C16.6378 18.3396 16.9931 18.0769 17.1139 17.6852C17.4164 16.7143 17.9301 15.6366 18.2314 15.0409C18.0684 15.0808 17.4985 15.2274 16.1934 15.6249C16.1652 15.6331 16.1347 15.6378 16.1054 15.6378C15.376 15.6378 14.9363 14.8075 14.4719 13.9304C14.14 13.3042 13.7695 12.6147 13.352 12.4059L13.8539 11.7352H14.9046C15.0125 11.7364 15.1133 11.6801 15.1685 11.5863C15.2224 11.4924 15.2224 11.3775 15.1685 11.2837C15.1133 11.1899 15.0125 11.1336 14.9046 11.1348H13.7038ZM14.303 12.4728C14.5587 12.814 14.7815 13.2338 15.0019 13.649C15.335 14.2775 15.7114 14.9881 16.0691 15.035C17.6228 14.5625 18.12 14.4487 18.1411 14.4452C18.1728 14.4358 18.5785 14.3373 19.1074 14.2271V16.0271C18.2408 16.2863 17.6064 17.0907 17.6064 18.0394C17.6064 19.1968 18.5504 20.1408 19.7078 20.1408C20.8652 20.1408 21.8092 19.1968 21.8092 18.0394C21.8092 16.882 20.8652 15.938 19.7078 15.938V14.1086C20.497 13.9679 21.4762 13.8366 22.4096 13.8366C22.4108 13.8366 22.4108 13.8366 22.4108 13.8366C22.4131 13.8366 22.4143 13.8366 22.4155 13.8366C22.5796 13.8331 22.7098 13.6994 22.7098 13.5364V13.2362C22.7098 13.0708 22.5761 12.936 22.4096 12.936C20.5697 12.936 18.6876 13.2022 17.4422 13.3792C16.8207 13.4672 16.3306 13.5364 16.1054 13.5364C15.8591 13.5364 15.4511 13.2995 14.9879 12.8867C14.7826 12.705 14.5505 12.5666 14.303 12.4728ZM20.008 14.7372V15.3376H22.1094V14.7372H20.008ZM12.5229 15.1113C12.8091 15.6401 13.1456 16.4786 13.3532 17.7392H12.7798C12.666 16.9558 12.1184 16.3109 11.389 16.0564L12.5229 15.1113ZM19.7078 16.5384C20.5404 16.5384 21.2088 17.2068 21.2088 18.0394C21.2088 18.872 20.5404 19.5404 19.7078 19.5404C18.8752 19.5404 18.2068 18.872 18.2068 18.0394C18.2068 17.2068 18.8752 16.5384 19.7078 16.5384ZM10.737 16.5396C11.5532 16.5595 12.2028 17.2185 12.2028 18.0394C12.2028 18.872 11.5344 19.5404 10.7018 19.5404C9.86922 19.5404 9.2008 18.872 9.2008 18.0394C9.2008 17.222 9.84576 16.5642 10.6584 16.5407C10.6842 16.5442 10.7112 16.5442 10.737 16.5396ZM10.7018 17.1388C10.2058 17.1388 9.8012 17.5434 9.8012 18.0394C9.8012 18.5354 10.2058 18.94 10.7018 18.94C11.1978 18.94 11.6024 18.5354 11.6024 18.0394C11.6024 17.5434 11.1978 17.1388 10.7018 17.1388ZM19.7078 17.1388C19.2118 17.1388 18.8072 17.5434 18.8072 18.0394C18.8072 18.5354 19.2118 18.94 19.7078 18.94C20.2038 18.94 20.6084 18.5354 20.6084 18.0394C20.6084 17.5434 20.2038 17.1388 19.7078 17.1388Z" fill="#2538E8"/>
</g>
<defs>
<clipPath id="clip0_87_2255">
<rect width="15.0129" height="15.0129" fill="white" transform="translate(8.44489 8.70898)"/>
</clipPath>
</defs>
</svg>
