<svg width="47" height="47" viewBox="0 0 47 47" fill="none" xmlns="http://www.w3.org/2000/svg">
<circle cx="23.5" cy="23.75" r="23" fill="#F7F7F7"/>
<path d="M30.3079 15.3379L23.5724 20.5944L16.683 15.3379V15.3393L16.6913 15.3464V22.7069L23.4948 28.077L30.3079 22.9143V15.3379Z" fill="#EA4335"/>
<path d="M32.076 14.0597L30.3072 15.3383V22.9147L35.8731 18.6414V16.0671C35.8731 16.0671 35.1975 12.3904 32.076 14.0597Z" fill="#FBBC05"/>
<path d="M30.3072 22.9139V32.7407H34.5732C34.5732 32.7407 35.7871 32.6157 35.8744 31.232V18.6406L30.3072 22.9139Z" fill="#34A853"/>
<path d="M16.6916 32.751V22.7083L16.683 22.7012L16.6916 32.751Z" fill="#C5221F"/>
<path d="M16.6827 15.3391L14.9235 14.0676C11.802 12.3983 11.125 16.0736 11.125 16.0736V18.6478L16.6827 22.6996V15.3391Z" fill="#C5221F"/>
<path d="M16.683 15.3398V22.7004L16.6916 22.7075V15.347L16.683 15.3398Z" fill="#C5221F"/>
<path d="M11.125 18.6504V31.2417C11.211 32.6269 12.4263 32.7506 12.4263 32.7506H16.6924L16.6827 22.7007L11.125 18.6504Z" fill="#4285F4"/>
</svg>
