<svg width="32" height="33" viewBox="0 0 32 33" fill="none" xmlns="http://www.w3.org/2000/svg">
<circle cx="15.7167" cy="16.5829" r="15.7167" fill="#F7F7F7"/>
<g clip-path="url(#clip0_87_2239)">
<path d="M19.7046 15.4109H15.0289C14.9078 15.4126 14.7906 15.3683 14.7008 15.287C14.6111 15.2058 14.5554 15.0935 14.5451 14.9729C14.5408 14.9088 14.5498 14.8445 14.5713 14.7841C14.5929 14.7236 14.6267 14.6682 14.6706 14.6213C14.7145 14.5744 14.7675 14.537 14.8264 14.5114C14.8853 14.4859 14.9488 14.4727 15.013 14.4726H17.5934C17.6556 14.4726 17.7153 14.4479 17.7593 14.4039C17.8033 14.3599 17.828 14.3003 17.828 14.2381V13.7689C17.828 13.7067 17.8033 13.647 17.7593 13.603C17.7153 13.559 17.6556 13.5343 17.5934 13.5343H15.0289C14.9076 13.5363 14.7901 13.4921 14.7001 13.4108C14.6101 13.3295 14.5543 13.2171 14.5439 13.0963C14.5396 13.0321 14.5486 12.9677 14.5703 12.9072C14.5919 12.8466 14.6258 12.7911 14.6698 12.7442C14.7138 12.6973 14.767 12.66 14.826 12.6345C14.8851 12.609 14.9487 12.5959 15.013 12.596H17.5934C17.6556 12.596 17.7153 12.5713 17.7593 12.5273C17.8033 12.4833 17.828 12.4237 17.828 12.3614V12.1269C17.828 11.878 17.7291 11.6393 17.5531 11.4634C17.3772 11.2874 17.1385 11.1886 16.8897 11.1886H10.3344C10.2272 11.1866 10.1223 11.2205 10.0365 11.2847C9.95603 11.3463 9.89764 11.4322 9.87005 11.5296C9.84246 11.6271 9.84715 11.7309 9.88343 11.8254C10.532 13.5167 10.3972 16.7345 9.87053 18.5654C9.85844 18.6076 9.85232 18.6512 9.85235 18.695V20.5716C9.85235 20.8205 9.9512 21.0592 10.1272 21.2351C10.3031 21.4111 10.5418 21.5099 10.7907 21.5099H12.3219C12.4676 21.51 12.6114 21.476 12.7417 21.4108L13.4818 21.0408H14.4331L15.1731 21.4108C15.3035 21.476 15.4473 21.51 15.593 21.5099H17.248C17.3937 21.51 17.5375 21.476 17.6679 21.4108L18.408 21.0408H19.3592L20.0993 21.4108C20.2296 21.476 20.3734 21.51 20.5192 21.5099H22.0504C22.2992 21.5099 22.5379 21.4111 22.7138 21.2351C22.8898 21.0592 22.9887 20.8205 22.9887 20.5716V18.695C22.9887 17.824 22.6427 16.9887 22.0268 16.3728C21.4109 15.7569 20.5756 15.4109 19.7046 15.4109ZM22.0504 20.5716H20.5192L19.7791 20.2016C19.6487 20.1364 19.5049 20.1025 19.3592 20.1025H18.408C18.2622 20.1025 18.1184 20.1364 17.9881 20.2016L17.248 20.5716H15.593L14.8529 20.2016C14.7226 20.1364 14.5788 20.1025 14.4331 20.1025H13.4818C13.3361 20.1025 13.1923 20.1364 13.0619 20.2016L12.3219 20.5716H10.7907V19.1642H22.0504V20.5716Z" fill="#2538E8"/>
</g>
<defs>
<clipPath id="clip0_87_2239">
<rect width="15.0129" height="15.0129" fill="white" transform="translate(8.44489 8.84277)"/>
</clipPath>
</defs>
</svg>
