<svg width="32" height="32" viewBox="0 0 32 32" fill="none" xmlns="http://www.w3.org/2000/svg">
<circle cx="15.7167" cy="15.7167" r="15.7167" fill="#F7F7F7"/>
<g clip-path="url(#clip0_87_2223)">
<path d="M20.2939 11.2008C19.7281 10.6232 19.0524 10.1647 18.3065 9.85245C17.5607 9.54021 16.7599 9.38053 15.9513 9.38284H15.4822C15.3577 9.38284 15.2384 9.43227 15.1504 9.52025C15.0624 9.60823 15.013 9.72756 15.013 9.85199V11.4665L9.13743 15.0825C9.08475 15.1149 9.03902 15.1574 9.00285 15.2076C8.96668 15.2578 8.94079 15.3147 8.92667 15.3749C8.91255 15.4351 8.91049 15.4975 8.92059 15.5586C8.93069 15.6196 8.95277 15.678 8.98554 15.7305L9.79366 17.0207L9.81125 17.0459C10.0158 17.3315 10.2968 17.5536 10.6219 17.6867C10.947 17.8198 11.3031 17.8585 11.6492 17.7983C12.4661 17.6599 13.914 17.4148 15.2499 17.9912L13.69 20.1359C13.2617 19.9323 12.8647 19.6684 12.5112 19.3524C12.4179 19.2694 12.2954 19.2269 12.1708 19.2342C12.0461 19.2415 11.9295 19.298 11.8465 19.3914C11.7635 19.4847 11.721 19.6071 11.7283 19.7318C11.7356 19.8565 11.7922 19.9731 11.8855 20.0561C13.0048 21.0482 14.4515 21.5913 15.9472 21.5808H16.0745C17.2666 21.5573 18.4257 21.1848 19.4083 20.5095C20.391 19.8342 21.1542 18.8856 21.6035 17.7811C22.0527 16.6766 22.1684 15.4647 21.9362 14.2952C21.704 13.1256 21.134 12.0498 20.2968 11.2008H20.2939ZM15.7167 14.5435C15.5775 14.5435 15.4415 14.5023 15.3258 14.4249C15.21 14.3476 15.1198 14.2377 15.0666 14.1091C15.0133 13.9805 14.9994 13.839 15.0265 13.7025C15.0537 13.566 15.1207 13.4406 15.2191 13.3422C15.3175 13.2438 15.4429 13.1767 15.5794 13.1496C15.7159 13.1224 15.8574 13.1364 15.986 13.1896C16.1146 13.2429 16.2245 13.3331 16.3019 13.4488C16.3792 13.5646 16.4205 13.7006 16.4205 13.8398C16.4205 14.0264 16.3463 14.2054 16.2143 14.3374C16.0824 14.4694 15.9034 14.5435 15.7167 14.5435Z" fill="#2538E8"/>
</g>
<defs>
<clipPath id="clip0_87_2223">
<rect width="15.0129" height="15.0129" fill="white" transform="translate(8.44484 7.97559)"/>
</clipPath>
</defs>
</svg>
