<svg width="24" height="24" viewBox="0 0 24 24" fill="none" xmlns="http://www.w3.org/2000/svg">
<path d="M23.25 12.0004C23.2501 13.0388 22.9422 14.0539 22.3653 14.9173C21.7885 15.7808 20.9685 16.4537 20.0091 16.8511C19.0498 17.2485 17.9941 17.3525 16.9757 17.1499C15.9572 16.9473 15.0217 16.4472 14.2875 15.7129L14.2566 15.6801L8.63625 9.33319C8.11007 8.81316 7.44182 8.46038 6.7156 8.31925C5.98939 8.17812 5.23765 8.25495 4.555 8.54006C3.87234 8.82518 3.28927 9.30585 2.87916 9.92158C2.46906 10.5373 2.25023 11.2606 2.25023 12.0004C2.25023 12.7402 2.46906 13.4635 2.87916 14.0792C3.28927 14.6949 3.87234 15.1756 4.555 15.4607C5.23765 15.7458 5.98939 15.8226 6.7156 15.6815C7.44182 15.5404 8.11007 15.1876 8.63625 14.6676L9.435 13.7657C9.50032 13.6918 9.57954 13.6315 9.66815 13.5883C9.75676 13.545 9.85302 13.5197 9.95143 13.5136C10.0498 13.5076 10.1485 13.521 10.2417 13.553C10.335 13.5851 10.421 13.6352 10.4948 13.7005C10.5687 13.7658 10.629 13.8451 10.6722 13.9337C10.7155 14.0223 10.7409 14.1185 10.7469 14.217C10.753 14.3154 10.7396 14.414 10.7075 14.5073C10.6754 14.6005 10.6253 14.6865 10.56 14.7604L9.74532 15.6801L9.71438 15.7129C8.98013 16.4471 8.04467 16.947 7.02629 17.1495C6.0079 17.3521 4.95233 17.2481 3.99305 16.8507C3.03377 16.4533 2.21386 15.7804 1.63701 14.9171C1.06015 14.0537 0.752258 13.0387 0.752258 12.0004C0.752258 10.9621 1.06015 9.94704 1.63701 9.08369C2.21386 8.22035 3.03377 7.54744 3.99305 7.15006C4.95233 6.75269 6.0079 6.64869 7.02629 6.85122C8.04467 7.05375 8.98013 7.55371 9.71438 8.28788L9.74532 8.32069L15.3656 14.6676C15.8918 15.1876 16.5601 15.5404 17.2863 15.6815C18.0125 15.8226 18.7642 15.7458 19.4469 15.4607C20.1295 15.1756 20.7126 14.6949 21.1227 14.0792C21.5328 13.4635 21.7517 12.7402 21.7517 12.0004C21.7517 11.2606 21.5328 10.5373 21.1227 9.92158C20.7126 9.30585 20.1295 8.82518 19.4469 8.54006C18.7642 8.25495 18.0125 8.17812 17.2863 8.31925C16.5601 8.46038 15.8918 8.81316 15.3656 9.33319L14.5669 10.2351C14.435 10.3843 14.2492 10.4749 14.0505 10.4871C13.8517 10.4994 13.6562 10.4321 13.507 10.3002C13.3579 10.1683 13.2672 9.98256 13.255 9.7838C13.2427 9.58504 13.31 9.38957 13.4419 9.24038L14.2566 8.32069L14.2875 8.28788C15.0217 7.55358 15.9572 7.0535 16.9757 6.8509C17.9941 6.6483 19.0498 6.75226 20.0091 7.14966C20.9685 7.54705 21.7885 8.22001 22.3653 9.08344C22.9422 9.94687 23.2501 10.962 23.25 12.0004Z" fill="black"/>
</svg>
