<svg width="47" height="45" viewBox="0 0 47 45" fill="none" xmlns="http://www.w3.org/2000/svg">
<g clip-path="url(#clip0_113_1367)">
<path d="M11.5958 20.5463L15.781 17.8566C16.0756 17.6421 21.1667 13.8396 23.5077 6.3173C23.6205 5.95376 23.8348 5.62998 24.1253 5.38399C24.4158 5.138 24.7705 4.98002 25.1476 4.92861C25.5248 4.87719 25.9088 4.93448 26.2545 5.09375C26.6003 5.25301 26.8934 5.50763 27.0994 5.8277L37.9124 22.6527C38.1182 22.973 38.2283 23.3454 38.2298 23.7262C38.2312 24.107 38.1239 24.4802 37.9205 24.8021C37.7171 25.124 37.4261 25.3811 37.0816 25.5433C36.7371 25.7054 36.3534 25.7659 35.9758 25.7175C29.863 24.9387 25.1241 26.6351 23.1953 27.4973L25.339 30.8329C25.5175 31.1099 25.6248 31.4267 25.6514 31.7552C25.6779 32.0837 25.6229 32.4137 25.4911 32.7158L24.8298 34.23C24.7021 34.5229 24.5061 34.7809 24.2582 34.9825C24.0103 35.1841 23.7177 35.3234 23.4049 35.3887C23.0921 35.4539 22.7683 35.4433 22.4604 35.3577C22.1526 35.272 21.8697 35.1139 21.6356 34.8965L17.4 31.0272C16.0195 31.6923 14.4368 31.804 12.9766 31.3394C11.5164 30.8748 10.2892 29.8691 9.54688 28.5286C8.80452 27.188 8.60318 25.6143 8.98417 24.13C9.36516 22.6458 10.2996 21.3636 11.5958 20.5463ZM22.9877 33.4168L22.9952 33.4283L23.6565 31.9142L21.4486 28.4787L19.1773 29.9385L22.9877 33.4168ZM17.0023 28.9588L20.3673 26.7962L16.0421 20.0662L12.6771 22.2288C11.7847 22.8024 11.1566 23.707 10.9311 24.7436C10.7056 25.7802 10.9012 26.864 11.4747 27.7564C12.0483 28.6489 12.9529 29.2769 13.9895 29.5024C15.0261 29.7279 16.1099 29.5324 17.0023 28.9588Z" fill="#2538E8"/>
</g>
<path d="M35.1104 0.110352L31.1104 8.61035L37.6104 4.11035L35.1104 0.110352Z" fill="#2538E8"/>
<path d="M45.5868 18.2331L36.2105 18.8106L42.7931 14.4324L45.5868 18.2331Z" fill="#2538E8"/>
<path d="M45.3837 9.9311L37.1104 10.4407L42.9186 6.57755L45.3837 9.9311Z" fill="#2538E8"/>
<defs>
<clipPath id="clip0_113_1367">
<rect width="32" height="32" fill="white" transform="matrix(-0.841247 0.54065 0.54065 0.841247 26.9199 0)"/>
</clipPath>
</defs>
</svg>
