<svg width="32" height="32" viewBox="0 0 32 32" fill="none" xmlns="http://www.w3.org/2000/svg">
<circle cx="15.7167" cy="15.8837" r="15.7167" fill="#F7F7F7"/>
<g clip-path="url(#clip0_164_5359)">
<g clip-path="url(#clip1_164_5359)">
<g clip-path="url(#clip2_164_5359)">
<path d="M17.5314 12.7931L16.5032 13.8213L17.1998 14.5178L18.2279 13.4896L17.5314 12.7931Z" fill="#2538E8"/>
<path d="M20.9461 10.0637C20.1018 9.21934 18.9761 8.84409 17.7096 8.9379C16.49 9.03171 15.2705 9.64149 14.3323 10.5796C13.3942 11.5177 12.8313 12.7373 12.6906 13.9569C12.6906 14.1914 12.6906 14.379 12.6906 14.5667V15.0826C12.6906 15.88 12.3623 16.6774 11.7994 17.2403C11.7994 17.2403 11.7994 17.2872 11.7525 17.2872C11.7525 17.2872 11.7056 17.2872 11.7056 17.3341L9.40719 19.6325C8.84431 20.1954 8.84431 21.0866 9.40719 21.6495C9.64172 21.9309 10.017 22.0717 10.3922 22.0717C10.7675 22.0717 11.1427 21.9309 11.4242 21.6495L13.7226 19.3511C13.7226 19.3511 13.7226 19.3042 13.7695 19.3042C13.7695 19.3042 13.8164 19.3042 13.8164 19.2573C14.3792 18.6944 15.1767 18.3661 15.9741 18.3661H16.4431C16.5369 18.3661 16.5838 18.3661 16.6777 18.3661C16.8184 18.3661 16.9591 18.3661 17.0998 18.3661C18.3194 18.2722 19.5389 17.6625 20.4771 16.7243C21.4152 15.7862 21.9781 14.5666 22.1188 13.3471C22.1657 12.0337 21.7435 10.908 20.9461 10.0637ZM13.4411 18.2722L12.6906 17.5217C12.9252 17.2403 13.1128 16.912 13.2535 16.5367C13.3942 16.7712 13.5818 16.9589 13.7695 17.1465C13.9571 17.3341 14.1916 17.5217 14.3793 17.6625C14.0978 17.8501 13.7695 18.0377 13.4411 18.2722ZM20.2425 12.7842L19.5389 13.4878L19.8673 13.8162C20.0549 14.0038 20.0549 14.2852 19.8673 14.4728C19.7735 14.5667 19.6328 14.6136 19.5389 14.6136C19.4451 14.6136 19.3513 14.5667 19.2575 14.4728L18.9292 14.1445L17.8503 15.1764L18.1787 15.5048C18.3663 15.6924 18.3663 15.9738 18.1787 16.1615C18.0848 16.2553 17.9441 16.3022 17.8503 16.3022C17.7565 16.3022 17.6158 16.2553 17.522 16.1615L17.1936 15.8331L16.49 16.5367C16.3962 16.6305 16.2555 16.6774 16.1617 16.6774C16.0679 16.6774 15.9272 16.6305 15.8333 16.5367C15.6457 16.3491 15.6457 16.0677 15.8333 15.88L16.5369 15.1764L15.8333 14.4728L15.1297 15.1764C15.0359 15.2702 14.8952 15.3172 14.8014 15.3172C14.7076 15.3172 14.5669 15.2702 14.4731 15.1764C14.2854 14.9888 14.2854 14.7074 14.4731 14.5197L15.1767 13.8162L14.8483 13.4878C14.6607 13.3002 14.6607 13.0187 14.8483 12.8311C15.0359 12.6435 15.3174 12.6435 15.505 12.8311L15.8333 13.1595L16.8653 12.1275L16.5369 11.7523C16.3493 11.5647 16.3493 11.2832 16.5369 11.0956C16.7246 10.908 17.006 10.908 17.1936 11.0956L17.522 11.4239L18.2256 10.7203C18.4132 10.5327 18.6946 10.5327 18.8822 10.7203C19.0699 10.908 19.0699 11.1894 18.8822 11.377L18.1787 12.0806L18.8822 12.7842L19.5858 12.0806C19.7735 11.893 20.0549 11.893 20.2425 12.0806C20.4302 12.2682 20.4302 12.5966 20.2425 12.7842Z" fill="#2538E8"/>
</g>
</g>
</g>
<defs>
<clipPath id="clip0_164_5359">
<rect width="15.0129" height="15.0129" fill="white" transform="translate(8.44489 8.14258)"/>
</clipPath>
<clipPath id="clip1_164_5359">
<rect width="15.01" height="15.01" fill="white" transform="translate(8 7.56641)"/>
</clipPath>
<clipPath id="clip2_164_5359">
<rect width="15.01" height="15.01" fill="white" transform="translate(8 8)"/>
</clipPath>
</defs>
</svg>
