<svg width="24" height="24" viewBox="0 0 24 24" fill="none" xmlns="http://www.w3.org/2000/svg">
<path d="M21.6488 19.8736C20.2209 17.4052 18.0206 15.6352 15.4528 14.7961C16.723 14.04 17.7098 12.8878 18.2618 11.5166C18.8137 10.1453 18.9003 8.63077 18.5082 7.20554C18.1161 5.78031 17.267 4.5232 16.0912 3.62726C14.9155 2.73132 13.4782 2.24609 12 2.24609C10.5218 2.24609 9.08451 2.73132 7.90878 3.62726C6.73306 4.5232 5.88394 5.78031 5.49183 7.20554C5.09971 8.63077 5.18629 10.1453 5.73825 11.5166C6.29021 12.8878 7.27704 14.04 8.5472 14.7961C5.97938 15.6343 3.77907 17.4043 2.35126 19.8736C2.2989 19.959 2.26417 20.054 2.24912 20.153C2.23407 20.2521 2.239 20.3531 2.26363 20.4502C2.28825 20.5472 2.33207 20.6384 2.3925 20.7183C2.45293 20.7981 2.52874 20.8651 2.61547 20.9152C2.7022 20.9653 2.79808 20.9975 2.89745 21.0099C2.99683 21.0224 3.0977 21.0148 3.19409 20.9876C3.29049 20.9604 3.38047 20.9142 3.45872 20.8517C3.53697 20.7892 3.6019 20.7117 3.6497 20.6236C5.41595 17.5711 8.53782 15.7486 12 15.7486C15.4622 15.7486 18.5841 17.5711 20.3503 20.6236C20.3981 20.7117 20.4631 20.7892 20.5413 20.8517C20.6196 20.9142 20.7095 20.9604 20.8059 20.9876C20.9023 21.0148 21.0032 21.0224 21.1026 21.0099C21.2019 20.9975 21.2978 20.9653 21.3845 20.9152C21.4713 20.8651 21.5471 20.7981 21.6075 20.7183C21.6679 20.6384 21.7118 20.5472 21.7364 20.4502C21.761 20.3531 21.766 20.2521 21.7509 20.153C21.7358 20.054 21.7011 19.959 21.6488 19.8736ZM6.75001 8.99864C6.75001 7.96029 7.05792 6.94526 7.63479 6.0819C8.21167 5.21854 9.03161 4.54564 9.99092 4.14828C10.9502 3.75092 12.0058 3.64695 13.0242 3.84952C14.0426 4.05209 14.9781 4.55211 15.7123 5.28633C16.4465 6.02056 16.9466 6.95602 17.1491 7.97442C17.3517 8.99282 17.2477 10.0484 16.8504 11.0077C16.453 11.967 15.7801 12.787 14.9168 13.3639C14.0534 13.9407 13.0384 14.2486 12 14.2486C10.6081 14.2472 9.27359 13.6936 8.28934 12.7093C7.3051 11.7251 6.7515 10.3906 6.75001 8.99864Z" fill="#0D1632"/>
</svg>
