<svg width="16" height="16" viewBox="0 0 16 16" fill="none" xmlns="http://www.w3.org/2000/svg">
<path d="M6 7.99967C6 8.92014 5.2538 9.66634 4.33333 9.66634C3.41286 9.66634 2.66666 8.92014 2.66666 7.99967C2.66666 7.07921 3.41286 6.33301 4.33333 6.33301C5.2538 6.33301 6 7.07921 6 7.99967Z" stroke="white" stroke-width="1.5"/>
<path d="M9.33333 4.33301L6 6.66634" stroke="white" stroke-width="1.5" stroke-linecap="round"/>
<path d="M9.33333 11.6663L6 9.33301" stroke="white" stroke-width="1.5" stroke-linecap="round"/>
<path d="M12.6667 12.3337C12.6667 13.2541 11.9205 14.0003 11 14.0003C10.0795 14.0003 9.33334 13.2541 9.33334 12.3337C9.33334 11.4132 10.0795 10.667 11 10.667C11.9205 10.667 12.6667 11.4132 12.6667 12.3337Z" stroke="white" stroke-width="1.5"/>
<path d="M12.6667 3.66667C12.6667 4.58714 11.9205 5.33333 11 5.33333C10.0795 5.33333 9.33334 4.58714 9.33334 3.66667C9.33334 2.74619 10.0795 2 11 2C11.9205 2 12.6667 2.74619 12.6667 3.66667Z" stroke="white" stroke-width="1.5"/>
</svg>
