<svg width="25" height="25" viewBox="0 0 25 25" fill="none" xmlns="http://www.w3.org/2000/svg">
<path d="M16.6364 2.25H7.63635C7.03962 2.25 6.46732 2.48705 6.04536 2.90901C5.62341 3.33097 5.38635 3.90326 5.38635 4.5V21C5.38635 21.5967 5.62341 22.169 6.04536 22.591C6.46732 23.0129 7.03962 23.25 7.63635 23.25H16.6364C17.2331 23.25 17.8054 23.0129 18.2273 22.591C18.6493 22.169 18.8864 21.5967 18.8864 21V4.5C18.8864 3.90326 18.6493 3.33097 18.2273 2.90901C17.8054 2.48705 17.2331 2.25 16.6364 2.25ZM17.3864 21C17.3864 21.1989 17.3073 21.3897 17.1667 21.5303C17.026 21.671 16.8353 21.75 16.6364 21.75H7.63635C7.43744 21.75 7.24667 21.671 7.10602 21.5303C6.96537 21.3897 6.88635 21.1989 6.88635 21V4.5C6.88635 4.30109 6.96537 4.11032 7.10602 3.96967C7.24667 3.82902 7.43744 3.75 7.63635 3.75H16.6364C16.8353 3.75 17.026 3.82902 17.1667 3.96967C17.3073 4.11032 17.3864 4.30109 17.3864 4.5V21ZM15.8864 6C15.8864 6.19891 15.8073 6.38968 15.6667 6.53033C15.526 6.67098 15.3353 6.75 15.1364 6.75H9.13635C8.93744 6.75 8.74667 6.67098 8.60602 6.53033C8.46537 6.38968 8.38635 6.19891 8.38635 6C8.38635 5.80109 8.46537 5.61032 8.60602 5.46967C8.74667 5.32902 8.93744 5.25 9.13635 5.25H15.1364C15.3353 5.25 15.526 5.32902 15.6667 5.46967C15.8073 5.61032 15.8864 5.80109 15.8864 6Z" fill="#2538E8"/>
</svg>
