<svg width="22" height="22" viewBox="0 0 22 22" fill="none" xmlns="http://www.w3.org/2000/svg">
<path d="M11 0.4375C8.91094 0.4375 6.86879 1.05698 5.13179 2.2176C3.3948 3.37822 2.04098 5.02786 1.24153 6.95791C0.442077 8.88795 0.232904 11.0117 0.64046 13.0606C1.04802 15.1096 2.054 16.9916 3.53119 18.4688C5.00838 19.946 6.89044 20.952 8.93936 21.3595C10.9883 21.7671 13.1121 21.5579 15.0421 20.7585C16.9721 19.959 18.6218 18.6052 19.7824 16.8682C20.943 15.1312 21.5625 13.0891 21.5625 11C21.5595 8.19956 20.4458 5.51466 18.4656 3.53445C16.4853 1.55424 13.8004 0.440457 11 0.4375ZM11 19.9375C9.23233 19.9375 7.50436 19.4133 6.0346 18.4313C4.56483 17.4492 3.41929 16.0533 2.74283 14.4202C2.06637 12.7871 1.88938 10.9901 2.23424 9.25638C2.57909 7.52268 3.43031 5.93016 4.68024 4.68023C5.93017 3.4303 7.52268 2.57909 9.25638 2.23423C10.9901 1.88938 12.7871 2.06637 14.4202 2.74283C16.0534 3.41928 17.4492 4.56483 18.4313 6.03459C19.4133 7.50435 19.9375 9.23233 19.9375 11C19.9348 13.3695 18.9923 15.6413 17.3168 17.3168C15.6413 18.9923 13.3696 19.9348 11 19.9375ZM11 5.3125C10.1966 5.31267 9.41137 5.55103 8.74345 5.99743C8.07554 6.44384 7.55497 7.07825 7.24756 7.82047C6.94015 8.56268 6.8597 9.37938 7.01638 10.1673C7.17306 10.9552 7.55984 11.679 8.12782 12.2472L7.02485 15.0178C6.95124 15.2026 6.92399 15.4027 6.94549 15.6004C6.96699 15.7982 7.03657 15.9877 7.14817 16.1524C7.25977 16.3171 7.40999 16.452 7.58571 16.5453C7.76143 16.6385 7.95731 16.6874 8.15625 16.6875H13.8438C14.0427 16.6874 14.2386 16.6385 14.4143 16.5453C14.59 16.452 14.7402 16.3171 14.8518 16.1524C14.9634 15.9877 15.033 15.7982 15.0545 15.6004C15.076 15.4027 15.0488 15.2026 14.9752 15.0178L13.8722 12.2472C14.4402 11.679 14.8269 10.9552 14.9836 10.1673C15.1403 9.37938 15.0599 8.56268 14.7524 7.82047C14.445 7.07825 13.9245 6.44384 13.2566 5.99743C12.5886 5.55103 11.8034 5.31267 11 5.3125ZM12.1487 12.3102L13.2445 15.0625H8.75547L9.85133 12.3102C9.91825 12.1422 9.92721 11.9567 9.87681 11.783C9.8264 11.6093 9.71951 11.4575 9.57305 11.3514C9.15523 11.0497 8.84379 10.6233 8.68346 10.1336C8.52313 9.64377 8.52217 9.11577 8.68071 8.62541C8.83924 8.13504 9.14912 7.70754 9.56584 7.40431C9.98255 7.10109 10.4846 6.93775 11 6.93775C11.5154 6.93775 12.0175 7.10109 12.4342 7.40431C12.8509 7.70754 13.1608 8.13504 13.3193 8.62541C13.4778 9.11577 13.4769 9.64377 13.3165 10.1336C13.1562 10.6233 12.8448 11.0497 12.427 11.3514C12.2805 11.4575 12.1736 11.6093 12.1232 11.783C12.0728 11.9567 12.0818 12.1422 12.1487 12.3102Z" fill="white"/>
</svg>
