<svg width="25" height="24" viewBox="0 0 25 24" fill="none" xmlns="http://www.w3.org/2000/svg">
<g id="GearSix">
<path id="Vector" d="M12.1 7.49998C11.21 7.49998 10.34 7.7639 9.59997 8.25837C8.85994 8.75284 8.28317 9.45564 7.94257 10.2779C7.60198 11.1002 7.51286 12.005 7.6865 12.8779C7.86013 13.7508 8.28871 14.5526 8.91805 15.182C9.54739 15.8113 10.3492 16.2399 11.2221 16.4135C12.095 16.5871 12.9998 16.498 13.8221 16.1574C14.6444 15.8168 15.3472 15.2401 15.8416 14.5C16.3361 13.76 16.6 12.89 16.6 12C16.5988 10.8069 16.1243 9.66302 15.2806 8.81937C14.437 7.97573 13.2931 7.50122 12.1 7.49998ZM12.1 15C11.5067 15 10.9267 14.824 10.4333 14.4944C9.93997 14.1647 9.55546 13.6962 9.32839 13.148C9.10133 12.5999 9.04192 11.9967 9.15768 11.4147C9.27343 10.8328 9.55915 10.2982 9.97871 9.87866C10.3983 9.4591 10.9328 9.17338 11.5148 9.05763C12.0967 8.94187 12.6999 9.00128 13.2481 9.22834C13.7963 9.45541 14.2648 9.83992 14.5944 10.3333C14.9241 10.8266 15.1 11.4066 15.1 12C15.1 12.7956 14.784 13.5587 14.2214 14.1213C13.6587 14.6839 12.8957 15 12.1 15ZM22.4069 10.0509C22.386 9.94531 22.3426 9.84543 22.2797 9.75807C22.2168 9.67072 22.1358 9.59793 22.0422 9.54467L19.2457 7.95092L19.2344 4.79904C19.2341 4.6905 19.2102 4.58331 19.1644 4.4849C19.1186 4.38649 19.0519 4.29919 18.9691 4.22904C17.9547 3.37095 16.7864 2.71336 15.5266 2.29123C15.4274 2.25765 15.3222 2.24522 15.2179 2.25475C15.1136 2.26428 15.0125 2.29555 14.921 2.34654L12.1 3.92342L9.27628 2.34373C9.18474 2.29245 9.08345 2.26094 8.97897 2.25125C8.87449 2.24156 8.76913 2.2539 8.66972 2.28748C7.4108 2.71269 6.24393 3.37279 5.23097 4.23279C5.14825 4.30284 5.0817 4.38999 5.0359 4.48823C4.9901 4.58647 4.96613 4.69347 4.96566 4.80186L4.95159 7.95654L2.15503 9.55029C2.06147 9.60356 1.98047 9.67634 1.91755 9.7637C1.85462 9.85105 1.81123 9.95093 1.79034 10.0565C1.5344 11.3427 1.5344 12.6667 1.79034 13.9528C1.81123 14.0584 1.85462 14.1583 1.91755 14.2456C1.98047 14.333 2.06147 14.4058 2.15503 14.459L4.95159 16.0528L4.96284 19.2047C4.96318 19.3132 4.98708 19.4204 5.03289 19.5188C5.0787 19.6172 5.14532 19.7045 5.22816 19.7747C6.2426 20.6328 7.4108 21.2904 8.67066 21.7125C8.76987 21.7461 8.87502 21.7585 8.97933 21.749C9.08364 21.7394 9.18479 21.7082 9.27628 21.6572L12.1 20.0765L14.9238 21.6562C15.0355 21.7185 15.1615 21.7508 15.2894 21.75C15.3713 21.75 15.4527 21.7367 15.5303 21.7106C16.7891 21.286 17.956 20.6265 18.9691 19.7672C19.0518 19.6971 19.1184 19.61 19.1642 19.5117C19.21 19.4135 19.2339 19.3065 19.2344 19.1981L19.2485 16.0434L22.045 14.4497C22.1386 14.3964 22.2196 14.3236 22.2825 14.2363C22.3454 14.1489 22.3888 14.049 22.4097 13.9434C22.6642 12.6583 22.6633 11.3357 22.4069 10.0509ZM21.0007 13.3237L18.3222 14.8472C18.2049 14.9139 18.1077 15.0111 18.041 15.1284C17.9866 15.2222 17.9294 15.3215 17.8713 15.4153C17.7969 15.5335 17.7572 15.6703 17.7569 15.81L17.7428 18.8334C17.0229 19.3988 16.2209 19.8509 15.3644 20.174L12.6625 18.6684C12.5504 18.6064 12.4242 18.5741 12.296 18.5747H12.2782C12.1647 18.5747 12.0503 18.5747 11.9369 18.5747C11.8027 18.5713 11.6701 18.6037 11.5525 18.6684L8.84878 20.1778C7.99051 19.8571 7.18624 19.4072 6.46378 18.8437L6.45347 15.825C6.45301 15.685 6.41339 15.548 6.33909 15.4294C6.28097 15.3356 6.22378 15.2419 6.17034 15.1425C6.10409 15.0233 6.00693 14.9242 5.88909 14.8556L3.20784 13.3284C3.06909 12.4507 3.06909 11.5567 3.20784 10.679L5.88159 9.15279C5.99895 9.08607 6.09612 8.9889 6.16284 8.87154C6.21722 8.77779 6.27441 8.67842 6.33253 8.58467C6.40694 8.46644 6.44657 8.32967 6.44691 8.18998L6.46097 5.16654C7.1809 4.60118 7.98296 4.14909 8.83941 3.82592L11.5375 5.33154C11.655 5.39663 11.7877 5.42901 11.9219 5.42529C12.0353 5.42529 12.1497 5.42529 12.2632 5.42529C12.3973 5.42865 12.53 5.39629 12.6475 5.33154L15.3513 3.82217C16.2096 4.14286 17.0138 4.59274 17.7363 5.15623L17.7466 8.17498C17.7471 8.31495 17.7867 8.45199 17.861 8.57061C17.9191 8.66436 17.9763 8.75811 18.0297 8.85748C18.096 8.97665 18.1931 9.07575 18.311 9.14436L20.9922 10.6715C21.1328 11.5499 21.1344 12.4449 20.9969 13.3237H21.0007Z" fill="#848797"/>
</g>
</svg>
