<svg width="285" height="131" viewBox="0 0 285 131" fill="none" xmlns="http://www.w3.org/2000/svg">
<g clip-path="url(#clip0_10_2333)">
<mask id="mask0_10_2333" style="mask-type:luminance" maskUnits="userSpaceOnUse" x="0" y="0" width="285" height="131">
<path d="M284.38 0H0V130.84H284.38V0Z" fill="white"/>
</mask>
<g mask="url(#mask0_10_2333)">
<path d="M284.38 65.43V79.55C284.38 86.19 280.9 90.84 274.59 92.83C266.34 95.41 258.11 98.07 249.88 100.7L212.01 112.81L176.45 124.24C169.29 126.53 162.15 128.94 154.65 129.95C142.265 131.774 129.631 130.839 117.65 127.21C104.04 122.99 90.4899 118.55 76.9099 114.21L28.0899 98.62C21.7599 96.62 15.4199 94.62 9.08993 92.52C6.41866 91.6892 4.09277 90.0068 2.46762 87.7297C0.842462 85.4527 0.00738842 82.7063 0.0899317 79.91C0.043265 70.25 0.043265 60.5833 0.0899317 50.91C0.0899317 44.64 3.63993 40 9.61993 38.09C23.1199 33.7767 36.6165 29.4433 50.1099 25.09C67.2899 19.59 84.4599 14.09 101.65 8.61001C108.86 6.33001 115.96 3.68 123.36 2.03C133.487 -0.240412 143.94 -0.670599 154.22 0.759999C161.104 1.89748 167.873 3.64092 174.45 5.96999C185.45 9.52999 196.45 12.97 207.45 16.53C218.45 20.09 229.51 23.62 240.55 27.14C252.057 30.8267 263.573 34.4933 275.1 38.14C277.853 38.9325 280.262 40.6229 281.944 42.9423C283.625 45.2618 284.483 48.077 284.38 50.94V65.43ZM280.17 65.43V52.14C280.267 49.318 279.405 46.5463 277.725 44.2765C276.046 42.0067 273.647 40.3725 270.92 39.64L264.01 37.53L222.45 24.73C207.12 20.01 191.77 15.34 176.45 10.57C167.23 7.7 158.03 4.88001 148.29 4.30001C140.933 3.82773 133.546 4.24744 126.29 5.55001C118.29 6.99001 110.66 9.79 102.9 12.14C88.8199 16.4 74.7699 20.77 60.7099 25.14C44.8565 30.02 29.0099 34.9 13.1699 39.78C10.5749 40.5451 8.3024 42.1398 6.70035 44.3198C5.09829 46.4999 4.25509 49.145 4.29992 51.85V78.85C4.29992 84.61 7.29993 89.05 12.7399 90.94C16.9399 92.4 21.2199 93.62 25.4699 94.94L74.3399 109.94C87.8799 114.11 101.45 118.19 114.97 122.44C125.642 125.889 136.867 127.3 148.06 126.6C156.021 125.955 163.877 124.361 171.46 121.85C184.11 117.85 196.79 114.05 209.46 110.15C222.453 106.15 235.453 102.15 248.46 98.15C256 95.82 263.57 93.57 271.09 91.15C277.09 89.24 280.2 84.72 280.2 78.48L280.17 65.43Z" fill="#2A2733"/>
<path d="M278.93 65.41V78.78C279.013 81.2781 278.256 83.7319 276.78 85.7494C275.305 87.7669 273.196 89.2317 270.79 89.91L237.55 100.14C220.403 105.42 203.247 110.693 186.08 115.96C178.29 118.34 170.58 120.96 162.69 122.96C151.344 125.782 139.537 126.228 128.01 124.27C120.6 123.07 113.54 120.55 106.39 118.35C90.8898 113.603 75.3964 108.843 59.9098 104.07C46.6898 100.01 33.4698 95.9367 20.2498 91.85C18.0998 91.19 15.9498 90.56 13.8098 89.85C11.3836 89.1694 9.25564 87.6953 7.76562 85.6633C6.27559 83.6312 5.50955 81.1585 5.5898 78.64V52.22C5.47926 49.6571 6.24795 47.1333 7.76845 45.0672C9.28896 43.0011 11.4699 41.5166 13.9498 40.86C25.1498 37.39 36.3598 33.98 47.5598 30.53L96.8898 15.37C105.51 12.73 114.03 9.76003 122.79 7.62003C131.377 5.55668 140.239 4.88147 149.04 5.62003C156.905 6.39403 164.658 8.05455 172.15 10.57C190.76 16.34 209.45 22.01 228.03 27.74C241.05 31.74 254.073 35.74 267.1 39.74C269.212 40.2159 271.259 40.941 273.2 41.9C274.954 42.8385 276.416 44.2421 277.425 45.9567C278.434 47.6713 278.951 49.6308 278.92 51.62C278.98 56.25 278.93 60.83 278.93 65.41ZM240.47 43.41L240.15 43.6C239.951 43.6507 239.766 43.7428 239.606 43.8704C239.445 43.9979 239.314 44.158 239.22 44.34C238.451 45.0154 237.927 45.926 237.73 46.93C237.13 46.83 237.07 47.28 236.95 47.68C235.73 48.34 235.58 48.82 236.22 49.97C236.61 50.2 236.27 50.81 236.76 50.97C237.9 52.35 237.46 53.97 237.46 55.51C237.46 61.99 237.46 68.51 237.46 74.93C237.46 76.93 237.81 79.05 236.22 80.74C236.088 80.8036 235.972 80.8976 235.883 81.0142C235.795 81.1309 235.734 81.2669 235.708 81.4113C235.682 81.5556 235.69 81.7041 235.732 81.8447C235.774 81.9852 235.849 82.1138 235.95 82.22C236.673 83.0348 237.341 83.8967 237.95 84.8C239.25 86.96 240.95 88.28 243.6 88.23C244.752 88.2532 245.885 87.9352 246.856 87.3159C247.828 86.6967 248.595 85.8039 249.06 84.75C249.235 84.4221 249.454 84.1194 249.71 83.85C251.33 82.07 251.44 81.57 250.49 79.79C250.2 79.25 249.67 78.95 249.67 78.15C249.72 69.66 249.67 61.15 249.67 52.67C249.637 52.4341 249.664 52.1937 249.75 51.9715C249.836 51.7492 249.977 51.5525 250.16 51.4C250.409 51.1694 250.609 50.8912 250.749 50.5819C250.889 50.2725 250.965 49.9384 250.974 49.599C250.982 49.2597 250.922 48.9221 250.798 48.6063C250.674 48.2904 250.487 48.0026 250.25 47.76C249.773 47.2477 249.354 46.6843 249 46.08C248.409 44.7795 247.373 43.7327 246.079 43.1278C244.784 42.5229 243.317 42.3995 241.94 42.78C241.392 42.8064 240.868 43.0139 240.45 43.37L240.47 43.41ZM35.1498 48.25C34.9011 48.4652 34.744 48.7672 34.7105 49.0943C34.6771 49.4214 34.7698 49.749 34.9698 50.01C35.4998 50.42 35.0398 51.39 35.5398 51.54C36.4798 51.82 36.2198 52.45 36.2198 53.01C36.2198 60.7 36.1698 68.39 36.2198 76.08C36.3134 77.7956 35.8619 79.4967 34.9298 80.94C34.7767 81.0223 34.6478 81.1431 34.5557 81.2904C34.4635 81.4377 34.4113 81.6065 34.4043 81.7801C34.3972 81.9537 34.4355 82.1261 34.5154 82.2804C34.5952 82.4347 34.7139 82.5655 34.8598 82.66L36.0098 83.66C36.1698 84.22 36.6398 84.57 36.9098 85.08C37.3976 86.1022 38.1731 86.9598 39.1411 87.5478C40.1092 88.1357 41.2278 88.4284 42.3598 88.39C43.4928 88.421 44.6101 88.1205 45.5747 87.5254C46.5393 86.9303 47.3092 86.0665 47.7898 85.04C48.1859 84.2798 48.7219 83.6013 49.3698 83.04C49.5351 82.933 49.6759 82.7921 49.7827 82.6265C49.8894 82.461 49.9598 82.2747 49.9891 82.0799C50.0184 81.8851 50.006 81.6863 49.9527 81.4967C49.8994 81.3071 49.8063 81.131 49.6798 80.98C48.7761 79.571 48.3453 77.9106 48.4498 76.24C48.5498 69.71 48.4498 63.17 48.4498 56.63C48.4498 54.27 48.0898 51.86 49.7998 49.79C49.8925 49.6611 49.9573 49.5143 49.99 49.3589C50.0227 49.2035 50.0226 49.043 49.9896 48.8876C49.9567 48.7323 49.8916 48.5855 49.7987 48.4568C49.7057 48.328 49.5869 48.2202 49.4498 48.14C48.8587 47.6952 48.3737 47.1249 48.0298 46.47C45.8898 42.92 43.6698 42 39.8098 43.17C39.5098 43.17 39.2898 43.17 39.2598 43.55C38.9798 43.71 38.5898 43.76 38.4998 44.16C37.3098 44.7 37.0398 45.95 36.3798 46.91C36.2828 46.9032 36.1868 46.932 36.1095 46.9909C36.0322 47.0498 35.979 47.1348 35.9598 47.23L35.6998 47.83L35.1498 48.25ZM154 27.25C154.592 27.0617 155.225 27.0376 155.83 27.18C156.951 27.3305 158.088 27.0798 159.042 26.4722C159.995 25.8646 160.703 24.9393 161.04 23.86C161.57 22.21 160.73 20.46 159.04 20.42C157.35 20.38 155.88 19.42 154.26 19.07C155.011 17.2381 155.239 15.2339 154.92 13.28C154.72 11.55 154.44 9.78001 152.92 8.57001C152.56 8.28001 152.01 7.88001 151.59 8.38001C151.17 8.88001 151.68 9.26001 152.07 9.57001C153.86 10.99 153.85 12.14 152.07 13.57C151.18 14.1035 150.328 14.6983 149.52 15.35C147.96 16.97 147.78 19.89 149.46 20.88C150.92 21.75 150.75 22.74 150.29 23.88C149.514 25.9403 148.846 28.0398 148.29 30.17C148.248 30.5037 148.084 30.8101 147.83 31.03C146.953 31.7466 146.32 32.7181 146.02 33.81C143.94 39.41 142.34 45.18 140.4 50.81C140.27 51.16 140.22 51.5 140.59 51.67C141.15 51.91 141.29 51.42 141.48 51.06C143.09 47.96 144.77 44.9 146.27 41.76C147.77 38.62 150.17 35.54 150.67 31.76C150.67 31.44 151.08 31.16 151.3 30.86C152.343 29.75 153.244 28.5137 153.98 27.18L154 27.25ZM139.85 42.45L140 41.96C140.716 39.5741 141.284 37.1461 141.7 34.69C142.84 29.71 143.977 24.73 145.11 19.75C145.21 19.33 145.34 18.89 144.94 18.61C144.608 18.3606 144.227 18.1829 143.823 18.0883C143.418 17.9936 142.998 17.984 142.59 18.06C142.197 18.1358 141.837 18.3312 141.56 18.6194C141.282 18.9076 141.101 19.2746 141.04 19.67C139.893 24.73 138.747 29.7934 137.6 34.86C137.42 35.64 137.45 36.5 138.15 36.86C139.6 37.68 139.26 38.86 138.94 39.98C138.518 41.3094 137.838 42.5428 136.94 43.61C133.917 39.2538 131.242 34.6662 128.94 29.89C127.249 26.3226 125.751 22.6674 124.45 18.94C124.24 18.37 124 17.94 123.29 18.18C121.64 18.68 121.19 19.39 121.54 21.11C121.72 22.04 121.93 22.98 122.2 23.89C124.7 32.31 129.43 39.42 135.2 45.89C135.479 46.1375 135.696 46.4479 135.832 46.7957C135.967 47.1435 136.018 47.5187 135.98 47.89C135.863 48.8003 135.927 49.7248 136.17 50.61C136.31 51.07 136.4 51.75 137.05 51.61C137.7 51.47 137.39 50.82 137.35 50.38C137.29 49.6 136.83 48.56 137.44 48.1C138.44 47.32 139.09 46.64 138.86 45.24C138.76 44.69 139.31 44.03 139.57 43.42L139.68 43.14L139.81 42.66L139.85 42.45ZM147.06 88.45C146.83 87.97 146.69 87.63 146.52 87.32C144.65 83.98 142.79 80.64 140.88 77.32C140.49 76.64 140.45 76.32 141.2 75.89C146.04 72.89 145.94 66.06 143.95 62.89C142.32 60.28 139.7 59.38 136.89 58.98C130.89 58.11 124.94 58.76 118.97 59.25C118.24 59.31 118.11 59.66 118.11 60.25C118.11 69.29 118.11 78.3267 118.11 87.36C118.11 88.17 118.35 88.42 119.18 88.41C122.42 88.3567 125.667 88.3567 128.92 88.41C129.81 88.41 130.04 88.14 130.03 87.28C130.03 83.2 130.03 79.12 130.03 75.04C130.03 71.16 130.03 67.29 130.03 63.42C130.03 62.42 130.4 62.1 131.34 62.14C132.58 62.21 133.34 62.91 133.53 64.56C133.735 66.635 133.735 68.7251 133.53 70.8C133.552 71.3308 133.381 71.8517 133.048 72.2656C132.715 72.6795 132.243 72.9583 131.72 73.05C130.84 73.18 130.72 73.56 130.97 74.31C132.3 78.77 133.59 83.24 134.91 87.7C135.01 88.05 135.07 88.4 135.61 88.4C139.35 88.36 143.12 88.37 147.06 88.37V88.45ZM227.5 88.45C227.25 87.93 227.11 87.59 226.93 87.28C225.09 84.02 223.24 80.77 221.43 77.5C221.19 77.08 220.56 76.56 221.43 76.05C224.79 74.05 225.79 70.89 225.62 67.21C225.45 63.53 223.75 60.93 220.17 59.67C218.671 59.1606 217.11 58.8512 215.53 58.75C210.168 58.4387 204.79 58.5692 199.45 59.14C198.68 59.21 198.51 59.54 198.51 60.26C198.51 69.2933 198.51 78.33 198.51 87.37C198.51 88.14 198.74 88.37 199.51 88.37C202.76 88.37 206.01 88.32 209.26 88.37C210.26 88.37 210.51 88.12 210.51 87.13C210.51 79.3 210.51 71.47 210.51 63.64C210.51 63.13 210.14 62.38 211.01 62.18C211.387 62.0487 211.793 62.0279 212.181 62.12C212.569 62.2122 212.923 62.4134 213.2 62.7C213.511 63.0422 213.719 63.4651 213.8 63.92C214.198 66.3017 214.222 68.731 213.87 71.12C213.862 71.5669 213.697 71.9967 213.405 72.3347C213.113 72.6727 212.711 72.8975 212.27 72.97C211.27 73.09 211.21 73.56 211.46 74.38C212.793 78.8 214.08 83.2267 215.32 87.66C215.339 87.7718 215.381 87.8787 215.441 87.9745C215.502 88.0703 215.581 88.1531 215.674 88.2182C215.767 88.2833 215.872 88.3293 215.983 88.3536C216.094 88.378 216.208 88.3801 216.32 88.36C219.95 88.36 223.62 88.37 227.5 88.37V88.45ZM168.25 71.63L169.48 71.07C170.589 70.6173 171.528 69.8292 172.166 68.816C172.805 67.8029 173.11 66.6154 173.04 65.42C173.076 64.2043 172.728 63.0081 172.046 62.0011C171.364 60.9941 170.382 60.2275 169.24 59.81C168.285 59.3853 167.275 59.0958 166.24 58.95C160.38 58.19 154.54 58.78 148.69 59.18C147.87 59.24 148.01 59.69 148.01 60.18C148.01 69.18 148.01 78.26 148.01 87.29C148.01 88.21 148.36 88.37 149.15 88.42C153.47 88.73 157.79 88.96 162.15 88.84C165.114 88.8495 168.048 88.2362 170.76 87.04C175.85 84.65 177.32 78.17 173.61 74.33C172.112 72.9297 170.258 71.968 168.25 71.55V71.63ZM80.3698 71.63C81.1098 71.23 81.8098 70.94 82.4198 70.53C83.2672 69.9473 83.9545 69.1608 84.4182 68.2428C84.8819 67.3248 85.1072 66.3049 85.0733 65.277C85.0395 64.2491 84.7475 63.2462 84.2244 62.3607C83.7013 61.4753 82.9637 60.7357 82.0798 60.21C80.9129 59.56 79.6339 59.1359 78.3098 58.96C72.6698 58.19 67.0398 58.8 61.3998 59.1C60.1598 59.16 59.9698 59.63 59.9798 60.74C60.0331 69.52 60.0331 78.3 59.9798 87.08C59.9798 88.02 60.2098 88.36 61.1998 88.43C65.5098 88.71 69.8298 88.95 74.1998 88.83C77.1626 88.8564 80.095 88.2317 82.7898 87C85.8598 85.51 87.6298 83.16 87.5998 79.64C87.6697 78.0666 87.2281 76.5128 86.3412 75.2113C85.4543 73.9098 84.1697 72.9305 82.6798 72.42C81.9098 72.05 81.1598 71.82 80.3698 71.55V71.63ZM102.09 58.82C100.22 58.82 98.3498 58.82 96.4798 58.82C95.6098 58.82 95.1598 58.98 94.9398 59.95C94.3298 62.53 93.5698 65.08 92.8698 67.64C91.0798 74.21 89.3098 80.78 87.4998 87.34C87.2598 88.2 87.3498 88.53 88.3398 88.48C89.7898 88.4 91.2498 88.42 92.7098 88.48C93.4098 88.48 93.7098 88.31 93.8698 87.57C94.1998 85.86 94.6598 84.17 94.9998 82.46C95.1198 81.84 95.3998 81.66 95.9998 81.67C97.8298 81.67 99.6698 81.67 101.49 81.67C102.25 81.67 102.49 81.92 102.58 82.67C102.9 84.38 103.4 86.06 103.75 87.77C103.87 88.34 104.1 88.52 104.66 88.51C108.2 88.51 111.73 88.51 115.27 88.51C116 88.51 116.1 88.27 115.94 87.62C113.6 78.2867 111.267 68.98 108.94 59.7C108.9 59.4413 108.761 59.2084 108.551 59.0513C108.342 58.8943 108.079 58.8256 107.82 58.86C105.92 58.77 104.01 58.74 102.09 58.74V58.82ZM177.77 73.61C177.77 78.1 177.77 82.61 177.77 87.09C177.77 88.14 177.95 88.5 179.11 88.48C184.11 88.4 189.11 88.48 194.11 88.48C197.11 88.48 197.11 88.48 197.29 85.48C197.36 84.55 197.06 84.36 196.21 84.38C194.38 84.44 192.55 84.38 190.72 84.38C189.95 84.38 189.72 84.14 189.72 83.38C189.72 81.51 189.72 79.63 189.72 77.76C189.72 75.35 189.72 75.35 192.13 75.35C195.45 75.35 195.43 75.35 195.29 72.04C195.29 71.37 195.03 71.19 194.41 71.21C193.2 71.21 191.99 71.21 190.79 71.21C190.02 71.21 189.68 71.08 189.7 70.21C189.76 68.09 189.7 65.97 189.7 63.85C189.7 63.16 189.85 62.85 190.59 62.91C191.59 62.97 192.67 62.91 193.71 62.91C196.78 62.91 196.71 62.91 196.71 59.82C196.71 58.98 196.42 58.77 195.63 58.82C190.01 58.82 184.39 58.82 178.77 58.82C177.92 58.82 177.77 59.11 177.77 59.89C177.79 64.37 177.77 68.95 177.77 73.53V73.61ZM225.19 48.14V43.28C225.19 42.85 225.19 42.42 224.68 42.28C224.594 42.24 224.501 42.2186 224.406 42.2174C224.311 42.2162 224.217 42.2351 224.13 42.2729C224.043 42.3107 223.965 42.3666 223.901 42.4367C223.837 42.5069 223.789 42.5899 223.76 42.68C223.59 43.11 223.34 42.94 223.06 42.83C221.314 42.2615 219.452 42.1479 217.65 42.5C217.284 42.5107 216.923 42.5965 216.591 42.7519C216.259 42.9074 215.963 43.1293 215.72 43.4039C215.477 43.6785 215.294 44 215.18 44.3485C215.066 44.697 215.026 45.0651 215.06 45.43C215.06 46.3 215.06 47.18 215.06 48.05C215.029 48.4152 215.072 48.7829 215.187 49.1308C215.302 49.4787 215.487 49.7994 215.73 50.0736C215.974 50.3477 216.27 50.5694 216.602 50.7253C216.934 50.8811 217.294 50.9678 217.66 50.98C219.351 51.1947 221.059 51.245 222.76 51.13C223.56 51.13 223.76 51.4 223.71 52.13C223.66 52.86 223.83 53.49 222.71 53.46C221.05 53.4 219.38 53.46 217.71 53.46C216.96 53.46 216.38 53.38 216.44 52.46C216.44 52.02 216.2 51.77 215.74 51.77C215.28 51.77 215.06 52.11 215 52.57C214.916 52.8753 214.908 53.1967 214.977 53.5058C215.046 53.8148 215.191 54.1021 215.397 54.3422C215.604 54.5824 215.866 54.768 216.161 54.8827C216.457 54.9974 216.775 55.0377 217.09 55C219 55 220.92 55 222.83 55C224.74 55 225.1 54.51 225.13 52.7C225.21 51.14 225.19 49.62 225.19 48.14ZM185.96 47.35H185.87C185.87 46.19 185.93 45.02 185.87 43.87C185.871 43.659 185.828 43.4501 185.743 43.2567C185.659 43.0632 185.535 42.8895 185.38 42.7465C185.225 42.6035 185.041 42.4944 184.842 42.4261C184.642 42.3579 184.43 42.332 184.22 42.35C182.516 42.2467 180.807 42.2835 179.11 42.46C178.854 42.4507 178.599 42.4924 178.359 42.5827C178.119 42.673 177.9 42.8101 177.714 42.986C177.528 43.1619 177.379 43.3731 177.275 43.6073C177.171 43.8415 177.115 44.0939 177.11 44.35C177.11 44.79 177.11 45.22 177.66 45.35C177.759 45.3845 177.865 45.3953 177.969 45.3814C178.073 45.3675 178.173 45.3293 178.259 45.27C178.346 45.2106 178.417 45.1317 178.468 45.0396C178.518 44.9476 178.546 44.845 178.55 44.74C178.555 44.6248 178.583 44.5118 178.632 44.4075C178.681 44.3032 178.751 44.2098 178.836 44.1326C178.922 44.0553 179.022 43.9959 179.131 43.9577C179.24 43.9195 179.355 43.9033 179.47 43.91C180.8 43.86 182.13 43.82 183.47 43.8C183.597 43.7749 183.728 43.7796 183.854 43.8137C183.979 43.8478 184.094 43.9104 184.191 43.9966C184.288 44.0828 184.363 44.1903 184.412 44.3106C184.46 44.4309 184.48 44.5607 184.47 44.69C184.47 45.48 183.84 45.2 183.47 45.21C181.932 45.1118 180.388 45.2672 178.9 45.67C177.59 46.15 176.98 47.37 177.17 49.03C177.18 49.5802 177.404 50.1047 177.794 50.4929C178.184 50.881 178.71 51.1023 179.26 51.11C180.795 51.2937 182.352 51.1366 183.82 50.65C184.12 50.52 184.39 50.23 184.55 50.81C184.577 50.8905 184.62 50.9646 184.676 51.0281C184.732 51.0916 184.8 51.1431 184.877 51.1795C184.954 51.2159 185.037 51.2365 185.121 51.24C185.206 51.2435 185.291 51.2299 185.37 51.2C185.555 51.1554 185.718 51.0463 185.83 50.8924C185.942 50.7384 185.995 50.5497 185.98 50.36C185.97 49.33 185.96 48.33 185.96 47.33V47.35ZM157.1 51.14C157.97 51.14 158.85 51.14 159.72 51.14C159.927 51.1243 160.132 51.084 160.33 51.02C161.86 50.67 162.41 49.88 162.27 48.21C162.274 47.8962 162.212 47.585 162.089 47.2964C161.965 47.0079 161.783 46.7484 161.553 46.5346C161.323 46.3208 161.051 46.1575 160.754 46.0551C160.458 45.9527 160.143 45.9135 159.83 45.94C158.46 45.94 157.08 45.94 155.71 45.94C154.96 45.94 154.26 45.94 154.21 44.94C154.16 43.94 154.89 43.87 155.63 43.86H159.37C160.14 43.86 160.8 43.92 160.8 44.96C160.795 45.0659 160.815 45.1715 160.856 45.269C160.898 45.3665 160.961 45.4535 161.04 45.5235C161.12 45.5935 161.214 45.6448 161.316 45.6736C161.418 45.7024 161.526 45.708 161.63 45.69C162.12 45.63 162.23 45.21 162.26 44.75C162.329 44.4591 162.328 44.156 162.257 43.8655C162.187 43.5751 162.048 43.3055 161.853 43.0791C161.657 42.8526 161.411 42.6757 161.134 42.5629C160.858 42.4501 160.558 42.4045 160.26 42.43C158.56 42.38 156.85 42.37 155.15 42.43C153.21 42.55 152.62 43.26 152.7 45.11C152.76 46.64 153.57 47.37 155.35 47.41C156.72 47.41 158.09 47.41 159.47 47.41C160.28 47.41 160.71 47.73 160.73 48.58C160.75 49.43 160.19 49.68 159.44 49.68C158.19 49.68 156.94 49.68 155.69 49.68C154.86 49.68 154.07 49.74 154.11 48.52C154.106 48.4241 154.081 48.3301 154.038 48.2444C153.994 48.1586 153.933 48.083 153.859 48.0226C153.784 47.9621 153.697 47.9181 153.605 47.8936C153.512 47.869 153.415 47.8644 153.32 47.88C152.88 47.88 152.74 48.22 152.69 48.65C152.5 50.34 153.19 51.14 154.94 51.17C155.68 51.14 156.39 51.14 157.1 51.14ZM81.2598 47.08C81.3097 45.9814 81.2628 44.8804 81.1198 43.79C80.9998 43.14 80.7198 42.53 79.9998 42.46C77.9787 42.1813 75.9259 42.2286 73.9198 42.6C73.6814 42.6379 73.4534 42.7242 73.2496 42.8535C73.0459 42.9829 72.8707 43.1525 72.7349 43.352C72.5991 43.5515 72.5055 43.7766 72.4599 44.0136C72.4143 44.2506 72.4177 44.4944 72.4698 44.73C72.5498 45.1 72.7098 45.35 73.1098 45.38C73.5098 45.41 73.7798 45.31 73.7998 45C73.8898 43.73 74.8698 43.9 75.6498 43.85C76.4298 43.8 77.4798 43.78 78.3998 43.8C78.9898 43.8 79.7598 43.67 79.7198 44.66C79.6798 45.65 78.9198 45.2 78.4798 45.21C76.9807 45.1216 75.4778 45.2976 74.0398 45.73C72.7698 46.23 72.2798 47.45 72.4998 49.17C72.5062 49.4335 72.5647 49.6932 72.6719 49.9341C72.7791 50.1749 72.9328 50.3922 73.1243 50.5734C73.3157 50.7546 73.5411 50.8962 73.7874 50.99C74.0338 51.0838 74.2963 51.128 74.5598 51.12C76.0506 51.3148 77.5663 51.1642 78.9898 50.68C79.3398 50.54 79.6598 50.3 79.8798 50.86C79.9122 50.9376 79.9601 51.0078 80.0205 51.0663C80.0809 51.1248 80.1525 51.1704 80.2311 51.2003C80.3097 51.2302 80.3935 51.2439 80.4775 51.2404C80.5615 51.2369 80.6439 51.2164 80.7198 51.18C80.8946 51.109 81.0413 50.9823 81.137 50.8197C81.2328 50.6571 81.2724 50.4674 81.2498 50.28C81.2698 49.32 81.2598 48.4 81.2598 47.04V47.08ZM166.16 43.08V40.14C166.16 39.59 166.16 38.96 165.44 38.92C164.72 38.88 164.69 39.53 164.69 40.06C164.69 43.39 164.69 46.71 164.69 50.06C164.69 50.6 164.69 51.24 165.45 51.21C166.21 51.18 166.15 50.53 166.15 50C166.15 48.79 166.15 47.58 166.15 46.38C166.141 45.7453 166.38 45.1321 166.814 44.6695C167.249 44.2069 167.846 43.9311 168.48 43.9C169.427 43.79 170.383 43.79 171.33 43.9C172.86 44.02 173.23 44.38 173.25 45.9C173.27 47.42 173.25 48.81 173.25 50.27C173.25 50.84 173.45 51.27 174.08 51.27C174.71 51.27 174.75 50.75 174.75 50.27C174.75 48.74 174.75 47.2 174.75 45.66C174.75 43.6 173.81 42.66 171.75 42.46C169.871 42.1447 167.942 42.3345 166.16 43.01V43.08ZM61.4998 43.08V40.14C61.4998 39.58 61.4998 38.97 60.7298 38.93C59.9598 38.89 59.9998 39.56 59.9998 40.09V50.09C59.9998 50.61 59.9998 51.19 60.6598 51.21C61.3198 51.23 61.4998 50.68 61.4998 50.08C61.4998 48.88 61.4998 47.67 61.4998 46.47C61.464 45.8361 61.6788 45.2135 62.0978 44.7365C62.5168 44.2595 63.1065 43.9662 63.7398 43.92C64.686 43.7684 65.6489 43.7516 66.5998 43.87C68.2398 44.05 68.5998 44.39 68.6698 46.03C68.6698 47.41 68.6698 48.78 68.6698 50.15C68.6698 50.67 68.6698 51.22 69.3798 51.22C70.0898 51.22 70.1098 50.75 70.1098 50.22C70.1098 48.55 70.1698 46.89 70.1098 45.22C70.1182 44.8413 70.0491 44.465 69.9069 44.114C69.7646 43.7629 69.5521 43.4447 69.2824 43.1787C69.0127 42.9128 68.6915 42.7048 68.3386 42.5674C67.9856 42.4301 67.6083 42.3663 67.2298 42.38C65.3003 42.0708 63.3233 42.2778 61.4998 42.98V43.08ZM100.5 42.41V42.35C99.5898 42.41 98.6698 42.42 97.7698 42.54C97.4124 42.5527 97.0613 42.6368 96.7369 42.7873C96.4126 42.9377 96.1216 43.1516 95.8812 43.4163C95.6408 43.6809 95.4558 43.991 95.337 44.3282C95.2183 44.6655 95.1682 45.0231 95.1898 45.38C95.1898 46.29 95.1898 47.21 95.1898 48.12C95.157 48.4754 95.1962 48.8336 95.3053 49.1734C95.4143 49.5132 95.5909 49.8275 95.8244 50.0974C96.0578 50.3673 96.3434 50.5872 96.6639 50.744C96.9845 50.9008 97.3334 50.9913 97.6898 51.01C99.3819 51.2513 101.096 51.3083 102.8 51.18C103.103 51.1798 103.403 51.1105 103.675 50.9775C103.948 50.8445 104.187 50.6512 104.374 50.4123C104.561 50.1734 104.691 49.895 104.754 49.5984C104.818 49.3017 104.813 48.9945 104.74 48.7C104.69 48.29 104.56 47.95 104.1 47.93C103.64 47.91 103.27 48.15 103.28 48.66C103.28 49.66 102.7 49.72 101.96 49.66H99.9598C96.8298 49.66 96.6998 49.52 96.6998 46.47C96.6998 46.18 96.6998 45.88 96.6998 45.59C96.6666 45.3714 96.6839 45.148 96.7503 44.937C96.8168 44.7261 96.9306 44.5331 97.0831 44.3729C97.2355 44.2127 97.4227 44.0895 97.6301 44.0128C97.8375 43.936 98.0597 43.9077 98.2798 43.93C99.4898 43.87 100.69 43.86 101.9 43.82C102.69 43.82 103.31 43.93 103.29 44.94C103.284 45.0362 103.298 45.1326 103.333 45.2225C103.368 45.3124 103.422 45.3935 103.492 45.4603C103.561 45.527 103.645 45.5777 103.736 45.6087C103.827 45.6398 103.924 45.6505 104.02 45.64C104.46 45.64 104.65 45.32 104.73 44.92C104.812 44.6288 104.827 44.3228 104.773 44.0251C104.72 43.7274 104.599 43.4456 104.421 43.2011C104.243 42.9566 104.012 42.7557 103.745 42.6134C103.478 42.4712 103.182 42.3914 102.88 42.38C102.08 42.26 101.28 42.31 100.45 42.31L100.5 42.41ZM202.59 46.73C202.59 47.89 202.59 49.06 202.59 50.22C202.59 50.75 202.59 51.28 203.32 51.3C204.05 51.32 204.1 50.81 204.1 50.3C204.1 49.17 204.1 48.05 204.1 46.93C204.15 45.01 204.89 44.24 206.77 43.93C207.721 43.8351 208.679 43.8351 209.63 43.93C209.86 43.9126 210.092 43.9471 210.307 44.0312C210.522 44.1153 210.716 44.2467 210.873 44.4157C211.031 44.5848 211.148 44.7871 211.217 45.0077C211.285 45.2282 211.304 45.4614 211.27 45.69C211.27 47.19 211.27 48.69 211.27 50.19C211.27 50.74 211.35 51.19 212.02 51.25C212.69 51.31 212.77 50.74 212.76 50.25C212.76 48.67 212.76 47.09 212.76 45.51C212.835 44.8348 212.645 44.1569 212.232 43.6182C211.818 43.0795 211.212 42.7218 210.54 42.62C208.669 42.1806 206.715 42.2496 204.88 42.82C204.5 42.96 204.22 43.14 203.97 42.63C203.894 42.4773 203.763 42.3598 203.602 42.302C203.442 42.2442 203.266 42.2507 203.11 42.32C202.67 42.46 202.61 42.83 202.62 43.22L202.59 46.73ZM117.21 46.73C117.21 45.61 117.21 44.49 117.21 43.36C117.21 42.87 117.21 42.31 116.47 42.27C115.73 42.23 115.66 42.85 115.64 43.39C115.64 44.59 115.64 45.8 115.64 47.01C115.67 47.6422 115.452 48.2611 115.031 48.734C114.61 49.2069 114.021 49.4963 113.39 49.54C112.284 49.72 111.156 49.72 110.05 49.54C109.831 49.5437 109.613 49.4986 109.414 49.408C109.214 49.3173 109.037 49.1834 108.895 49.0159C108.753 48.8484 108.651 48.6516 108.595 48.4395C108.538 48.2275 108.53 48.0057 108.57 47.79C108.57 46.26 108.57 44.72 108.57 43.18C108.57 42.69 108.39 42.26 107.78 42.26C107.17 42.26 107.03 42.7 107.04 43.2C107.04 44.9 107.04 46.61 107.09 48.31C107.072 48.9665 107.305 49.6051 107.742 50.0956C108.179 50.5861 108.786 50.8917 109.44 50.95C111.275 51.3596 113.185 51.2803 114.98 50.72C115.24 50.63 115.58 50.24 115.79 50.79C115.815 50.8812 115.86 50.966 115.92 51.0387C115.981 51.1115 116.056 51.1706 116.141 51.2122C116.226 51.2538 116.319 51.2768 116.414 51.2799C116.508 51.283 116.602 51.266 116.69 51.23C117.18 51.08 117.23 50.63 117.24 50.23C117.21 48.98 117.19 47.82 117.2 46.65L117.21 46.73ZM192.15 49.44C191.15 47.14 190.29 45.08 189.4 43.03C189.15 42.47 188.92 41.7 188.11 42.03C187.3 42.36 187.76 43.03 187.99 43.56C188.9 45.74 189.85 47.9 190.72 50.1C191 50.79 191.27 51.17 192.12 51.18C192.97 51.19 193.27 50.77 193.52 50.09C193.77 49.41 194.13 48.73 194.43 48.09C195.15 46.45 195.87 44.82 196.58 43.18C196.78 42.72 196.81 42.26 196.26 42.03C195.71 41.8 195.46 42.1 195.26 42.5C195.06 42.9 194.97 43.1 194.84 43.4C193.95 45.25 193.1 47.14 192.14 49.36L192.15 49.44ZM123.59 51.14C124.14 51.14 124.94 51.31 125.02 50.42C125.1 49.53 124.24 49.69 123.68 49.64C121.68 49.48 121.44 49.22 121.44 47.19V46.07C121.44 43.92 121.44 43.91 123.61 43.8C124.09 43.8 124.61 43.8 124.61 43.16C124.61 42.52 124.14 42.3 123.61 42.35C122.23 42.46 121.04 42.42 121.35 40.47C121.41 40.14 121.15 39.85 120.75 39.78C120.61 39.7335 120.458 39.7392 120.322 39.7962C120.186 39.8532 120.075 39.9576 120.01 40.09C119.59 41.09 120.01 42.3 119.32 43.24C120.25 44.52 119.73 45.97 119.79 47.34C119.92 49.92 120.92 51.01 123.59 51.14ZM87.8398 46.67C87.8398 47.83 87.8398 49 87.8398 50.16C87.8398 50.7 87.9898 51.22 88.6198 51.24C89.2498 51.26 89.4298 50.75 89.4398 50.24C89.4398 49.53 89.4398 48.82 89.4398 48.12C89.4398 44.39 89.4398 44.38 93.0898 43.83C93.5598 43.76 93.9098 43.6 93.8898 43.08C93.8698 42.56 93.4898 42.39 93.0298 42.38C92.036 42.2788 91.0324 42.4124 90.0998 42.77C89.8198 42.91 89.5198 43.2 89.2898 42.68C89.2548 42.5931 89.2027 42.5141 89.1367 42.4477C89.0706 42.3812 88.9919 42.3288 88.9051 42.2933C88.8184 42.2579 88.7255 42.2402 88.6318 42.2414C88.5381 42.2425 88.4456 42.2625 88.3598 42.3C87.8798 42.46 87.8398 42.91 87.8298 43.3C87.8298 44.38 87.8398 45.51 87.8398 46.63V46.67ZM198.46 46.67C198.46 47.92 198.46 49.17 198.46 50.41C198.46 50.93 198.46 51.48 199.19 51.49C199.92 51.5 199.98 50.98 199.99 50.49C199.99 47.99 199.99 45.49 199.99 43C199.99 42.47 199.83 41.94 199.17 42C198.51 42.06 198.47 42.59 198.47 43.11C198.45 44.24 198.45 45.44 198.45 46.65L198.46 46.67ZM85.2698 46.78V43.03C85.2698 42.5 85.2698 41.95 84.5698 41.93C83.8698 41.91 83.7698 42.4 83.7798 42.93V50.42C83.7798 50.97 83.8698 51.48 84.5498 51.42C85.2298 51.36 85.2798 50.88 85.2798 50.34C85.2698 49.14 85.2698 47.96 85.2698 46.76V46.78ZM84.4898 40.78C85.1498 40.78 85.7098 40.51 85.7398 39.78C85.7698 39.05 85.1398 38.78 84.5598 38.78C83.9798 38.78 83.3498 39.03 83.3398 39.78C83.3298 40.53 83.8598 40.68 84.4498 40.73L84.4898 40.78ZM199.15 40.78C199.83 40.78 200.37 40.53 200.42 39.83C200.47 39.13 199.86 38.83 199.27 38.78C199.122 38.7465 198.968 38.7473 198.82 38.7823C198.671 38.8173 198.533 38.8856 198.416 38.9821C198.298 39.0785 198.204 39.2005 198.141 39.3387C198.077 39.477 198.046 39.628 198.05 39.78C198.02 40.39 198.52 40.69 199.15 40.73V40.78Z" fill="#2A2733"/>
<path d="M146.99 88.37C143.06 88.37 139.29 88.37 135.51 88.37C134.97 88.37 134.91 88.02 134.81 87.67C133.5 83.21 132.2 78.74 130.88 74.28C130.65 73.53 130.74 73.15 131.62 73.02C132.143 72.9283 132.615 72.6495 132.948 72.2356C133.281 71.8216 133.453 71.3008 133.43 70.77C133.64 68.6953 133.64 66.6047 133.43 64.53C133.24 62.88 132.49 62.18 131.24 62.11C130.31 62.11 129.92 62.35 129.93 63.39C129.99 67.26 129.93 71.13 129.93 75.01C129.93 79.09 129.93 83.17 129.93 87.25C129.93 88.11 129.71 88.39 128.82 88.38C125.573 88.3267 122.323 88.3267 119.07 88.38C118.24 88.38 118 88.14 118.01 87.33C118.01 78.29 118.01 69.2533 118.01 60.22C118.01 59.58 118.15 59.22 118.88 59.22C124.88 58.73 130.82 58.08 136.8 58.95C139.61 59.35 142.23 60.25 143.86 62.86C145.86 66.03 145.95 72.86 141.1 75.86C140.36 76.32 140.39 76.61 140.79 77.29C142.7 80.6 144.55 83.94 146.42 87.29C146.63 87.55 146.76 87.89 146.99 88.37Z" fill="#3A3A39"/>
<path d="M233 38H55V99H233V38Z" fill="#2A2733"/>
<path d="M236.17 80.64C237.76 78.95 237.4 76.85 237.4 74.83C237.4 68.36 237.4 61.89 237.4 55.41C237.4 53.88 237.84 52.25 236.7 50.88L242.9 49.88C241.126 49.5706 239.314 49.5403 237.53 49.79C236.91 49.91 236.53 50.15 236.73 50.87C236.23 50.71 236.57 50.1 236.19 49.87L236.96 49.45C240.19 48.45 243.58 48.53 246.87 47.89C243.56 47.89 240.25 47.53 236.95 48.09V47.58C237.06 47.18 237.13 46.73 237.72 46.83C237.72 47.12 237.92 47.15 238.14 47.15H247.25C247.205 47.0751 247.142 47.0122 247.067 46.967C246.992 46.9217 246.907 46.8953 246.82 46.89C244.609 46.5485 242.361 46.5115 240.14 46.78C239.33 46.88 238.51 46.38 237.71 46.86C237.904 45.8571 238.424 44.9464 239.19 44.27C239.46 44.86 239.71 44.54 239.96 44.27C240.08 44.15 240.3 44.11 240.24 43.87C240.96 44.01 242.43 43.16 241.79 45.1C241.65 45.5 242.21 45.55 242.51 45.49C243.14 45.36 243.75 45.08 243.74 44.33C243.74 43.2 242.87 43.1 242.01 43.03V42.63C243.388 42.2469 244.858 42.3688 246.155 42.9739C247.451 43.579 248.488 44.6274 249.08 45.93C249.434 46.5318 249.849 47.0948 250.32 47.61C250.558 47.852 250.745 48.1392 250.87 48.4547C250.995 48.7702 251.056 49.1076 251.048 49.4469C251.041 49.7862 250.966 50.1206 250.827 50.4303C250.688 50.74 250.488 51.0187 250.24 51.25C250.054 51.4002 249.91 51.5962 249.822 51.8189C249.734 52.0415 249.706 52.2832 249.74 52.52C249.74 61.01 249.74 69.52 249.74 78C249.74 78.8 250.27 79.1 250.55 79.64C251.5 81.42 251.4 81.92 249.78 83.7C249.521 83.9668 249.302 84.27 249.13 84.6C248.666 85.6805 247.888 86.5961 246.896 87.2276C245.904 87.8591 244.745 88.177 243.57 88.14C240.95 88.19 239.22 86.87 237.92 84.71C237.308 83.809 236.64 82.9473 235.92 82.13C238.179 81.6149 240.466 81.2343 242.77 80.99C243.912 81.0095 245.049 80.8302 246.13 80.46C242.811 80.2438 239.479 80.304 236.17 80.64ZM237.42 79.64C237.22 79.64 236.95 79.71 237.02 79.91C237.09 80.11 237.3 79.91 237.45 79.91L245.66 79.86C246.321 79.9836 246.999 79.9836 247.66 79.86C247.005 79.7082 246.329 79.6676 245.66 79.74C244.351 79.428 243.004 79.3035 241.66 79.37C240.25 79.14 238.79 78.9 237.45 79.61L237.42 79.64ZM247.92 56.11C247.183 56.7812 246.324 57.3041 245.39 57.65C243.85 58.26 242.31 58.86 240.78 59.48C240.32 59.67 239.85 59.89 239.78 60.48C239.69 61.74 239.59 63.01 239.48 64.48C241.67 63.21 243.94 62.66 246.02 61.67C246.85 61.28 247.82 60.95 248.12 59.89C248.63 59.89 248.69 59.53 248.69 59.13C248.69 57.96 248.69 56.79 248.69 55.48L247.92 56.11ZM238.59 74.77C240.89 73.08 243.47 72.49 245.83 71.43C246.46 71.15 247.24 70.98 247.33 70.12C247.46 68.82 247.55 67.51 247.67 66.04C246.295 66.9065 244.808 67.5795 243.25 68.04C242.062 68.4143 240.921 68.9243 239.85 69.56C239.3 69.87 238.61 70.15 238.6 70.96C238.58 72.14 238.59 73.35 238.59 74.74V74.77ZM240.59 54.77C242.8 53.62 245.19 53.26 247.04 51.67H243.65C240.93 51.65 240.93 51.65 240.55 54.75L240.59 54.77ZM246.28 75.92C244.28 76.79 242.18 77.23 240.37 78.55C241.58 78.69 242.77 78.55 243.93 78.72C245.33 78.88 246.03 78.33 246.2 77C246.2 76.66 246.45 76.37 246.24 75.9L246.28 75.92ZM245 82.46C242.672 82.2296 240.328 82.2296 238 82.46C237.64 82.46 237.19 82.6 237.25 83.1C237.31 83.6 237.7 83.5 238.03 83.42C240.16 82.87 242.45 82.84 244.96 82.44L245 82.46ZM239.1 51.73H238.71V55.85H239.09C239.192 54.4715 239.182 53.0869 239.06 51.71L239.1 51.73ZM248.69 65.33H248.55V69.27H248.69V65.33ZM238.69 64.83H238.85V60.83H238.69V64.83ZM248.62 74.83L248.48 74.72V78.49H248.62V74.83Z" fill="#F3F3F2"/>
<path d="M35.9999 83.65L34.8499 82.65C34.8499 82.38 35.0499 82.4 35.2599 82.33C38.4899 81.33 41.8599 81.25 45.1899 80.87C45.9401 80.9896 46.7085 80.8409 47.3599 80.45C46.6307 80.3735 45.8948 80.3903 45.1699 80.5C41.7472 80.3779 38.3203 80.5217 34.9199 80.93C35.8476 79.4848 36.2988 77.7851 36.2099 76.07C36.1099 68.38 36.2099 60.69 36.2099 53C36.2099 52.44 36.4599 51.81 35.5199 51.53C35.0299 51.38 35.5199 50.41 34.9599 50L35.2199 49.7C37.2199 49.39 39.1699 49.06 41.1499 48.78C42.9083 48.65 44.6558 48.3994 46.3799 48.03C43.0225 47.905 39.6607 47.965 36.3099 48.21C36.0799 48.15 35.8199 48.13 35.7199 47.86L35.9799 47.26C36.3655 47.4057 36.7812 47.4538 37.1899 47.4C40.1899 47.4 43.2799 47.4 46.3199 47.4C43.0606 46.7309 39.7164 46.579 36.4099 46.95C37.0599 45.95 37.3299 44.74 38.5299 44.2L38.7199 44.59C38.8399 44.47 39.1399 44.5 39.0599 44.2L39.8999 44.07C40.5199 43.97 40.8999 44.27 40.7999 44.88C40.4199 46.42 41.4699 45.67 41.9399 45.57C42.1557 45.4962 42.3398 45.3509 42.4617 45.1581C42.5835 44.9653 42.6358 44.7366 42.6099 44.51C42.6099 43.91 42.1899 43.69 41.7399 43.43C41.1299 43.08 40.4499 43.7 39.8799 43.21C43.7399 42.04 45.9699 42.96 48.0999 46.51C48.4329 47.1405 48.8925 47.6954 49.4499 48.14C49.5886 48.2185 49.7093 48.3251 49.8042 48.453C49.8992 48.581 49.9662 48.7274 50.0011 48.8829C50.036 49.0384 50.0378 49.1994 50.0066 49.3557C49.9754 49.5119 49.9118 49.6599 49.8199 49.79C48.1199 51.86 48.4799 54.27 48.4799 56.63C48.4799 63.17 48.5299 69.71 48.4799 76.24C48.3797 77.89 48.807 79.529 49.6999 80.92C49.8264 81.071 49.9195 81.2471 49.9728 81.4367C50.0261 81.6263 50.0386 81.8251 50.0092 82.0199C49.9799 82.2147 49.9095 82.401 49.8028 82.5665C49.696 82.7321 49.5553 82.873 49.3899 82.98C48.7451 83.5417 48.2124 84.2203 47.8199 84.98C47.3372 86.0049 46.5669 86.8673 45.6028 87.4621C44.6387 88.0569 43.5224 88.3585 42.3899 88.33C41.2577 88.3697 40.1385 88.0776 39.1702 87.4895C38.2019 86.9014 37.4267 86.043 36.9399 85.02C36.6599 84.51 36.1999 84.16 36.0299 83.6L44.0299 82.6C41.7026 82.3616 39.3571 82.3616 37.0299 82.6C36.4499 82.7 35.8499 82.8 35.9999 83.65ZM47.1899 59.65C47.1899 59.74 47.1899 59.89 47.3999 59.84C47.431 59.8148 47.4523 59.7794 47.4599 59.74C47.4599 58.51 47.4599 57.28 47.4599 56.05C47.4599 55.89 47.3799 55.71 47.1999 55.95C47.1437 56.057 47.1032 56.1715 47.0799 56.29C45.415 57.2898 43.6441 58.1015 41.7999 58.71C39.5399 59.27 38.0299 60.31 38.4199 62.96C38.4399 63.5335 38.393 64.1074 38.2799 64.67C39.241 64.1157 40.2441 63.6376 41.2799 63.24C42.8236 62.737 44.3223 62.1047 45.7599 61.35C46.1065 61.2044 46.4024 60.9597 46.6105 60.6466C46.8186 60.3335 46.9297 59.966 46.9299 59.59L47.1899 59.65ZM37.4999 74.72C38.4999 74.2 39.3799 73.72 40.2899 73.31C41.7799 72.68 43.2899 72.15 44.7899 71.52C45.3499 71.29 46.0799 71.1 46.1699 70.39C46.3399 69.06 46.3799 67.71 46.4899 66.18C45.1859 67.0193 43.7815 67.6912 42.3099 68.18C41.0474 68.5896 39.8283 69.1222 38.6699 69.77C38.1199 70.06 37.5699 70.46 37.5299 71.09C37.4499 72.26 37.4999 73.46 37.4999 74.74V74.72ZM45.8399 51.86H40.6399C40.3599 51.86 40.0599 51.8 39.9499 52.2C39.5986 53.0303 39.4413 53.9298 39.4899 54.83C41.6399 53.84 43.9299 53.38 45.8399 51.88V51.86ZM45.1499 75.99C43.1499 76.99 40.8999 77.29 38.8899 78.83H43.7099C44.1299 78.83 44.4599 78.75 44.5899 78.32C44.8933 77.5831 45.0822 76.8041 45.1499 76.01V75.99ZM43.1499 49.99V49.88C41.1499 49.88 39.1999 49.88 37.2199 49.88C36.8098 49.9096 36.4041 49.9833 36.0099 50.1C35.6499 50.18 35.5799 50.46 35.6399 50.78C35.7199 51.25 36.0099 51.04 36.2899 50.98C36.9799 50.83 37.6699 50.7 38.3699 50.61C39.9599 50.4 41.5699 50.2 43.1699 49.99H43.1499ZM36.3499 79.85H43.8599C41.3699 79.66 38.8599 78.98 36.3699 79.85H36.3499ZM37.5199 64.95H37.7399V61.03H37.5199V64.95ZM47.2399 69.54H47.3799V65.41H47.2399V69.54ZM47.3999 74.89H47.2599V78.69H47.3999V74.89ZM37.5099 55.89H37.6499V52.05H37.5099V55.89Z" fill="#F3F3F2"/>
<path d="M139.45 43.42C139.2 44.03 138.65 44.69 138.74 45.24C138.98 46.64 138.34 47.32 137.32 48.1C136.72 48.56 137.18 49.6 137.24 50.38C137.24 50.82 137.69 51.47 136.94 51.61C136.19 51.75 136.2 51.05 136.05 50.61C135.806 49.725 135.744 48.7995 135.87 47.89C135.906 47.5188 135.854 47.1445 135.718 46.7971C135.583 46.4497 135.368 46.139 135.09 45.89C129.31 39.41 124.57 32.3 122.09 23.89C121.82 22.98 121.62 22.04 121.43 21.11C121.09 19.39 121.53 18.68 123.18 18.18C123.9 17.96 124.13 18.37 124.34 18.94C125.672 22.6571 127.198 26.3021 128.91 29.86C131.216 34.6343 133.891 39.2215 136.91 43.58C137.812 42.5153 138.492 41.2812 138.91 39.95C139.24 38.79 139.58 37.65 138.13 36.83C137.43 36.44 137.4 35.58 137.58 34.83C138.72 29.77 139.863 24.7067 141.01 19.64C141.079 19.2478 141.263 18.8851 141.539 18.5983C141.815 18.3115 142.171 18.1136 142.56 18.03C142.97 17.9568 143.391 17.9677 143.797 18.0623C144.202 18.1568 144.585 18.333 144.92 18.58C145.32 18.86 145.19 19.3 145.09 19.72C143.943 24.7 142.807 29.68 141.68 34.66C140.94 34.66 140.93 35.16 140.99 35.66C140.73 35.73 140.72 35.93 140.72 36.14C140.368 36.4123 140.117 36.7942 140.006 37.2253C139.896 37.6564 139.932 38.112 140.11 38.52C139.93 39.6965 139.566 40.8372 139.03 41.9H139.95L139.81 42.39L139.73 42.66L139.6 43.14L139.45 43.42ZM138.86 42.72C138.304 43.3143 137.953 44.0715 137.86 44.88C138.172 44.6125 138.424 44.2815 138.598 43.909C138.772 43.5365 138.865 43.1311 138.87 42.72H138.86ZM128.86 31.26L128.61 31.06C128.61 31.15 128.51 31.26 128.54 31.32C128.57 31.38 128.71 31.43 128.79 31.48L128.86 31.26Z" fill="#F3F3F2"/>
<path d="M153.96 27.14C153.36 28.58 152.18 29.6 151.28 30.82C151.06 31.12 150.69 31.4 150.64 31.72C150.14 35.47 147.81 38.41 146.25 41.72C144.69 45.03 143.06 47.92 141.46 51.02C141.27 51.38 141.12 51.87 140.57 51.63C140.19 51.46 140.25 51.12 140.37 50.77C142.31 45.12 143.91 39.35 145.99 33.77C146.298 32.679 146.933 31.7086 147.81 30.99C148.061 30.7678 148.225 30.4625 148.27 30.13C148.822 27.9985 149.489 25.8987 150.27 23.84C150.72 22.68 150.9 21.69 149.43 20.84C147.76 19.84 147.93 16.93 149.5 15.31C150.306 14.6607 151.155 14.066 152.04 13.53C153.83 12.12 153.83 10.97 152.04 9.53003C151.65 9.22003 151.1 8.88003 151.55 8.34003C152 7.80003 152.55 8.24003 152.88 8.53003C154.36 9.74003 154.65 11.53 154.88 13.24C155.199 15.1939 154.971 17.1981 154.22 19.03C155.83 19.4 157.22 20.33 158.99 20.38C160.76 20.43 161.51 22.17 160.99 23.82C160.653 24.9012 159.943 25.8279 158.988 26.4357C158.032 27.0435 156.892 27.293 155.77 27.14C155.165 26.9981 154.533 27.0223 153.94 27.21C154.13 26.33 154.94 26.61 155.47 26.41C155.47 26.56 155.47 26.62 155.63 26.53L155.45 26.43V26.14C157.97 26.23 159.45 25.4 160 23.61C160.107 23.3475 160.148 23.0624 160.118 22.7804C160.089 22.4983 159.99 22.228 159.83 21.9934C159.671 21.7588 159.456 21.5673 159.205 21.4358C158.953 21.3044 158.674 21.2371 158.39 21.24C156.39 21.11 153.72 23.69 155.05 25.66C153.73 26.14 153.67 26.24 153.96 27.14ZM150.68 27.85C149.99 28.6482 149.576 29.6478 149.5 30.7C150.63 30.36 149.84 29.13 150.75 28.9C151.66 28.67 152.03 27.8 152.41 27.05C152.945 25.6637 153.337 24.2262 153.58 22.76C153.67 22.4 153.72 22.03 153.8 21.66C153.878 21.48 153.918 21.2861 153.918 21.09C153.918 20.894 153.878 20.7 153.8 20.52C152.28 22.92 150.8 25.14 150.68 27.88V27.85ZM153.96 17.01C153.96 15.7 153.16 14.79 152.08 14.81C150.68 14.81 149.36 16.58 149.4 18.34C149.4 19.65 150.09 20.44 151.18 20.45C152.59 20.49 154 18.76 153.96 17.04V17.01ZM148.96 33.26C149.05 32.55 148.46 32.42 148.05 32.31C147.64 32.2 147.52 32.66 147.52 32.99C147.499 33.1276 147.507 33.2681 147.543 33.4025C147.579 33.5369 147.643 33.6623 147.731 33.7705C147.818 33.8788 147.928 33.9676 148.051 34.0312C148.175 34.0948 148.311 34.1319 148.45 34.14C149.05 34.14 148.78 33.53 148.98 33.29L148.96 33.26ZM144.45 40.94C144.854 40.3502 145.077 39.6549 145.09 38.94C144.841 39.2047 144.655 39.5216 144.544 39.8676C144.433 40.2137 144.401 40.58 144.45 40.94ZM144.04 42.24C144.04 42.16 144.14 42.09 144.13 42.02C144.12 41.95 144.07 41.89 144.04 41.82C143.991 41.8812 143.956 41.9531 143.94 42.03C143.968 42.1108 144.016 42.1831 144.08 42.24H144.04ZM144.3 41.24V41.3H144.35L144.3 41.24Z" fill="#EBEAE9"/>
<path d="M45.1899 80.84C41.8599 81.22 38.4899 81.29 35.2599 82.3C35.0499 82.37 34.8599 82.3 34.8499 82.62C34.3199 82.03 34.2399 81.45 34.9199 80.9C38.3203 80.4917 41.7473 80.3479 45.1699 80.47L45.1899 80.84Z" fill="#4D4D4D"/>
<path d="M236.17 80.64C239.472 80.3018 242.797 80.2383 246.11 80.45C245.029 80.8202 243.892 80.9995 242.75 80.98C240.446 81.2309 238.158 81.6182 235.9 82.14C235.52 81.54 235.53 81.03 236.17 80.64Z" fill="#444444"/>
<path d="M36.3599 46.91C39.6664 46.539 43.0107 46.6908 46.2699 47.36C43.2699 47.36 40.1799 47.36 37.1399 47.36C36.7312 47.4138 36.3155 47.3657 35.9299 47.22C35.955 47.1267 36.0115 47.045 36.0898 46.9886C36.1681 46.9321 36.2635 46.9043 36.3599 46.91Z" fill="#7A7A7A"/>
<path d="M39.78 43.14C40.35 43.63 41.03 43.01 41.64 43.36C42.09 43.62 42.49 43.84 42.51 44.44C42.536 44.6666 42.4837 44.8953 42.3618 45.0881C42.24 45.2809 42.0558 45.4262 41.84 45.5C41.37 45.6 40.32 46.35 40.7 44.81C40.84 44.2 40.42 43.9 39.8 44L38.96 44.13L39.24 43.52C39.27 43.2 39.45 43.14 39.78 43.14Z" fill="#4D4D4D"/>
<path d="M139.93 41.9H139.01C139.546 40.8372 139.91 39.6965 140.09 38.52C140.354 38.1888 140.545 37.8055 140.65 37.3953C140.755 36.9851 140.772 36.5573 140.7 36.14C141.08 36.14 140.86 35.81 140.97 35.66C140.91 35.12 140.92 34.66 141.66 34.66C141.233 37.1066 140.655 39.5245 139.93 41.9Z" fill="#BBBBBB"/>
<path d="M236.91 47.61V48.12C236.15 48.75 236.16 49.12 236.91 49.48L236.14 49.9C235.54 48.75 235.69 48.27 236.91 47.61Z" fill="#BBBBBB"/>
<path d="M35.1699 49.67L34.9099 49.97C34.7064 49.7111 34.6105 49.3837 34.6422 49.0559C34.6738 48.7282 34.8306 48.4252 35.0799 48.21L35.3199 48.49L35.1699 49.67Z" fill="#BBBBBB"/>
<path d="M239.92 44.29C239.67 44.57 239.42 44.89 239.15 44.29C239.245 44.1087 239.377 43.9492 239.537 43.8218C239.697 43.6944 239.882 43.6018 240.08 43.55L240.21 43.66V43.91L239.92 44.29Z" fill="#BBBBBB"/>
<path d="M241.94 42.68V43.08L240.53 43.53C240.53 43.48 240.44 43.43 240.4 43.37C240.816 42.9656 241.361 42.7212 241.94 42.68Z" fill="#BBBBBB"/>
<path d="M35.6698 47.83C35.7698 48.1 36.0298 48.12 36.2598 48.18L35.3198 48.49L35.0798 48.21L35.6698 47.83Z" fill="#BBBBBB"/>
<path d="M39.24 43.55L38.9599 44.16H38.45C38.57 43.76 38.95 43.71 39.24 43.55Z" fill="#F3F3F2"/>
<path d="M240.08 43.56L240.41 43.37C240.41 43.43 240.5 43.48 240.54 43.53L240.21 43.67L240.08 43.56Z" fill="#BBBBBB"/>
<path d="M238.59 74.74C238.59 73.35 238.59 72.16 238.59 70.97C238.59 70.16 239.29 69.88 239.84 69.57C240.911 68.9343 242.052 68.4243 243.24 68.05C244.798 67.5895 246.285 66.9165 247.66 66.05C247.54 67.52 247.45 68.83 247.32 70.13C247.23 70.99 246.45 71.13 245.82 71.44C243.45 72.46 240.89 73.05 238.59 74.74Z" fill="#3D3D3D"/>
<path d="M248.14 59.89C247.84 60.95 246.87 61.28 246.04 61.67C243.96 62.67 241.69 63.21 239.5 64.48C239.61 62.99 239.71 61.72 239.8 60.48C239.8 59.88 240.32 59.66 240.8 59.48C242.33 58.86 243.87 58.26 245.41 57.65C246.344 57.3041 247.204 56.7812 247.94 56.11C248.39 56.44 248.12 56.94 248.22 57.35C248.45 58.19 247.83 59.03 248.14 59.89Z" fill="#696A69"/>
<path d="M240.55 54.75C240.93 51.65 240.93 51.65 243.65 51.65H247C245.15 53.24 242.76 53.6 240.55 54.75Z" fill="#444444"/>
<path d="M246.24 75.9C246.44 76.37 246.24 76.66 246.16 76.98C245.99 78.31 245.29 78.86 243.89 78.7C242.73 78.56 241.54 78.7 240.33 78.53C242.14 77.21 244.27 76.77 246.24 75.9Z" fill="#696A69"/>
<path d="M236.95 49.48C236.19 49.13 236.18 48.75 236.95 48.12C240.25 47.56 243.56 47.92 246.87 47.92C243.57 48.56 240.18 48.48 236.95 49.48Z" fill="#4D4D4D"/>
<path d="M245.66 79.79L237.45 79.84C237.46 79.7636 237.46 79.6863 237.45 79.61C238.82 78.9 240.28 79.17 241.7 79.26C243.044 79.1934 244.391 79.318 245.7 79.63C245.677 79.649 245.661 79.6747 245.654 79.7035C245.647 79.7322 245.649 79.7625 245.66 79.79Z" fill="#595858"/>
<path d="M240.21 43.67L240.54 43.53L241.95 43.08C242.81 43.15 243.68 43.25 243.68 44.38C243.68 45.13 243.08 45.38 242.45 45.54C242.15 45.6 241.59 45.54 241.73 45.15C242.37 43.21 240.9 44.06 240.18 43.92L240.21 43.67Z" fill="#4D4D4D"/>
<path d="M244.96 82.44C242.41 82.84 240.16 82.87 237.96 83.44C237.63 83.52 237.23 83.59 237.18 83.12C237.13 82.65 237.57 82.52 237.93 82.48C240.266 82.2343 242.621 82.2209 244.96 82.44Z" fill="#595858"/>
<path d="M236.72 50.9C236.5 50.18 236.9 49.9 237.52 49.82C239.304 49.5703 241.116 49.6006 242.89 49.91L236.69 50.91L236.72 50.9Z" fill="#4D4D4D"/>
<path d="M237.67 46.89C238.47 46.41 239.29 46.89 240.1 46.81C242.321 46.5415 244.569 46.5785 246.78 46.92C246.867 46.9253 246.952 46.9517 247.027 46.9969C247.102 47.0422 247.165 47.1051 247.21 47.18H238.1C237.88 47.18 237.68 47.18 237.68 46.86L237.67 46.89Z" fill="#7A7A7A"/>
<path d="M239.06 51.71C239.17 53.0745 239.17 54.4456 239.06 55.81H238.68V51.69L239.06 51.71Z" fill="#595858"/>
<path d="M248.14 59.89C247.83 59.03 248.43 58.19 248.2 57.32C248.1 56.91 248.37 56.41 247.92 56.08C248.13 55.91 248.35 55.75 248.71 55.48C248.71 56.79 248.71 57.96 248.71 59.13C248.71 59.53 248.65 59.87 248.14 59.89Z" fill="#BBBBBB"/>
<path d="M248.65 65.31V69.24H248.51V65.3L248.65 65.31Z" fill="#4D4D4D"/>
<path d="M238.77 65.64C238.836 65.64 238.89 64.3774 238.89 62.82C238.89 61.2626 238.836 60 238.77 60C238.704 60 238.65 61.2626 238.65 62.82C238.65 64.3774 238.704 65.64 238.77 65.64Z" fill="#696A69"/>
<path d="M248.62 74.85V78.51H248.45V74.74L248.62 74.85Z" fill="#7A7A7A"/>
<path d="M245.66 79.79C245.644 79.7665 245.635 79.7386 245.635 79.71C245.635 79.6814 245.644 79.6535 245.66 79.63C246.329 79.5576 247.005 79.5982 247.66 79.75C247.002 79.8868 246.323 79.9004 245.66 79.79Z" fill="#7A7A7A"/>
<path d="M237.45 79.61C237.46 79.6864 237.46 79.7637 237.45 79.84C237.3 79.84 237.11 80.17 237.02 79.84C236.93 79.51 237.22 79.61 237.45 79.61Z" fill="#7A7A7A"/>
<path d="M239.92 44.29L240.2 43.89C240.26 44.14 240.04 44.14 239.92 44.29Z" fill="#4D4D4D"/>
<path d="M37.5001 74.74C37.5001 73.46 37.4401 72.26 37.5001 71.07C37.5001 70.44 38.0901 70.07 38.6401 69.75C39.7985 69.1021 41.0177 68.5696 42.2801 68.16C43.7517 67.6711 45.1561 66.9992 46.4601 66.16C46.3501 67.69 46.3101 69.04 46.1401 70.37C46.0501 71.08 45.3201 71.27 44.7601 71.5C43.2701 72.13 41.7601 72.66 40.2601 73.29C39.3801 73.72 38.5301 74.22 37.5001 74.74Z" fill="#404040"/>
<path d="M46.9601 59.63C46.9599 60.006 46.8488 60.3735 46.6407 60.6866C46.4326 60.9997 46.1367 61.2444 45.7901 61.39C44.3525 62.1447 42.8539 62.777 41.3101 63.28C40.2743 63.6776 39.2712 64.1557 38.3101 64.71C38.4232 64.1474 38.4702 63.5735 38.4501 63C38.0601 60.35 39.5701 59.31 41.8301 58.75C43.6743 58.1414 45.4452 57.3298 47.1101 56.33C46.9454 57.4218 46.8951 58.5278 46.9601 59.63Z" fill="#696A69"/>
<path d="M45.8398 51.88C43.9298 53.38 41.6398 53.88 39.4898 54.88C39.4412 53.9798 39.5985 53.0803 39.9498 52.25C40.0598 51.85 40.3598 51.91 40.6398 51.91L45.8398 51.88Z" fill="#404040"/>
<path d="M35.3199 48.49L36.2599 48.18C39.6107 47.935 42.9725 47.8749 46.3299 48C44.6058 48.3694 42.8583 48.62 41.0999 48.75C39.0999 49.03 37.0999 49.36 35.1699 49.67L35.3199 48.49Z" fill="#595858"/>
<path d="M45.1499 76.01C45.0842 76.8109 44.8953 77.5968 44.5899 78.34C44.4599 78.77 44.1299 78.86 43.7099 78.85H38.8899C40.8999 77.31 43.1099 77.05 45.1499 76.01Z" fill="#696A69"/>
<path d="M36 83.65C35.85 82.8 36.44 82.7 37 82.65C39.3272 82.4116 41.6728 82.4116 44 82.65L36 83.65Z" fill="#595858"/>
<path d="M43.17 49.99C41.57 50.2 39.96 50.4 38.37 50.62C37.67 50.71 36.98 50.84 36.29 50.99C36.01 51.05 35.72 51.26 35.64 50.79C35.58 50.47 35.64 50.19 36.01 50.11C36.4042 49.9933 36.8099 49.9196 37.22 49.89C39.22 49.89 41.17 49.89 43.15 49.89L43.17 49.99Z" fill="#4D4D4D"/>
<path d="M36.3699 79.85C38.8599 78.98 41.3699 79.66 43.8799 79.85H36.3699Z" fill="#4D4D4D"/>
<path d="M37.54 64.95V61H37.76V64.92L37.54 64.95Z" fill="#929292"/>
<path d="M47.26 69.54V65.41H47.4V69.54H47.26Z" fill="#696A69"/>
<path d="M47.0898 56.31C47.1132 56.1915 47.1536 56.0769 47.2098 55.97C47.3898 55.73 47.4698 55.91 47.4698 56.07C47.4698 57.3 47.4698 58.53 47.4698 59.76C47.4622 59.7993 47.441 59.8348 47.4098 59.86C47.2398 59.86 47.2398 59.76 47.1998 59.67C47.2983 58.5496 47.2613 57.4215 47.0898 56.31Z" fill="#929292"/>
<path d="M47.4501 74.89V78.66H47.3101V74.86L47.4501 74.89Z" fill="#7A7A7A"/>
<path d="M37.53 55.92V52.08H37.67V55.92H37.53Z" fill="#595858"/>
<path d="M45.1899 80.84V80.47C45.9148 80.3603 46.6507 80.3435 47.3799 80.42C46.7229 80.8156 45.9466 80.9645 45.1899 80.84Z" fill="#929292"/>
<path d="M47.0899 56.31C47.2581 57.4219 47.2916 58.55 47.1899 59.67H46.9599C46.885 58.5688 46.9252 57.4628 47.0799 56.37L47.0899 56.31Z" fill="#BBBBBB"/>
<path d="M38.45 44.14H38.9799C39.0599 44.44 38.7599 44.41 38.6399 44.53L38.45 44.14Z" fill="#4D4D4D"/>
<path d="M140.7 36.14C140.772 36.5573 140.755 36.9851 140.65 37.3953C140.545 37.8055 140.354 38.1888 140.09 38.52C139.912 38.112 139.876 37.6564 139.986 37.2253C140.097 36.7942 140.348 36.4123 140.7 36.14Z" fill="#595858"/>
<path d="M138.87 42.72C138.866 43.1304 138.775 43.5353 138.603 43.9077C138.43 44.2802 138.18 44.6116 137.87 44.88C137.963 44.0715 138.314 43.3143 138.87 42.72Z" fill="#595858"/>
<path d="M128.89 31.26L128.82 31.48C128.74 31.48 128.61 31.4 128.57 31.32C128.53 31.24 128.57 31.15 128.64 31.06L128.89 31.26Z" fill="#EBEAE9"/>
<path d="M140.95 35.67C140.84 35.82 141.06 36.15 140.68 36.15C140.68 35.94 140.69 35.74 140.95 35.67Z" fill="#595858"/>
<path d="M155.04 25.67C153.71 23.67 156.39 21.12 158.38 21.25C158.664 21.2471 158.944 21.3143 159.195 21.4458C159.446 21.5772 159.661 21.7688 159.82 22.0034C159.98 22.238 160.079 22.5083 160.108 22.7904C160.138 23.0724 160.097 23.3574 159.99 23.62C159.45 25.41 157.99 26.24 155.44 26.15C155.52 25.89 155.31 25.88 155.16 25.81L155.04 25.67Z" fill="#2A2733"/>
<path d="M153.96 17.04C153.96 18.76 152.59 20.49 151.18 20.48C150.09 20.48 149.42 19.68 149.4 18.37C149.4 16.61 150.68 14.88 152.08 14.84C153.16 14.82 153.94 15.73 153.96 17.04Z" fill="#2A2733"/>
<path d="M150.68 27.88C150.8 25.1 152.28 22.88 153.8 20.55C153.878 20.73 153.918 20.924 153.918 21.12C153.918 21.316 153.878 21.51 153.8 21.69C153.72 22.06 153.67 22.43 153.58 22.79C153.337 24.2561 152.945 25.6936 152.41 27.08C152.03 27.83 151.69 28.66 150.75 28.93L150.68 27.88Z" fill="#2A2733"/>
<path d="M148.98 33.29C148.78 33.53 149.05 34.14 148.48 34.1C148.347 34.0924 148.216 34.0583 148.097 33.9996C147.977 33.9409 147.87 33.8588 147.782 33.7581C147.695 33.6575 147.628 33.5403 147.587 33.4136C147.545 33.2868 147.529 33.153 147.54 33.02C147.54 32.69 147.72 32.25 148.07 32.34C148.42 32.43 149.07 32.58 148.98 33.29Z" fill="#2A2733"/>
<path d="M150.68 27.88L150.75 28.93C149.84 29.16 150.63 30.39 149.5 30.73C149.576 29.6778 149.99 28.6782 150.68 27.88Z" fill="#696A69"/>
<path d="M155.04 25.67L155.19 25.83L155.47 26.17V26.43C154.93 26.63 154.13 26.35 153.94 27.23C153.67 26.24 153.73 26.14 155.04 25.67Z" fill="#696A69"/>
<path d="M144.45 40.94C144.401 40.58 144.433 40.2137 144.544 39.8676C144.655 39.5216 144.841 39.2047 145.09 38.94C145.077 39.6549 144.854 40.3502 144.45 40.94Z" fill="#BBBBBB"/>
<path d="M144.08 42.24C144.031 42.1789 143.996 42.1069 143.98 42.03C143.996 41.9531 144.031 41.8812 144.08 41.82C144.08 41.89 144.17 41.96 144.17 42.02C144.17 42.08 144.12 42.14 144.08 42.24Z" fill="#BBBBBB"/>
<path d="M144.33 41.23L144.35 41.3L144.29 41.29L144.33 41.23Z" fill="#BBBBBB"/>
<path d="M155.45 26.41L155.63 26.51C155.48 26.6 155.44 26.51 155.47 26.39L155.45 26.41Z" fill="#696A69"/>
<path d="M155.45 26.14L155.17 25.8C155.34 25.9 155.55 25.91 155.45 26.14Z" fill="#EBEAE9"/>
<path d="M91.3719 86.984L73.2839 72.658V83.83H65.1899V56.014L83.2779 70.302V57.8H91.3719V86.984ZM126.199 83.83H116.851L115.559 81.588H103.817L102.487 83.83H93.1769L100.245 71.594C100.625 70.9353 100.954 70.188 101.233 69.352C101.537 68.4907 101.752 67.6167 101.879 66.73C101.904 66.4767 101.917 66.236 101.917 66.008C101.942 65.78 101.955 65.552 101.955 65.324C101.955 63.9813 101.638 62.7653 101.005 61.676C100.372 60.5867 99.2442 59.9027 97.6229 59.624C97.4962 59.5987 97.3569 59.586 97.2049 59.586C97.0782 59.5607 96.9516 59.548 96.8249 59.548C96.7742 59.548 96.7109 59.548 96.6349 59.548C96.5842 59.548 96.5209 59.548 96.4449 59.548C96.2169 59.5987 95.9762 59.662 95.7229 59.738C95.4949 59.814 95.2796 59.928 95.0769 60.08C94.7982 60.308 94.5576 60.612 94.3549 60.992C94.1776 61.372 94.0762 61.7773 94.0509 62.208C94.0256 62.2587 94.0129 62.322 94.0129 62.398C94.0129 62.4487 94.0129 62.4993 94.0129 62.55C94.0129 63.0567 94.1396 63.5127 94.3929 63.918C94.6716 64.3233 95.1149 64.5513 95.7229 64.602C96.0016 64.6274 96.2169 64.564 96.3689 64.412C96.5209 64.2347 96.5969 64.032 96.5969 63.804C96.5969 63.7533 96.5842 63.7027 96.5589 63.652C96.5589 63.576 96.5462 63.5 96.5209 63.424C96.5209 63.3733 96.4956 63.3227 96.4449 63.272C96.4196 63.196 96.3816 63.1327 96.3309 63.082C96.2296 62.9554 96.1536 62.8287 96.1029 62.702C96.0522 62.55 96.0269 62.4107 96.0269 62.284C96.0269 61.98 96.1409 61.7267 96.3689 61.524C96.5969 61.296 96.8629 61.182 97.1669 61.182C97.2176 61.182 97.2682 61.1947 97.3189 61.22C97.3696 61.22 97.4202 61.22 97.4709 61.22C97.5722 61.2707 97.6736 61.334 97.7749 61.41C97.9016 61.4607 98.0029 61.5367 98.0789 61.638C98.2816 61.8913 98.4462 62.1574 98.5729 62.436C98.6996 62.6893 98.7756 62.9553 98.8009 63.234C98.8262 63.31 98.8389 63.3987 98.8389 63.5C98.8389 63.576 98.8389 63.6647 98.8389 63.766C98.8389 64.602 98.5476 65.3367 97.9649 65.97C97.3822 66.578 96.5969 66.8693 95.6089 66.844C94.3169 66.768 93.3416 66.2867 92.6829 65.4C92.0496 64.488 91.7329 63.4873 91.7329 62.398C91.7329 62.322 91.7329 62.246 91.7329 62.17C91.7329 62.094 91.7456 62.018 91.7709 61.942C91.8216 61.2327 91.9989 60.5487 92.3029 59.89C92.6322 59.2313 93.0882 58.6867 93.6709 58.256C94.2029 57.8507 94.7602 57.5593 95.3429 57.382C95.9256 57.1793 96.5209 57.078 97.1289 57.078C97.2809 57.078 97.4329 57.0907 97.5849 57.116C97.7369 57.116 97.8889 57.1287 98.0409 57.154C98.1676 57.1793 98.3069 57.2047 98.4589 57.23C98.6109 57.2553 98.7629 57.2933 98.9149 57.344C100.663 57.8 101.98 58.636 102.867 59.852C103.779 61.0427 104.362 62.4233 104.615 63.994L109.669 55.178L126.199 83.83ZM110.885 73.494L109.669 71.366L108.453 73.494H110.885ZM159.865 57.8L144.627 85.274L138.167 73.304L131.669 85.274L116.469 57.8H125.665L131.593 68.554L138.167 56.47L144.703 68.554L150.669 57.8H159.865ZM193.478 83.83H184.13L182.838 81.588H171.096L169.766 83.83H160.456L167.524 71.594C167.904 70.9353 168.234 70.188 168.512 69.352C168.816 68.4907 169.032 67.6167 169.158 66.73C169.184 66.4767 169.196 66.236 169.196 66.008C169.222 65.78 169.234 65.552 169.234 65.324C169.234 63.9813 168.918 62.7653 168.284 61.676C167.651 60.5867 166.524 59.9027 164.902 59.624C164.776 59.5987 164.636 59.586 164.484 59.586C164.358 59.5607 164.231 59.548 164.104 59.548C164.054 59.548 163.99 59.548 163.914 59.548C163.864 59.548 163.8 59.548 163.724 59.548C163.496 59.5987 163.256 59.662 163.002 59.738C162.774 59.814 162.559 59.928 162.356 60.08C162.078 60.308 161.837 60.612 161.634 60.992C161.457 61.372 161.356 61.7773 161.33 62.208C161.305 62.2587 161.292 62.322 161.292 62.398C161.292 62.4487 161.292 62.4993 161.292 62.55C161.292 63.0567 161.419 63.5127 161.672 63.918C161.951 64.3233 162.394 64.5513 163.002 64.602C163.281 64.6274 163.496 64.564 163.648 64.412C163.8 64.2347 163.876 64.032 163.876 63.804C163.876 63.7533 163.864 63.7027 163.838 63.652C163.838 63.576 163.826 63.5 163.8 63.424C163.8 63.3733 163.775 63.3227 163.724 63.272C163.699 63.196 163.661 63.1327 163.61 63.082C163.509 62.9554 163.433 62.8287 163.382 62.702C163.332 62.55 163.306 62.4107 163.306 62.284C163.306 61.98 163.42 61.7267 163.648 61.524C163.876 61.296 164.142 61.182 164.446 61.182C164.497 61.182 164.548 61.1947 164.598 61.22C164.649 61.22 164.7 61.22 164.75 61.22C164.852 61.2707 164.953 61.334 165.054 61.41C165.181 61.4607 165.282 61.5367 165.358 61.638C165.561 61.8913 165.726 62.1574 165.852 62.436C165.979 62.6893 166.055 62.9553 166.08 63.234C166.106 63.31 166.118 63.3987 166.118 63.5C166.118 63.576 166.118 63.6647 166.118 63.766C166.118 64.602 165.827 65.3367 165.244 65.97C164.662 66.578 163.876 66.8693 162.888 66.844C161.596 66.768 160.621 66.2867 159.962 65.4C159.329 64.488 159.012 63.4873 159.012 62.398C159.012 62.322 159.012 62.246 159.012 62.17C159.012 62.094 159.025 62.018 159.05 61.942C159.101 61.2327 159.278 60.5487 159.582 59.89C159.912 59.2313 160.368 58.6867 160.95 58.256C161.482 57.8507 162.04 57.5593 162.622 57.382C163.205 57.1793 163.8 57.078 164.408 57.078C164.56 57.078 164.712 57.0907 164.864 57.116C165.016 57.116 165.168 57.1287 165.32 57.154C165.447 57.1793 165.586 57.2047 165.738 57.23C165.89 57.2553 166.042 57.2933 166.194 57.344C167.942 57.8 169.26 58.636 170.146 59.852C171.058 61.0427 171.641 62.4233 171.894 63.994L176.948 55.178L193.478 83.83ZM178.164 73.494L176.948 71.366L175.732 73.494H178.164ZM218.241 57.838L207.905 75.774H213.301L209.425 83.83H193.921L204.257 65.932H194.947V57.838H218.241Z" fill="white"/>
<path d="M117.856 93.3814C117.323 93.4001 116.864 93.4516 116.481 93.5358C115.517 93.7603 114.834 94.1533 114.432 94.7147C114.291 94.9112 114.221 95.1124 114.221 95.3182C114.221 95.6738 114.408 96.1182 114.782 96.6516C115.278 97.372 115.564 97.8165 115.639 97.9849C116.097 99.0422 116.326 99.8703 116.326 100.469V100.708C116.186 102.186 115.339 103.44 113.786 104.469C112.935 105.04 111.568 105.559 109.688 106.027L109 102.392C109.711 102.298 110.352 102.153 110.923 101.957C112.27 101.498 112.944 100.881 112.944 100.104V99.9779C112.944 99.5849 112.822 99.1451 112.579 98.6586C112.439 98.4527 112.195 98.0785 111.849 97.5358C111.241 96.572 110.937 95.7346 110.937 95.0235C110.937 93.5077 111.503 92.4177 112.635 91.7533C113.505 91.2481 114.815 90.7755 116.565 90.3358L117.856 93.3814ZM122.862 97.3533L124.714 97.213L125.037 97.62L125.528 94.0551L122.862 97.3533ZM125.346 91.613L127.802 91.641C127.849 92.006 127.868 92.5627 127.858 93.3112C127.83 95.7908 127.638 97.8305 127.283 99.4305C127.105 100.245 126.717 101.494 126.118 103.178L123.156 103.543C123.437 102.626 123.896 101.269 124.532 99.4726L121.921 99.5709L120.237 103.29L117.262 103.739C117.421 103.356 117.795 102.542 118.385 101.297C118.731 100.567 119.035 99.9405 119.297 99.4165L120.195 97.62C120.654 96.703 121.421 95.6317 122.497 94.406C123.498 93.2551 124.448 92.3241 125.346 91.613ZM133.236 91.8937L135.72 91.7533L133.755 96.2867L132.436 99.4586L131.861 101.031L136.604 100.806C136.296 101.573 135.987 102.397 135.678 103.276L128.043 103.739C128.436 102.626 128.988 101.199 129.699 99.4586C129.877 99.0188 130.686 97.2738 132.127 94.2235L133.236 91.8937ZM149.466 94.1112L148.779 94.5463C149.013 95.2013 149.13 95.744 149.13 96.1744C149.13 96.5019 149.078 96.965 148.975 97.5639C148.657 99.3884 147.974 100.848 146.926 101.943C145.766 103.14 144.292 103.739 142.505 103.739C141.036 103.739 139.895 103.234 139.08 102.224C138.323 101.297 137.944 100.081 137.944 98.5744C137.944 98.3405 137.972 98.0036 138.028 97.5639C138.206 95.9639 138.907 94.5791 140.133 93.4095C141.368 92.2305 142.776 91.641 144.358 91.641C146.772 91.641 148.475 92.4644 149.466 94.1112ZM146.323 97.8305C146.351 97.6621 146.365 97.4796 146.365 97.2832C146.365 96.6843 146.187 96.2165 145.831 95.8796L146.323 95.613C145.902 94.7428 145.176 94.3077 144.147 94.3077C143.118 94.3077 142.262 94.6446 141.579 95.3182C140.933 95.9545 140.521 96.7919 140.344 97.8305C140.297 98.0832 140.273 98.2937 140.273 98.4621C140.273 99.2574 140.507 99.9311 140.975 100.483C141.471 101.082 142.103 101.381 142.87 101.381C143.796 101.381 144.582 101.007 145.228 100.259C145.789 99.613 146.154 98.8036 146.323 97.8305ZM162.552 94.1112L161.865 94.5463C162.099 95.2013 162.216 95.744 162.216 96.1744C162.216 96.5019 162.164 96.965 162.061 97.5639C161.743 99.3884 161.06 100.848 160.012 101.943C158.852 103.14 157.378 103.739 155.591 103.739C154.122 103.739 152.98 103.234 152.166 102.224C151.409 101.297 151.03 100.081 151.03 98.5744C151.03 98.3405 151.058 98.0036 151.114 97.5639C151.292 95.9639 151.993 94.5791 153.219 93.4095C154.454 92.2305 155.862 91.641 157.444 91.641C159.858 91.641 161.561 92.4644 162.552 94.1112ZM159.409 97.8305C159.437 97.6621 159.451 97.4796 159.451 97.2832C159.451 96.6843 159.273 96.2165 158.917 95.8796L159.409 95.613C158.987 94.7428 158.262 94.3077 157.233 94.3077C156.204 94.3077 155.348 94.6446 154.665 95.3182C154.019 95.9545 153.607 96.7919 153.43 97.8305C153.383 98.0832 153.359 98.2937 153.359 98.4621C153.359 99.2574 153.593 99.9311 154.061 100.483C154.557 101.082 155.189 101.381 155.956 101.381C156.882 101.381 157.668 101.007 158.314 100.259C158.875 99.613 159.24 98.8036 159.409 97.8305ZM170.235 97.9849C171.713 94.8223 172.724 92.7077 173.266 91.641L175.723 91.6551C174.88 93.4141 173.739 96.02 172.298 99.4726C172.008 100.174 171.549 101.409 170.923 103.178L167.961 103.543C168.036 103.131 168.073 102.602 168.073 101.957C168.073 101.246 168.008 100.45 167.877 99.5709C167.718 98.551 167.512 97.7978 167.259 97.3112L166.459 99.4726L165.042 103.29L162.066 103.739C162.487 102.626 163.04 101.204 163.723 99.4726C164.172 98.3311 164.607 97.2925 165.028 96.3568C165.14 96.0948 165.477 95.3463 166.038 94.1112L165.491 92.1603L168.158 91.5288L168.34 91.9358C168.705 92.4878 169.112 93.4703 169.561 94.8832C170.01 96.3241 170.235 97.358 170.235 97.9849Z" fill="#FDFEFE"/>
</g>
</g>
<defs>
<clipPath id="clip0_10_2333">
<rect width="285" height="131" fill="white"/>
</clipPath>
</defs>
</svg>
