<svg width="42" height="38" viewBox="0 0 42 38" fill="none" xmlns="http://www.w3.org/2000/svg">
<g clip-path="url(#clip0_18_1309)">
<path d="M41.3125 12.75C41.3133 12.6047 41.2936 12.4601 41.2539 12.3203L38.4512 2.51562C38.2628 1.86507 37.869 1.2929 37.3287 0.884558C36.7883 0.476219 36.1304 0.253619 35.4531 0.25H6.54688C5.8696 0.253619 5.21167 0.476219 4.67132 0.884558C4.13098 1.2929 3.73721 1.86507 3.54883 2.51562L0.748048 12.3203C0.7077 12.46 0.687316 12.6046 0.687501 12.75V15.875C0.687501 17.0879 0.969885 18.284 1.51229 19.3689C2.05469 20.4537 2.84222 21.3973 3.8125 22.125V34.625C3.8125 35.4538 4.14174 36.2487 4.72779 36.8347C5.31384 37.4208 6.1087 37.75 6.9375 37.75H35.0625C35.8913 37.75 36.6862 37.4208 37.2722 36.8347C37.8583 36.2487 38.1875 35.4538 38.1875 34.625V22.125C39.1578 21.3973 39.9453 20.4537 40.4877 19.3689C41.0301 18.284 41.3125 17.0879 41.3125 15.875V12.75ZM6.54688 3.375H35.4531L37.6836 11.1875H4.32227L6.54688 3.375ZM16.3125 14.3125H25.6875V15.875C25.6875 17.1182 25.1936 18.3105 24.3146 19.1896C23.4355 20.0686 22.2432 20.5625 21 20.5625C19.7568 20.5625 18.5645 20.0686 17.6854 19.1896C16.8064 18.3105 16.3125 17.1182 16.3125 15.875V14.3125ZM13.1875 14.3125V15.875C13.1875 17.1182 12.6936 18.3105 11.8146 19.1896C10.9355 20.0686 9.7432 20.5625 8.5 20.5625C7.2568 20.5625 6.06452 20.0686 5.18544 19.1896C4.30636 18.3105 3.8125 17.1182 3.8125 15.875V14.3125H13.1875ZM35.0625 34.625H6.9375V23.5312C7.45188 23.6349 7.97528 23.6873 8.5 23.6875C9.71285 23.6875 10.909 23.4051 11.9939 22.8627C13.0787 22.3203 14.0223 21.5328 14.75 20.5625C15.4777 21.5328 16.4213 22.3203 17.5061 22.8627C18.591 23.4051 19.7871 23.6875 21 23.6875C22.2129 23.6875 23.409 23.4051 24.4939 22.8627C25.5787 22.3203 26.5223 21.5328 27.25 20.5625C27.9777 21.5328 28.9213 22.3203 30.0061 22.8627C31.091 23.4051 32.2871 23.6875 33.5 23.6875C34.0247 23.6873 34.5481 23.6349 35.0625 23.5312V34.625ZM33.5 20.5625C32.2568 20.5625 31.0645 20.0686 30.1854 19.1896C29.3064 18.3105 28.8125 17.1182 28.8125 15.875V14.3125H38.1875V15.875C38.1875 17.1182 37.6936 18.3105 36.8146 19.1896C35.9355 20.0686 34.7432 20.5625 33.5 20.5625Z" fill="white"/>
</g>
<defs>
<clipPath id="clip0_18_1309">
<rect width="42" height="38" fill="white"/>
</clipPath>
</defs>
</svg>
