<svg width="18" height="22" viewBox="0 0 18 22" fill="none" xmlns="http://www.w3.org/2000/svg">
<path d="M17.6998 4.73766L13.6373 0.675157C13.5618 0.599729 13.4722 0.539917 13.3736 0.499139C13.2749 0.458362 13.1692 0.437416 13.0625 0.4375H4.9375C4.50652 0.4375 4.0932 0.608705 3.78845 0.913452C3.48371 1.2182 3.3125 1.63152 3.3125 2.0625V3.6875H1.6875C1.25652 3.6875 0.843198 3.85871 0.538451 4.16345C0.233705 4.4682 0.0625 4.88152 0.0625 5.3125V19.9375C0.0625 20.3685 0.233705 20.7818 0.538451 21.0865C0.843198 21.3913 1.25652 21.5625 1.6875 21.5625H13.0625C13.4935 21.5625 13.9068 21.3913 14.2115 21.0865C14.5163 20.7818 14.6875 20.3685 14.6875 19.9375V18.3125H16.3125C16.7435 18.3125 17.1568 18.1413 17.4615 17.8365C17.7663 17.5318 17.9375 17.1185 17.9375 16.6875V5.3125C17.9376 5.20577 17.9166 5.10007 17.8759 5.00143C17.8351 4.9028 17.7753 4.81317 17.6998 4.73766ZM13.0625 19.9375H1.6875V5.3125H9.47633L13.0625 8.89867V17.4837C13.0625 17.4898 13.0625 17.4949 13.0625 17.5C13.0625 17.5051 13.0625 17.5102 13.0625 17.5163V19.9375ZM16.3125 16.6875H14.6875V8.5625C14.6876 8.45577 14.6666 8.35007 14.6259 8.25143C14.5851 8.1528 14.5253 8.06317 14.4498 7.98766L10.3873 3.92516C10.3118 3.84973 10.2222 3.78992 10.1236 3.74914C10.0249 3.70836 9.91923 3.68742 9.8125 3.6875H4.9375V2.0625H12.7263L16.3125 5.64867V16.6875ZM10.625 13.4375C10.625 13.653 10.5394 13.8597 10.387 14.012C10.2347 14.1644 10.028 14.25 9.8125 14.25H4.9375C4.72201 14.25 4.51535 14.1644 4.36298 14.012C4.2106 13.8597 4.125 13.653 4.125 13.4375C4.125 13.222 4.2106 13.0153 4.36298 12.863C4.51535 12.7106 4.72201 12.625 4.9375 12.625H9.8125C10.028 12.625 10.2347 12.7106 10.387 12.863C10.5394 13.0153 10.625 13.222 10.625 13.4375ZM10.625 16.6875C10.625 16.903 10.5394 17.1097 10.387 17.262C10.2347 17.4144 10.028 17.5 9.8125 17.5H4.9375C4.72201 17.5 4.51535 17.4144 4.36298 17.262C4.2106 17.1097 4.125 16.903 4.125 16.6875C4.125 16.472 4.2106 16.2653 4.36298 16.113C4.51535 15.9606 4.72201 15.875 4.9375 15.875H9.8125C10.028 15.875 10.2347 15.9606 10.387 16.113C10.5394 16.2653 10.625 16.472 10.625 16.6875Z" fill="white"/>
</svg>
