<svg width="30" height="30" viewBox="0 0 30 30" fill="none" xmlns="http://www.w3.org/2000/svg">
<path fill-rule="evenodd" clip-rule="evenodd" d="M20.0455 3.75H10.2273C8.72182 3.75 7.5 4.97182 7.5 6.47727V25.0227C7.5 26.5282 8.72182 27.75 10.2273 27.75H20.0455C21.5509 27.75 22.7727 26.5282 22.7727 25.0227V6.47727C22.7727 4.97182 21.5509 3.75 20.0455 3.75ZM15.1364 25.7045C14.4578 25.7045 13.9091 25.1558 13.9091 24.4773C13.9091 23.7987 14.4578 23.25 15.1364 23.25C15.8149 23.25 16.3636 23.7987 16.3636 24.4773C16.3636 25.1558 15.8149 25.7045 15.1364 25.7045ZM20.5909 22.2955H9.68182V7.02273H20.5909V22.2955Z" fill="#494AFF"/>
</svg>
