<svg width="29" height="29" viewBox="0 0 29 29" fill="none" xmlns="http://www.w3.org/2000/svg">
<path d="M20.5564 17.437C20.8958 17.146 21.3965 17.146 21.736 17.437L25.9651 21.062C26.3451 21.3876 26.3891 21.9598 26.0635 22.3398C25.7377 22.7198 25.1656 22.7638 24.7855 22.438L21.1462 19.3186L17.5068 22.438C17.1268 22.7638 16.5546 22.7198 16.229 22.3398C15.9032 21.9598 15.9472 21.3876 16.3272 21.062L20.5564 17.437Z" fill="white"/>
<path fill-rule="evenodd" clip-rule="evenodd" d="M2.71875 7.25C2.71875 6.7495 3.1245 6.34375 3.625 6.34375H25.375C25.8755 6.34375 26.2812 6.7495 26.2812 7.25C26.2812 7.7505 25.8755 8.15625 25.375 8.15625H3.625C3.1245 8.15625 2.71875 7.7505 2.71875 7.25ZM2.71875 12.0833C2.71875 11.5828 3.1245 11.1771 3.625 11.1771H25.375C25.8755 11.1771 26.2812 11.5828 26.2812 12.0833C26.2812 12.5838 25.8755 12.9896 25.375 12.9896H3.625C3.1245 12.9896 2.71875 12.5838 2.71875 12.0833ZM2.71875 16.9167C2.71875 16.4162 3.1245 16.0104 3.625 16.0104H13.2917C13.7922 16.0104 14.1979 16.4162 14.1979 16.9167C14.1979 17.4172 13.7922 17.8229 13.2917 17.8229H3.625C3.1245 17.8229 2.71875 17.4172 2.71875 16.9167ZM2.71875 21.75C2.71875 21.2495 3.1245 20.8438 3.625 20.8438H13.2917C13.7922 20.8438 14.1979 21.2495 14.1979 21.75C14.1979 22.2505 13.7922 22.6562 13.2917 22.6562H3.625C3.1245 22.6562 2.71875 22.2505 2.71875 21.75Z" fill="white"/>
</svg>
