<svg width="25" height="24" viewBox="0 0 25 24" fill="none" xmlns="http://www.w3.org/2000/svg">
<g opacity="0.499326">
<path fill-rule="evenodd" clip-rule="evenodd" d="M21.6775 11.1627H6.30798L9.97537 7.42922C10.2967 7.10235 10.2967 6.57211 9.97537 6.24529C9.65409 5.91824 9.13321 5.91824 8.81239 6.24529L3.74097 11.4079C3.41968 11.7348 3.41968 12.2651 3.74097 12.5919L8.81239 17.7548C8.97299 17.9183 9.18346 18 9.39388 18C9.60431 18 9.81478 17.9183 9.97537 17.7548C10.2967 17.4279 10.2967 16.8976 9.97537 16.5709L6.30798 12.8372H21.6775C22.1317 12.8372 22.5 12.4623 22.5 11.9999C22.5 11.5376 22.1317 11.1627 21.6775 11.1627Z" fill="#262323"/>
</g>
</svg>
