<svg width="16" height="16" viewBox="0 0 16 16" fill="none" xmlns="http://www.w3.org/2000/svg">
<path fill-rule="evenodd" clip-rule="evenodd" d="M9.40933 7.99531L15.6973 1.70731C16.088 1.31697 16.088 0.683639 15.6973 0.293305C15.3067 -0.0973615 14.674 -0.0973615 14.2833 0.293305L7.99533 6.58131L1.707 0.293305C1.31633 -0.0973615 0.683667 -0.0973615 0.293 0.293305C-0.0976667 0.683639 -0.0976667 1.31697 0.293 1.70731L6.58133 7.99531L0.293 14.2833C-0.0976667 14.6736 -0.0976667 15.307 0.293 15.6973C0.488333 15.8923 0.744333 15.99 1 15.99C1.25567 15.99 1.51167 15.8923 1.707 15.697L7.99533 9.40897L14.2833 15.697C14.4787 15.8923 14.7347 15.99 14.9903 15.99C15.246 15.99 15.502 15.8923 15.6973 15.697C16.088 15.3066 16.088 14.6733 15.6973 14.283L9.40933 7.99531Z" fill="#262323"/>
</svg>
