<?xml version="1.0" encoding="iso-8859-1"?>
<!-- Uploaded to: SVG Repo, www.svgrepo.com, Generator: SVG Repo Mixer Tools -->
<!DOCTYPE svg PUBLIC "-//W3C//DTD SVG 1.1//EN" "http://www.w3.org/Graphics/SVG/1.1/DTD/svg11.dtd">
<svg height="800px" width="800px" version="1.1" id="Capa_1" xmlns="http://www.w3.org/2000/svg" xmlns:xlink="http://www.w3.org/1999/xlink" 
	 viewBox="0 0 310.381 310.381" xml:space="preserve">
<g>
	<path style="fill:#000002;" d="M129.289,88.895c-23.788,0-43.141,19.354-43.141,43.142c0,23.788,19.353,43.142,43.141,43.142
		c23.789,0,43.143-19.354,43.143-43.142C172.432,108.248,153.078,88.895,129.289,88.895z M129.289,160.178
		c-15.517,0-28.141-12.624-28.141-28.142c0-15.518,12.624-28.142,28.141-28.142c15.518,0,28.143,12.624,28.143,28.142
		C157.432,147.554,144.807,160.178,129.289,160.178z"/>
	<path style="fill:#000002;" d="M255.248,161.25c2.202-9.531,3.332-19.348,3.332-29.213c0-71.289-58-129.289-129.291-129.289
		C57.999,2.748,0,60.748,0,132.037c0,71.29,57.999,129.288,129.289,129.288c12.21,0,24.231-1.712,35.836-5.056
		c9.749,29.783,37.786,51.363,70.784,51.363c41.063,0,74.472-33.408,74.472-74.473C310.381,198.784,286.964,169.789,255.248,161.25z
		 M129.289,246.325C66.27,246.325,15,195.056,15,132.037c0-63.02,51.27-114.289,114.289-114.289
		c63.02,0,114.291,51.269,114.291,114.289c0,9.062-1.069,18.074-3.166,26.799c-1.491-0.088-2.991-0.148-4.505-0.148
		c-41.064,0-74.473,33.408-74.473,74.473c0,2.852,0.177,5.664,0.491,8.434C151.379,244.732,140.424,246.325,129.289,246.325z
		 M235.909,292.633c-32.793,0-59.473-26.68-59.473-59.473c0-32.793,26.68-59.473,59.473-59.473c32.793,0,59.472,26.68,59.472,59.473
		C295.381,265.953,268.702,292.633,235.909,292.633z"/>
	<path style="fill:#000002;" d="M194.41,210.686c-2.762,0-5,2.238-5,5c0,0.008,0.002,0.016,0.002,0.023s-0.002,0.015-0.002,0.022
		v34.825c0,2.762,2.238,5,5,5c14.16,0,24.438-9.436,24.438-22.437C218.848,220.121,208.57,210.686,194.41,210.686z M199.41,244.895
		v-23.547c5.202,1.426,9.438,5.21,9.438,11.772C208.848,239.684,204.612,243.469,199.41,244.895z"/>
	<path style="fill:#000002;" d="M261.248,210.686c-2.762,0-5,2.238-5,5c0,0.008,0.002,0.016,0.002,0.023s-0.002,0.015-0.002,0.022
		v34.825c0,2.762,2.238,5,5,5c14.159,0,24.436-9.436,24.436-22.437C285.684,220.121,275.407,210.686,261.248,210.686z
		 M266.248,244.894v-23.546c5.201,1.426,9.436,5.211,9.436,11.772C275.684,239.684,271.449,243.469,266.248,244.894z"/>
	<path style="fill:#000002;" d="M249.578,211.539c-2.634-0.817-5.438,0.663-6.252,3.303l-7.15,23.164l-7.252-22.557
		c-0.845-2.629-3.659-4.076-6.29-3.229c-2.629,0.845-4.075,3.661-3.229,6.29l10.272,31.952c1.686,5.238,5.135,5.818,6.575,5.818
		c0.01,0,0.02,0,0.031,0c1.421-0.008,4.901-0.599,6.537-5.895l10.061-32.594C253.695,215.152,252.217,212.353,249.578,211.539z"/>
</g>
</svg>