<svg width="30" height="30" viewBox="0 0 30 30" fill="none" xmlns="http://www.w3.org/2000/svg">
<path fill-rule="evenodd" clip-rule="evenodd" d="M24.243 13.9422H22.6017V9.5653C22.6017 8.36166 21.6169 7.37687 20.4132 7.37687H16.0364V5.73554C16.0364 4.20364 14.8327 3 13.3008 3C11.7689 3 10.5653 4.20364 10.5653 5.73554V7.37687H6.18843C4.98479 7.37687 4 8.36166 4 9.5653V13.7233H5.64132C7.28265 13.7233 8.59571 15.0364 8.59571 16.6777C8.59571 18.319 7.28265 19.6321 5.64132 19.6321H4V23.7901C4 24.9937 4.98479 25.9785 6.18843 25.9785H10.3465V24.3372C10.3465 22.6959 11.6595 21.3828 13.3008 21.3828C14.9422 21.3828 16.2552 22.6959 16.2552 24.3372V25.9785H20.4132C21.6169 25.9785 22.6017 24.9937 22.6017 23.7901V19.4132H24.243C25.7749 19.4132 26.9785 18.2096 26.9785 16.6777C26.9785 15.1458 25.7749 13.9422 24.243 13.9422Z" fill="#494AFF"/>
</svg>
