<svg width="42" height="42" viewBox="0 0 42 42" fill="none" xmlns="http://www.w3.org/2000/svg">
<rect width="42" height="42" rx="21" fill="#F7F7F7"/>
<path d="M22.7969 16H27.875C28.0408 16 28.1997 15.9341 28.3169 15.8169C28.4342 15.6997 28.5 15.5408 28.5 15.375C28.5 15.2092 28.4342 15.0503 28.3169 14.9331C28.1997 14.8158 28.0408 14.75 27.875 14.75H22.7969C22.6592 14.2122 22.3464 13.7356 21.9079 13.3952C21.4694 13.0548 20.9301 12.8701 20.375 12.8701C19.8199 12.8701 19.2806 13.0548 18.8421 13.3952C18.4036 13.7356 18.0908 14.2122 17.9531 14.75H14.125C13.9592 14.75 13.8003 14.8158 13.6831 14.9331C13.5658 15.0503 13.5 15.2092 13.5 15.375C13.5 15.5408 13.5658 15.6997 13.6831 15.8169C13.8003 15.9341 13.9592 16 14.125 16H17.9531C18.0908 16.5378 18.4036 17.0144 18.8421 17.3548C19.2806 17.6951 19.8199 17.8799 20.375 17.8799C20.9301 17.8799 21.4694 17.6951 21.9079 17.3548C22.3464 17.0144 22.6592 16.5378 22.7969 16ZM19.125 15.375C19.125 15.1278 19.1983 14.8861 19.3357 14.6805C19.473 14.475 19.6682 14.3148 19.8966 14.2201C20.1251 14.1255 20.3764 14.1008 20.6189 14.149C20.8613 14.1972 21.0841 14.3163 21.2589 14.4911C21.4337 14.6659 21.5528 14.8887 21.601 15.1311C21.6492 15.3736 21.6245 15.6249 21.5298 15.8534C21.4352 16.0818 21.275 16.277 21.0695 16.4143C20.8639 16.5517 20.6222 16.625 20.375 16.625C20.0435 16.625 19.7255 16.4933 19.4911 16.2589C19.2567 16.0245 19.125 15.7065 19.125 15.375ZM26.5469 21.625H27.875C28.0408 21.625 28.1997 21.5591 28.3169 21.4419C28.4342 21.3247 28.5 21.1658 28.5 21C28.5 20.8342 28.4342 20.6753 28.3169 20.5581C28.1997 20.4408 28.0408 20.375 27.875 20.375H26.5469C26.4092 19.8372 26.0964 19.3606 25.6579 19.0202C25.2194 18.6798 24.6801 18.4951 24.125 18.4951C23.5699 18.4951 23.0306 18.6798 22.5921 19.0202C22.1536 19.3606 21.8408 19.8372 21.7031 20.375H14.125C13.9592 20.375 13.8003 20.4408 13.6831 20.5581C13.5658 20.6753 13.5 20.8342 13.5 21C13.5 21.1658 13.5658 21.3247 13.6831 21.4419C13.8003 21.5591 13.9592 21.625 14.125 21.625H21.7031C21.8408 22.1628 22.1536 22.6394 22.5921 22.9798C23.0306 23.3201 23.5699 23.5049 24.125 23.5049C24.6801 23.5049 25.2194 23.3201 25.6579 22.9798C26.0964 22.6394 26.4092 22.1628 26.5469 21.625ZM22.875 21C22.875 20.7528 22.9483 20.5111 23.0857 20.3055C23.223 20.1 23.4182 19.9398 23.6466 19.8451C23.8751 19.7505 24.1264 19.7258 24.3689 19.774C24.6113 19.8222 24.8341 19.9413 25.0089 20.1161C25.1837 20.2909 25.3028 20.5137 25.351 20.7561C25.3992 20.9986 25.3745 21.2499 25.2798 21.4784C25.1852 21.7068 25.025 21.902 24.8195 22.0393C24.6139 22.1767 24.3722 22.25 24.125 22.25C23.7935 22.25 23.4755 22.1183 23.2411 21.8839C23.0067 21.6495 22.875 21.3315 22.875 21ZM17.875 29.125C18.4293 29.1245 18.9677 28.9401 19.4059 28.6008C19.8442 28.2615 20.1575 27.7864 20.2969 27.25H27.875C28.0408 27.25 28.1997 27.1841 28.3169 27.0669C28.4342 26.9497 28.5 26.7908 28.5 26.625C28.5 26.4592 28.4342 26.3003 28.3169 26.1831C28.1997 26.0658 28.0408 26 27.875 26H20.2969C20.1592 25.4622 19.8464 24.9856 19.4079 24.6452C18.9694 24.3048 18.4301 24.1201 17.875 24.1201C17.3199 24.1201 16.7806 24.3048 16.3421 24.6452C15.9036 24.9856 15.5908 25.4622 15.4531 26H14.125C13.9592 26 13.8003 26.0658 13.6831 26.1831C13.5658 26.3003 13.5 26.4592 13.5 26.625C13.5 26.7908 13.5658 26.9497 13.6831 27.0669C13.8003 27.1841 13.9592 27.25 14.125 27.25H15.4531C15.5925 27.7864 15.9058 28.2615 16.3441 28.6008C16.7823 28.9401 17.3207 29.1245 17.875 29.125ZM16.625 26.625C16.625 26.3778 16.6983 26.1361 16.8357 25.9305C16.973 25.725 17.1682 25.5648 17.3966 25.4701C17.6251 25.3755 17.8764 25.3508 18.1189 25.399C18.3613 25.4472 18.5841 25.5663 18.7589 25.7411C18.9337 25.9159 19.0528 26.1387 19.101 26.3811C19.1492 26.6236 19.1245 26.8749 19.0299 27.1034C18.9352 27.3318 18.775 27.527 18.5695 27.6643C18.3639 27.8017 18.1222 27.875 17.875 27.875C17.5435 27.875 17.2255 27.7433 16.9911 27.5089C16.7567 27.2745 16.625 26.9565 16.625 26.625Z" fill="black"/>
</svg>
