<svg width="21" height="21" viewBox="0 0 21 21" fill="none" xmlns="http://www.w3.org/2000/svg">
<path d="M3.06831 8.65512L16.8121 3.56059L16.8246 3.55668C17.0458 3.48051 17.2839 3.46796 17.512 3.52045C17.74 3.57295 17.9487 3.68838 18.1143 3.85362C18.2799 4.01885 18.3959 4.22727 18.4489 4.45514C18.502 4.68302 18.49 4.92121 18.4144 5.14262C18.4135 5.14689 18.4122 5.15107 18.4105 5.15512L13.3121 18.8989C13.2283 19.1439 13.0695 19.3564 12.8582 19.506C12.6468 19.6556 12.3937 19.7349 12.1347 19.7325H12.1113C11.8472 19.7304 11.5908 19.6436 11.3798 19.4848C11.1688 19.326 11.0144 19.1036 10.9394 18.8504L9.09878 12.8692L3.11753 11.0286C2.86621 10.9512 2.64567 10.7966 2.4873 10.5867C2.32893 10.3768 2.24079 10.1222 2.23543 9.85935C2.23006 9.59644 2.30774 9.33855 2.45741 9.12234C2.60709 8.90614 2.82113 8.74265 3.06909 8.65512H3.06831ZM3.48472 9.83403L9.46597 11.6747C9.66067 11.7346 9.83776 11.8413 9.98182 11.9854C10.1259 12.1294 10.2325 12.3065 10.2925 12.5012L12.1332 18.4825L12.1378 18.4692L17.2347 4.73246L3.49878 9.82778L3.48628 9.83246L3.48472 9.83403Z" fill="#0095FF"/>
</svg>
