<svg width="47" height="45" viewBox="0 0 47 45" fill="none" xmlns="http://www.w3.org/2000/svg">
<g clip-path="url(#clip0_16_1227)">
<path d="M11.5959 20.5468L15.7811 17.8571C16.0756 17.6426 21.1668 13.8401 23.5077 6.31779C23.6206 5.95425 23.8348 5.63047 24.1253 5.38448C24.4158 5.13849 24.7705 4.98051 25.1477 4.9291C25.5248 4.87768 25.9088 4.93497 26.2546 5.09424C26.6003 5.2535 26.8934 5.50812 27.0995 5.82819L37.9125 22.6531C38.1183 22.9735 38.2284 23.3459 38.2298 23.7267C38.2312 24.1074 38.124 24.4807 37.9206 24.8026C37.7172 25.1245 37.4261 25.3816 37.0816 25.5438C36.7371 25.7059 36.3535 25.7664 35.9758 25.718C29.8631 24.9392 25.1242 26.6356 23.1954 27.4978L25.339 30.8333C25.5176 31.1104 25.6249 31.4272 25.6514 31.7557C25.678 32.0842 25.6229 32.4142 25.4912 32.7163L24.8298 34.2304C24.7022 34.5234 24.5062 34.7814 24.2583 34.983C24.0103 35.1846 23.7178 35.3239 23.405 35.3891C23.0922 35.4544 22.7683 35.4438 22.4604 35.3582C22.1526 35.2725 21.8698 35.1144 21.6356 34.897L17.4 31.0277C16.0195 31.6928 14.4369 31.8045 12.9766 31.3399C11.5164 30.8753 10.2893 29.8696 9.54691 28.5291C8.80455 27.1885 8.60321 25.6148 8.9842 24.1305C9.36519 22.6463 10.2996 21.3641 11.5959 20.5468ZM22.9878 33.4173L22.9952 33.4288L23.6565 31.9146L21.4487 28.4792L19.1773 29.939L22.9878 33.4173ZM17.0024 28.9593L20.3674 26.7967L16.0422 20.0667L12.6772 22.2293C11.7847 22.8029 11.1567 23.7075 10.9312 24.7441C10.7057 25.7807 10.9012 26.8645 11.4748 27.7569C12.0483 28.6494 12.9529 29.2774 13.9895 29.5029C15.0262 29.7284 16.1099 29.5329 17.0024 28.9593Z" fill="#0095FF"/>
</g>
<path d="M35.1104 0.110352L31.1104 8.61035L37.6104 4.11035L35.1104 0.110352Z" fill="#0095FF"/>
<path d="M45.5868 18.2331L36.2105 18.8106L42.7931 14.4324L45.5868 18.2331Z" fill="#0095FF"/>
<path d="M45.3837 9.93061L37.1104 10.4402L42.9186 6.57707L45.3837 9.93061Z" fill="#0095FF"/>
<defs>
<clipPath id="clip0_16_1227">
<rect width="32" height="32" fill="white" transform="matrix(-0.841247 0.54065 0.54065 0.841247 26.9199 0)"/>
</clipPath>
</defs>
</svg>
