<svg width="24" height="24" viewBox="0 0 24 24" fill="none" xmlns="http://www.w3.org/2000/svg">
<g id="UserCircleMinus">
<path id="Vector" d="M15.75 5.25001C15.75 5.0511 15.829 4.86033 15.9697 4.71968C16.1103 4.57903 16.3011 4.50001 16.5 4.50001H21C21.1989 4.50001 21.3897 4.57903 21.5303 4.71968C21.671 4.86033 21.75 5.0511 21.75 5.25001C21.75 5.44892 21.671 5.63969 21.5303 5.78034C21.3897 5.92099 21.1989 6.00001 21 6.00001H16.5C16.3011 6.00001 16.1103 5.92099 15.9697 5.78034C15.829 5.63969 15.75 5.44892 15.75 5.25001ZM21.615 10.3763C21.9576 12.413 21.6441 14.506 20.7197 16.353C19.7953 18.2 18.3078 19.7054 16.4721 20.6518C14.6363 21.5983 12.5472 21.9369 10.5065 21.6187C8.46577 21.3005 6.57896 20.342 5.11851 18.8815C3.65805 17.421 2.69952 15.5342 2.38132 13.4935C2.06311 11.4528 2.40169 9.36371 3.34817 7.52795C4.29465 5.69218 5.80005 4.20471 7.64703 3.2803C9.494 2.35589 11.587 2.04237 13.6237 2.38501C13.8184 2.41944 13.9916 2.52935 14.1057 2.69083C14.2198 2.85232 14.2655 3.05231 14.2329 3.24731C14.2002 3.4423 14.0919 3.61653 13.9315 3.73209C13.7711 3.84766 13.5715 3.8952 13.3762 3.86439C12.1932 3.66538 10.9811 3.72655 9.82413 4.04364C8.66717 4.36073 7.59321 4.92613 6.67698 5.70048C5.76075 6.47483 5.02427 7.43954 4.51878 8.52746C4.01329 9.61538 3.75094 10.8004 3.74999 12C3.74822 14.0196 4.49048 15.969 5.83499 17.4759C6.67146 16.2638 7.84764 15.3261 9.21562 14.7806C8.48079 14.2019 7.94458 13.4085 7.68156 12.5109C7.41854 11.6132 7.44178 10.6559 7.74804 9.77209C8.05431 8.88826 8.62838 8.12184 9.39043 7.57941C10.1525 7.03697 11.0646 6.74549 12 6.74549C12.9354 6.74549 13.8475 7.03697 14.6096 7.57941C15.3716 8.12184 15.9457 8.88826 16.2519 9.77209C16.5582 10.6559 16.5814 11.6132 16.3184 12.5109C16.0554 13.4085 15.5192 14.2019 14.7844 14.7806C16.1524 15.3261 17.3285 16.2638 18.165 17.4759C19.5095 15.969 20.2518 14.0196 20.25 12C20.25 11.5389 20.2118 11.0786 20.1356 10.6238C20.1184 10.5262 20.1206 10.4262 20.1422 10.3295C20.1639 10.2328 20.2044 10.1414 20.2616 10.0604C20.3187 9.97951 20.3914 9.91072 20.4753 9.85802C20.5592 9.80533 20.6527 9.76978 20.7504 9.75343C20.8481 9.73709 20.9481 9.74026 21.0446 9.76278C21.1411 9.78529 21.2321 9.8267 21.3125 9.88461C21.3929 9.94252 21.461 10.0158 21.513 10.1002C21.5649 10.1846 21.5996 10.2784 21.615 10.3763ZM12 14.25C12.5933 14.25 13.1734 14.0741 13.6667 13.7444C14.1601 13.4148 14.5446 12.9462 14.7716 12.3981C14.9987 11.8499 15.0581 11.2467 14.9424 10.6647C14.8266 10.0828 14.5409 9.54825 14.1213 9.12869C13.7018 8.70913 13.1672 8.42341 12.5853 8.30765C12.0033 8.1919 11.4001 8.25131 10.8519 8.47837C10.3038 8.70543 9.83523 9.08995 9.50559 9.5833C9.17594 10.0766 8.99999 10.6567 8.99999 11.25C8.99999 12.0457 9.31606 12.8087 9.87867 13.3713C10.4413 13.9339 11.2043 14.25 12 14.25ZM12 20.25C13.8313 20.2519 15.6106 19.6414 17.055 18.5156C16.5124 17.6671 15.765 16.9688 14.8816 16.4851C13.9981 16.0014 13.0072 15.7478 12 15.7478C10.9928 15.7478 10.0018 16.0014 9.11842 16.4851C8.235 16.9688 7.48756 17.6671 6.94499 18.5156C8.3894 19.6414 10.1687 20.2519 12 20.25Z" fill="#2538E8"/>
</g>
</svg>
