<svg width="18" height="18" viewBox="0 0 18 18" fill="none" xmlns="http://www.w3.org/2000/svg">
<path d="M1.33188 7.64703L1.33194 7.6471L1.3389 7.64053L8.83467 0.562643C8.88037 0.522152 8.93934 0.499756 9.00047 0.499756C9.0616 0.499756 9.12057 0.522152 9.16627 0.562643L16.662 7.64053L16.662 7.64059L16.6691 7.64703C16.6948 7.67046 16.7155 7.69902 16.7296 7.73088C16.7436 7.76272 16.7509 7.79716 16.7509 7.83198C16.7509 7.832 16.7509 7.83202 16.7509 7.83203V16.5001C16.7509 16.5664 16.7246 16.63 16.6777 16.6769L17.0313 17.0304L16.6777 16.6769C16.6308 16.7238 16.5672 16.7501 16.5009 16.7501H12C11.9337 16.7501 11.8701 16.7238 11.8232 16.6769C11.7763 16.63 11.75 16.5664 11.75 16.5001V12.0001C11.75 11.6686 11.6183 11.3506 11.3839 11.1162C11.1495 10.8818 10.8315 10.7501 10.5 10.7501H7.5C7.16848 10.7501 6.85054 10.8818 6.61612 11.1162C6.3817 11.3506 6.25 11.6686 6.25 12.0001V16.5001C6.25 16.5664 6.22366 16.63 6.17678 16.6769C6.12989 16.7238 6.06631 16.7501 6 16.7501H1.5C1.43369 16.7501 1.37011 16.7238 1.32323 16.6769C1.27634 16.63 1.25 16.5664 1.25 16.5001V7.83203C1.25 7.83202 1.25 7.832 1.25 7.83198C1.25001 7.79716 1.2573 7.76272 1.27139 7.73088C1.28549 7.69902 1.30609 7.67046 1.33188 7.64703Z" stroke="white" stroke-linecap="round" stroke-linejoin="round"/>
</svg>
