<svg width="24" height="24" viewBox="0 0 24 24" fill="none" xmlns="http://www.w3.org/2000/svg">
<g id="Translate">
<path id="Vector" d="M23.9203 21.6644L18.6703 11.1644C18.608 11.0398 18.5123 10.9351 18.3938 10.8619C18.2753 10.7886 18.1388 10.7499 17.9995 10.7499C17.8603 10.7499 17.7237 10.7886 17.6053 10.8619C17.4868 10.9351 17.391 11.0398 17.3287 11.1644L15.2934 15.2359C13.6981 15.1462 12.1631 14.5952 10.875 13.6497C12.3863 12.0357 13.302 9.95463 13.4709 7.75H15.75C15.9489 7.75 16.1397 7.67098 16.2803 7.53033C16.421 7.38968 16.5 7.19891 16.5 7C16.5 6.80109 16.421 6.61032 16.2803 6.46967C16.1397 6.32902 15.9489 6.25 15.75 6.25H10.5V4.75C10.5 4.55109 10.421 4.36032 10.2803 4.21967C10.1397 4.07902 9.94891 4 9.75 4C9.55109 4 9.36032 4.07902 9.21967 4.21967C9.07902 4.36032 9 4.55109 9 4.75V6.25H3.75C3.55109 6.25 3.36032 6.32902 3.21967 6.46967C3.07902 6.61032 3 6.80109 3 7C3 7.19891 3.07902 7.38968 3.21967 7.53033C3.36032 7.67098 3.55109 7.75 3.75 7.75H11.9653C11.7983 9.58811 11.018 11.3167 9.75 12.6578C8.95984 11.8241 8.35306 10.8341 7.96875 9.75156C7.93715 9.65712 7.88705 9.56991 7.82139 9.49503C7.75572 9.42015 7.6758 9.3591 7.58629 9.31544C7.49678 9.27178 7.39946 9.24639 7.30003 9.24074C7.2006 9.23509 7.10104 9.24931 7.00715 9.28255C6.91327 9.3158 6.82695 9.36741 6.75323 9.43437C6.67951 9.50133 6.61987 9.58231 6.57778 9.67257C6.53569 9.76283 6.51199 9.86057 6.50808 9.96009C6.50417 10.0596 6.52012 10.1589 6.555 10.2522C7.00244 11.5177 7.70726 12.6767 8.625 13.6562C7.21197 14.6946 5.50353 15.2531 3.75 15.25C3.55109 15.25 3.36032 15.329 3.21967 15.4697C3.07902 15.6103 3 15.8011 3 16C3 16.1989 3.07902 16.3897 3.21967 16.5303C3.36032 16.671 3.55109 16.75 3.75 16.75C5.92555 16.7524 8.03875 16.0234 9.75 14.68C11.1465 15.7711 12.8135 16.4617 14.5725 16.6778L12.0787 21.6644C11.9897 21.8423 11.975 22.0483 12.0379 22.237C12.1007 22.4257 12.236 22.5818 12.4139 22.6708C12.5918 22.7598 12.7978 22.7745 12.9865 22.7116C13.1753 22.6488 13.3313 22.5135 13.4203 22.3356L14.7131 19.75H21.2859L22.5788 22.3356C22.6411 22.4602 22.7369 22.565 22.8555 22.6382C22.9741 22.7114 23.1107 22.7501 23.25 22.75C23.3778 22.7499 23.5035 22.7172 23.6151 22.6549C23.7268 22.5926 23.8206 22.5028 23.8878 22.394C23.9549 22.2853 23.9932 22.1611 23.9989 22.0334C24.0046 21.9057 23.9775 21.7787 23.9203 21.6644ZM15.4631 18.25L18 13.1772L20.5359 18.25H15.4631Z" fill="#2538E8"/>
</g>
</svg>
