<svg width="24" height="24" viewBox="0 0 24 24" fill="none" xmlns="http://www.w3.org/2000/svg">
<g id="menu_svgrepo.com">
<path id="Vector" d="M3.75 9.99997C3.6837 9.99997 3.62011 9.97363 3.57322 9.92674C3.52634 9.87986 3.5 9.81627 3.5 9.74997V3.75146C3.5 3.68516 3.52634 3.62157 3.57322 3.57469C3.62011 3.5278 3.6837 3.50146 3.75 3.50146H9.75C9.8163 3.50146 9.87989 3.5278 9.92678 3.57469C9.97366 3.62157 10 3.68516 10 3.75146V9.74997C10 9.81627 9.97366 9.87986 9.92678 9.92674C9.87989 9.97363 9.8163 9.99997 9.75 9.99997H3.75ZM14.25 9.99997C14.1837 9.99997 14.1201 9.97363 14.0732 9.92674C14.0263 9.87986 14 9.81627 14 9.74997V3.75146C14 3.68516 14.0263 3.62157 14.0732 3.57469C14.1201 3.5278 14.1837 3.50146 14.25 3.50146H20.2485C20.3148 3.50146 20.3784 3.5278 20.4253 3.57469C20.4722 3.62157 20.4985 3.68516 20.4985 3.75146V9.74997C20.4985 9.81627 20.4722 9.87986 20.4253 9.92674C20.3784 9.97363 20.3148 9.99997 20.2485 9.99997H14.25ZM3.75 20.5C3.68369 20.5 3.62011 20.4736 3.57323 20.4267C3.52634 20.3799 3.5 20.3163 3.5 20.25V14.25C3.5 14.1837 3.52634 14.1201 3.57322 14.0732C3.62011 14.0263 3.6837 14 3.75 14H9.75C9.8163 14 9.87989 14.0263 9.92678 14.0732C9.97366 14.1201 10 14.1837 10 14.25V20.25C10 20.3163 9.97366 20.3799 9.92678 20.4267C9.87989 20.4736 9.81631 20.5 9.75 20.5H3.75ZM14.25 20.5C14.1837 20.5 14.1201 20.4736 14.0732 20.4267C14.0263 20.3799 14 20.3163 14 20.25V14.25C14 14.1837 14.0263 14.1201 14.0732 14.0732C14.1201 14.0263 14.1837 14 14.25 14H20.2485C20.3148 14 20.3784 14.0263 20.4253 14.0732C20.4722 14.1201 20.4985 14.1837 20.4985 14.25V20.25C20.4985 20.3163 20.4722 20.3799 20.4253 20.4267C20.3784 20.4736 20.3148 20.5 20.2485 20.5H14.25Z" stroke="black"/>
</g>
</svg>
