<svg width="24" height="24" viewBox="0 0 24 24" fill="none" xmlns="http://www.w3.org/2000/svg">
<g id="CodaLogo" clip-path="url(#clip0_728_7647)">
<path id="Vector" d="M13.2407 12.3394C13.2407 13.3339 13.6358 14.2877 14.3391 14.991C15.0423 15.6943 15.9962 16.0894 16.9907 16.0894H17.0207C17.7548 16.1175 18.3332 15.9525 19.012 15.5165C19.182 15.4084 19.3778 15.3479 19.5792 15.3414C19.7805 15.3349 19.9799 15.3825 20.1566 15.4793C20.3332 15.5762 20.4806 15.7187 20.5834 15.892C20.6861 16.0652 20.7405 16.2629 20.7407 16.4644V19.8394C20.7407 20.2372 20.5827 20.6187 20.3014 20.9C20.0201 21.1813 19.6385 21.3394 19.2407 21.3394H5.74072C5.3429 21.3394 4.96137 21.1813 4.68006 20.9C4.39876 20.6187 4.24072 20.2372 4.24072 19.8394V4.83936C4.24072 4.44153 4.39876 4.06 4.68006 3.7787C4.96137 3.49739 5.3429 3.33936 5.74072 3.33936H19.2407C19.6385 3.33936 20.0201 3.49739 20.3014 3.7787C20.5827 4.06 20.7407 4.44153 20.7407 4.83936V8.21436C20.7406 8.41616 20.6862 8.61422 20.5833 8.78777C20.4803 8.96133 20.3325 9.104 20.1555 9.20082C19.9784 9.29764 19.7786 9.34505 19.5769 9.33809C19.3752 9.33112 19.1791 9.27004 19.0092 9.16123C18.4397 8.80583 17.7858 8.60884 17.1148 8.59058C16.4438 8.57233 15.7801 8.73347 15.1922 9.05738C14.6043 9.38128 14.1135 9.85622 13.7705 10.4332C13.4274 11.0101 13.2445 11.6681 13.2407 12.3394Z" fill="#2538E8"/>
</g>
<defs>
<clipPath id="clip0_728_7647">
<rect width="24" height="24" fill="white" transform="translate(0.490723 0.339355)"/>
</clipPath>
</defs>
</svg>
