<svg width="12" height="12" viewBox="0 0 12 12" fill="none" xmlns="http://www.w3.org/2000/svg">
<g id="tennis-racket-game_svgrepo.com" clip-path="url(#clip0_473_11448)">
<g id="Group">
<path id="Vector" d="M7.27717 3.65981L6.49216 4.44482L7.02394 4.97661L7.80896 4.19159L7.27717 3.65981Z" fill="white"/>
<path id="Vector_2" d="M9.88427 1.57605C9.23965 0.931429 8.38015 0.644929 7.41321 0.716554C6.48208 0.788179 5.55096 1.25374 4.83471 1.96999C4.11846 2.68624 3.68871 3.61737 3.58127 4.54849C3.58127 4.72755 3.58127 4.8708 3.58127 5.01405V5.40799C3.58127 6.0168 3.33058 6.62562 2.90083 7.05537C2.90083 7.05537 2.90083 7.09118 2.86502 7.09118C2.86502 7.09118 2.82921 7.09118 2.82921 7.12699L1.0744 8.8818C0.644645 9.31155 0.644645 9.99199 1.0744 10.4217C1.25346 10.6366 1.53996 10.7441 1.82646 10.7441C2.11296 10.7441 2.39946 10.6366 2.61433 10.4217L4.36915 8.66693C4.36915 8.66693 4.36915 8.63112 4.40496 8.63112C4.40496 8.63112 4.44077 8.63112 4.44077 8.5953C4.87052 8.16555 5.47933 7.91487 6.08815 7.91487H6.44627C6.5179 7.91487 6.55371 7.91487 6.62533 7.91487C6.73277 7.91487 6.84021 7.91487 6.94765 7.91487C7.87877 7.84324 8.8099 7.37768 9.52614 6.66143C10.2424 5.94518 10.6721 5.01405 10.7796 4.08293C10.8154 3.08018 10.4931 2.22068 9.88427 1.57605ZM4.15427 7.84324L3.58127 7.27024C3.76033 7.05537 3.90358 6.80468 4.01102 6.51818C4.11846 6.69724 4.26171 6.84049 4.40496 6.98374C4.54821 7.12699 4.72727 7.27024 4.87052 7.37768C4.65565 7.52093 4.40496 7.66418 4.15427 7.84324ZM9.34708 3.65318L8.8099 4.19037L9.06058 4.44105C9.20383 4.5843 9.20383 4.79918 9.06058 4.94243C8.98896 5.01405 8.88152 5.04987 8.8099 5.04987C8.73827 5.04987 8.66665 5.01405 8.59502 4.94243L8.34433 4.69174L7.52065 5.47962L7.77133 5.7303C7.91458 5.87355 7.91458 6.08843 7.77133 6.23168C7.69971 6.3033 7.59227 6.33912 7.52065 6.33912C7.44902 6.33912 7.34158 6.3033 7.26996 6.23168L7.01927 5.98099L6.48208 6.51818C6.41046 6.5898 6.30302 6.62562 6.2314 6.62562C6.15977 6.62562 6.05233 6.5898 5.98071 6.51818C5.83746 6.37493 5.83746 6.16005 5.98071 6.0168L6.5179 5.47962L5.98071 4.94243L5.44352 5.47962C5.3719 5.55124 5.26446 5.58705 5.19283 5.58705C5.12121 5.58705 5.01377 5.55124 4.94215 5.47962C4.7989 5.33637 4.7989 5.12149 4.94215 4.97824L5.47933 4.44105L5.22865 4.19037C5.0854 4.04712 5.0854 3.83224 5.22865 3.68899C5.3719 3.54574 5.58677 3.54574 5.73002 3.68899L5.98071 3.93968L6.76858 3.1518L6.5179 2.8653C6.37465 2.72205 6.37465 2.50718 6.5179 2.36393C6.66115 2.22068 6.87602 2.22068 7.01927 2.36393L7.26996 2.61462L7.80715 2.07743C7.9504 1.93418 8.16527 1.93418 8.30852 2.07743C8.45177 2.22068 8.45177 2.43555 8.30852 2.5788L7.77133 3.11599L8.30852 3.65318L8.84571 3.11599C8.98896 2.97274 9.20383 2.97274 9.34708 3.11599C9.49033 3.25924 9.49033 3.50993 9.34708 3.65318Z" fill="white"/>
</g>
</g>
<defs>
<clipPath id="clip0_473_11448">
<rect width="11.46" height="11.46" fill="white" transform="translate(2.28882e-05 0.000244141)"/>
</clipPath>
</defs>
</svg>
