<svg width="10" height="15" viewBox="0 0 10 15" fill="none" xmlns="http://www.w3.org/2000/svg">
<path d="M4.99999 10.3125C6.50624 10.3125 7.72726 9.05331 7.72726 7.49999V2.8125C7.72726 1.25918 6.50624 0 4.99999 0C3.49374 0 2.27272 1.25918 2.27272 2.8125L2.27272 7.49999C2.27272 9.05331 3.49374 10.3125 4.99999 10.3125ZM9.54544 5.62499H9.09089C8.83976 5.62499 8.63635 5.83476 8.63635 6.09374V7.49999C8.63635 9.69139 6.80425 11.4498 4.63664 11.2318C2.74744 11.0417 1.36363 9.29032 1.36363 7.333V6.09374C1.36363 5.83476 1.16023 5.62499 0.909089 5.62499H0.454545C0.203409 5.62499 0 5.83476 0 6.09374L0 7.2703C0 9.89647 1.81733 12.2376 4.31817 12.5932V13.5937H2.72727C2.47613 13.5937 2.27272 13.8035 2.27272 14.0625V14.5312C2.27272 14.7902 2.47613 15 2.72727 15H7.27271C7.52385 15 7.72726 14.7902 7.72726 14.5312V14.0625C7.72726 13.8035 7.52385 13.5937 7.27271 13.5937H5.68181V12.6044C8.11675 12.2598 9.99998 10.1045 9.99998 7.49999V6.09374C9.99998 5.83476 9.79657 5.62499 9.54544 5.62499Z" fill="white"/>
</svg>
