<svg width="50" height="50" viewBox="0 0 50 50" fill="none" xmlns="http://www.w3.org/2000/svg">
<path d="M25 33.8236C20.1269 33.8236 16.1765 29.8731 16.1765 25C16.1765 20.127 20.1269 16.1765 25 16.1765C29.8731 16.1765 33.8235 20.127 33.8235 25C33.8235 29.8731 29.8731 33.8236 25 33.8236Z" fill="#AE9AFF"/>
<path d="M7.97726 28.5658C5.44812 29.0036 3.71452 31.4021 4.68538 33.7363C6.04081 36.9949 8.20323 39.8983 11.0067 42.1671C15.0153 45.4111 20.0715 47.1445 25.2658 47.0555C30.46 46.9666 35.4516 45.0609 39.3426 41.6815C42.0635 39.3181 44.1214 36.3423 45.3603 33.0393C46.2476 30.6732 44.4297 28.3356 41.8865 27.9847C39.3434 27.6339 37.06 29.4511 35.8039 31.6502C35.123 32.8422 34.239 33.9236 33.1801 34.8434C30.9476 36.7824 28.0837 37.8757 25.1036 37.9268C22.1233 37.9778 19.2223 36.9834 16.9223 35.122C15.8312 34.2391 14.9094 33.1886 14.1866 32.0207C12.853 29.866 10.5064 28.128 7.97726 28.5658Z" fill="#AE9AFF"/>
<path d="M46.8882 27.1949C47.0009 26.3123 47.0588 25.4131 47.0588 24.5007C47.0588 12.5937 37.1828 2.94116 25 2.94116C12.8172 2.94116 2.94116 12.5937 2.94116 24.5007C2.94116 25.6717 3.03668 26.8208 3.22052 27.9412C4.23372 26.5855 5.81508 25.6178 7.52316 25.3234C9.37124 25.0049 11.0508 25.443 12.471 26.2618C12.3871 25.6866 12.3437 25.0986 12.3437 24.5007C12.3437 17.6691 18.0101 12.1308 25 12.1308C31.9899 12.1308 37.6563 17.6691 37.6563 24.5007C37.6563 24.9511 37.6316 25.396 37.5837 25.8339C38.9738 24.9668 40.6371 24.4714 42.4957 24.7268C44.2128 24.9626 45.8272 25.8753 46.8882 27.1949Z" fill="#5429FF"/>
</svg>
