<svg width="184" height="22" viewBox="0 0 184 22" fill="none" xmlns="http://www.w3.org/2000/svg">
<g id="Group 49">
<rect id="Rectangle 73" x="162" y="6" width="4" height="10" rx="2" fill="white"/>
<rect id="Rectangle 74" x="171" y="5" width="4" height="12" rx="2" fill="white"/>
<rect id="Rectangle 75" x="180" width="4" height="22" rx="2" fill="white"/>
<rect id="Rectangle 80" x="171" width="4" height="22" rx="2" fill="white"/>
<rect id="Rectangle 81" x="171" width="4" height="22" rx="2" fill="white"/>
<rect id="Rectangle 82" x="162" width="4" height="22" rx="2" fill="white"/>
<rect id="Rectangle 83" x="153" width="4" height="22" rx="2" fill="white"/>
<rect id="Rectangle 84" x="144" width="4" height="22" rx="2" fill="white"/>
<rect id="Rectangle 85" x="135" width="4" height="22" rx="2" fill="white"/>
<rect id="Rectangle 86" x="126" width="4" height="22" rx="2" fill="white"/>
<rect id="Rectangle 87" x="117" width="4" height="22" rx="2" fill="white"/>
<rect id="Rectangle 88" x="108" width="4" height="22" rx="2" fill="white"/>
<rect id="Rectangle 89" x="99" width="4" height="22" rx="2" fill="white"/>
<rect id="Rectangle 90" x="90" width="4" height="22" rx="2" fill="white"/>
<rect id="Rectangle 91" x="81" width="4" height="22" rx="2" fill="white"/>
<rect id="Rectangle 92" x="72" width="4" height="22" rx="2" fill="white"/>
<rect id="Rectangle 93" x="63" width="4" height="22" rx="2" fill="white"/>
<rect id="Rectangle 94" x="54" width="4" height="22" rx="2" fill="white"/>
<rect id="Rectangle 95" x="45" width="4" height="22" rx="2" fill="white"/>
<rect id="Rectangle 96" x="36" width="4" height="22" rx="2" fill="white"/>
<rect id="Rectangle 97" x="27" width="4" height="22" rx="2" fill="white"/>
<rect id="Rectangle 98" x="18" width="4" height="22" rx="2" fill="white"/>
<rect id="Rectangle 99" x="9" width="4" height="22" rx="2" fill="white"/>
<rect id="Rectangle 100" width="4" height="22" rx="2" fill="white"/>
<rect id="Rectangle 71" x="145" width="4" height="22" rx="2" fill="white"/>
<rect id="Rectangle 62" x="64" width="4" height="22" rx="2" fill="white"/>
</g>
</svg>
