<svg width="51" height="50" viewBox="0 0 51 50" fill="none" xmlns="http://www.w3.org/2000/svg">
<g id="Frame">
<path id="Vector" d="M25.5 33.8236C20.6269 33.8236 16.6765 29.8731 16.6765 25C16.6765 20.127 20.6269 16.1765 25.5 16.1765C30.3731 16.1765 34.3235 20.127 34.3235 25C34.3235 29.8731 30.3731 33.8236 25.5 33.8236Z" fill="#AE9AFF"/>
<path id="Vector_2" d="M8.47726 28.5658C5.94812 29.0036 4.21452 31.4021 5.18538 33.7363C6.54081 36.9949 8.70323 39.8983 11.5067 42.1671C15.5153 45.4111 20.5715 47.1445 25.7658 47.0555C30.96 46.9666 35.9516 45.0609 39.8426 41.6815C42.5635 39.3181 44.6214 36.3423 45.8603 33.0393C46.7476 30.6732 44.9297 28.3356 42.3865 27.9847C39.8434 27.6339 37.56 29.4511 36.3039 31.6502C35.623 32.8422 34.739 33.9236 33.6801 34.8434C31.4476 36.7824 28.5837 37.8757 25.6036 37.9268C22.6233 37.9778 19.7223 36.9834 17.4223 35.122C16.3312 34.2391 15.4094 33.1886 14.6866 32.0207C13.353 29.866 11.0064 28.128 8.47726 28.5658Z" fill="#AE9AFF"/>
<path id="Vector_3" d="M47.3882 27.1949C47.5009 26.3123 47.5588 25.4131 47.5588 24.5007C47.5588 12.5937 37.6828 2.94116 25.5 2.94116C13.3172 2.94116 3.44116 12.5937 3.44116 24.5007C3.44116 25.6717 3.53668 26.8208 3.72052 27.9412C4.73372 26.5855 6.31508 25.6178 8.02316 25.3234C9.87124 25.0049 11.5508 25.443 12.971 26.2618C12.8871 25.6866 12.8437 25.0986 12.8437 24.5007C12.8437 17.6691 18.5101 12.1308 25.5 12.1308C32.4899 12.1308 38.1563 17.6691 38.1563 24.5007C38.1563 24.9511 38.1316 25.396 38.0837 25.8339C39.4738 24.9668 41.1371 24.4714 42.9957 24.7268C44.7128 24.9626 46.3272 25.8753 47.3882 27.1949Z" fill="#5429FF"/>
</g>
</svg>
